<?xml version="1.0" encoding="utf-8"?>
<!-- Generator: Adobe Illustrator 22.1.0, SVG Export Plug-In . SVG Version: 6.00 Build 0)  -->
<svg version="1.1" id="Layer_2" xmlns="http://www.w3.org/2000/svg" xmlns:xlink="http://www.w3.org/1999/xlink" x="0px" y="0px"
	 viewBox="0 0 668 669.1" style="enable-background:new 0 0 668 669.1;" xml:space="preserve">
<style type="text/css">
	.st0{fill:#EEF4FF;}
	.st1{fill:#FFFFFF;stroke:#144496;stroke-width:7;stroke-miterlimit:10;}
	.st2{fill:none;stroke:#144496;stroke-width:7;stroke-miterlimit:10;}
	.st3{fill:none;stroke:#144496;stroke-width:7;stroke-linecap:round;stroke-linejoin:round;stroke-miterlimit:10;}
</style>
<circle class="st0" cx="330.3" cy="320" r="320"/>
<g>
	<g>
		<path class="st1" d="M429.5,291.1h-198c-4.1,0-7.5-3.4-7.5-7.5l0,0c0-54.4,44.5-99,99-99h15c54.4,0,99,44.5,99,99l0,0
			C437,287.8,433.6,291.1,429.5,291.1z"/>
		<path class="st1" d="M330.5,184.6L330.5,184.6c-29.6,0-53.8-24.2-53.8-53.8v-17.4c0-9.6,7.9-17.5,17.5-17.5l90.1-17.6v52.6
			C384.3,160.4,360.1,184.6,330.5,184.6z"/>
		<path class="st1" d="M347.6,117.1h-62.1c-4.9,0-8.8-4-8.8-8.8V100c0-21.6,17.7-39.3,39.3-39.3h59.5c4.9,0,8.8,4,8.8,8.8v11
			C384.3,100.6,367.8,117.1,347.6,117.1z"/>
		<polyline class="st2" points="291.5,189.8 330.6,225.5 330.6,225.5 369.6,189.8 		"/>
	</g>
	<g>
		<path class="st1" d="M200.6,291.1h-149c-3.1,0-5.6-2.5-5.6-5.6l0,0c0-41,33.5-74.5,74.5-74.5h11.3c41,0,74.5,33.5,74.5,74.5l0,0
			C206.2,288.6,203.7,291.1,200.6,291.1z"/>
		<path class="st1" d="M126.1,211L126.1,211c-22.3,0-40.5-18.2-40.5-40.5v-13.1c0-7.3,5.9-13.2,13.2-13.2l67.8-13.3v39.6
			C166.6,192.8,148.4,211,126.1,211z"/>
		<path class="st1" d="M139,160.2H92.2c-3.7,0-6.6-3-6.6-6.6v-6.3c0-16.3,13.3-29.6,29.6-29.6H160c3.7,0,6.6,3,6.6,6.6v8.3
			C166.6,147.7,154.2,160.2,139,160.2z"/>
		<polyline class="st2" points="96.8,214.9 126.2,241.7 126.2,241.7 155.5,214.9 		"/>
	</g>
	<g>
		<path class="st1" d="M609.6,291.1h-149c-3.1,0-5.6-2.5-5.6-5.6l0,0c0-41,33.5-74.5,74.5-74.5h11.3c41,0,74.5,33.5,74.5,74.5l0,0
			C615.3,288.6,612.7,291.1,609.6,291.1z"/>
		<path class="st1" d="M535.1,211L535.1,211c-22.3,0-40.5-18.2-40.5-40.5v-13.1c0-7.3,5.9-13.2,13.2-13.2l67.8-13.3v39.6
			C575.6,192.8,557.4,211,535.1,211z"/>
		<path class="st1" d="M548,160.2h-46.8c-3.7,0-6.6-3-6.6-6.6v-6.3c0-16.3,13.3-29.6,29.6-29.6H569c3.7,0,6.6,3,6.6,6.6v8.3
			C575.6,147.7,563.2,160.2,548,160.2z"/>
		<polyline class="st2" points="505.8,214.9 535.2,241.7 535.2,241.7 564.6,214.9 		"/>
	</g>
	<polygon class="st1" points="626.8,324.3 46,324.3 286.3,571.1 286.3,571.1 286.3,665.7 390.3,665.7 390.3,569.1 	"/>
	<path class="st1" d="M629.8,357.4H38.2C20,357.4,5,342.5,5,324.2l0,0C5,306,19.9,291,38.2,291h591.7c18.2,0,33.2,14.9,33.2,33.2
		l0,0C663,342.5,648.1,357.4,629.8,357.4z"/>
	<line class="st3" x1="557" y1="395.4" x2="330.5" y2="395.4"/>
	<line class="st3" x1="519.8" y1="433.6" x2="330.5" y2="433.6"/>
	<line class="st3" x1="483.5" y1="471.7" x2="330.5" y2="471.7"/>
	<line class="st3" x1="447.3" y1="509.9" x2="330.5" y2="509.9"/>
	<line class="st3" x1="410.1" y1="548" x2="330.5" y2="548"/>
	<line class="st3" x1="390.1" y1="586.1" x2="330.5" y2="586.1"/>
	<line class="st3" x1="390.1" y1="624.3" x2="330.5" y2="624.3"/>
</g>
</svg>
