<svg xmlns="http://www.w3.org/2000/svg" viewBox="0 0 414.11 414.11"><defs><style>.cls-1{fill:#eef4ff;}.cls-1,.cls-2,.cls-4{fill-rule:evenodd;}.cls-2,.cls-6,.cls-8{fill:#fff;}.cls-2,.cls-3,.cls-7,.cls-8{stroke:#144496;}.cls-2,.cls-3,.cls-7{stroke-miterlimit:10;}.cls-2,.cls-3{stroke-width:4.54px;}.cls-3{fill:none;}.cls-4,.cls-5,.cls-7{fill:#144496;}.cls-7{stroke-width:2.83px;}.cls-8{stroke-linejoin:round;stroke-width:4.25px;}</style></defs><title>Улучшение конверсии</title><g id="Слой_2" data-name="Слой 2"><g id="Слой_1-2" data-name="Слой 1"><path class="cls-1" d="M414.11,207c0-114-93-207-207.07-207S0,93,0,207,93,414.11,207,414.11s207.07-93,207.07-207.07Z"/><path class="cls-2" d="M271.25,404.9H143.12a4.91,4.91,0,0,1-4.85-4.87h0a64.25,64.25,0,0,1,64.07-64H212a64.22,64.22,0,0,1,64.06,64h0a4.86,4.86,0,0,1-4.84,4.87Z"/><path class="cls-2" d="M207.18,336h0a34.91,34.91,0,0,1-34.81-34.81V289.9a11.37,11.37,0,0,1,11.32-11.31l58.3-11.4v34.05A34.89,34.89,0,0,1,207.18,336Z"/><path class="cls-2" d="M218.24,292.31H178.07a5.7,5.7,0,0,1-5.7-5.7v-5.36A25.54,25.54,0,0,1,197.8,255.8h38.5a5.71,5.71,0,0,1,5.69,5.7v7.11a23.81,23.81,0,0,1-23.75,23.7Z"/><polyline class="cls-3" points="181.96 339.33 207.24 362.44 207.24 362.44 232.5 339.33"/><path class="cls-2" d="M123.14,323.94H26.73a3.61,3.61,0,0,1-3.63-3.62h0a48.32,48.32,0,0,1,48.22-48.19H78.6a48.31,48.31,0,0,1,48.22,48.19h0a3.69,3.69,0,0,1-3.68,3.62Z"/><path class="cls-2" d="M74.92,272.13h0a26.27,26.27,0,0,1-26.19-26.22v-8.48a8.53,8.53,0,0,1,8.53-8.53l43.88-8.62v25.63a26.29,26.29,0,0,1-26.22,26.22Z"/><path class="cls-2" d="M83.28,239.24H53A4.25,4.25,0,0,1,48.73,235v-4.05a19.21,19.21,0,0,1,19.16-19.16h29a4.26,4.26,0,0,1,4.28,4.28v5.36a17.92,17.92,0,0,1-17.86,17.85Z"/><polyline class="cls-3" points="55.98 274.65 75 291.97 75 291.97 93.94 274.65"/><path class="cls-2" d="M387.78,323.94H291.37a3.61,3.61,0,0,1-3.63-3.62h0a48.31,48.31,0,0,1,48.19-48.19h7.32a48.31,48.31,0,0,1,48.21,48.19h0a3.66,3.66,0,0,1-3.68,3.62Z"/><path class="cls-2" d="M339.56,272.13h0a26.27,26.27,0,0,1-26.19-26.22v-8.48a8.52,8.52,0,0,1,8.53-8.53l43.88-8.62v25.63a26.29,26.29,0,0,1-26.22,26.22Z"/><path class="cls-2" d="M347.92,239.24h-30.3a4.25,4.25,0,0,1-4.25-4.28v-4.05a19.19,19.19,0,0,1,19.13-19.16h29a4.28,4.28,0,0,1,4.28,4.28v5.36a17.92,17.92,0,0,1-17.86,17.85Z"/><polyline class="cls-3" points="320.6 274.65 339.65 291.97 339.65 291.97 358.67 274.65"/><polygon class="cls-4" points="299.06 107.04 300.76 103.92 320.71 102.39 321.02 106.64 301.1 108.14 302.8 105.02 299.06 107.04"/><polygon class="cls-4" points="299.06 107.04 297.5 104.17 300.76 103.92 299.06 107.04"/><polygon class="cls-4" points="310.45 123.62 308.58 124.64 299.06 107.04 302.8 105.02 312.32 122.6 310.45 123.62 310.45 123.62"/><polygon class="cls-5" points="360.28 196.61 360.25 195.73 360.23 194.85 360.2 193.95 360.14 193.07 360.08 192.19 360.03 191.31 359.97 190.43 359.89 189.52 359.8 188.65 359.72 187.77 359.6 186.92 359.52 186.04 359.4 185.16 359.26 184.28 359.15 183.43 359.01 182.55 358.87 181.67 358.72 180.82 358.58 179.94 358.41 179.09 358.24 178.24 358.07 177.39 357.87 176.54 357.7 175.69 357.5 174.84 357.28 173.99 357.08 173.14 356.85 172.29 356.65 171.44 356.4 170.62 356.17 169.77 355.95 168.94 355.69 168.12 355.44 167.27 355.15 166.45 354.9 165.63 354.61 164.81 354.33 163.98 354.05 163.19 353.74 162.37 353.45 161.55 353.14 160.75 352.83 159.93 352.49 159.14 352.18 158.34 351.84 157.55 351.5 156.76 351.16 155.96 350.79 155.17 350.42 154.4 350.05 153.61 349.68 152.84 349.31 152.05 348.92 151.28 348.55 150.52 348.15 149.75 347.73 148.99 347.33 148.22 346.9 147.49 346.48 146.72 346.05 145.98 345.63 145.25 345.18 144.48 344.75 143.75 344.3 143.04 343.84 142.3 343.36 141.56 342.91 140.85 342.43 140.12 341.94 139.41 341.46 138.7 340.95 137.99 340.47 137.28 339.96 136.6 339.45 135.89 338.94 135.21 338.4 134.5 337.89 133.82 337.35 133.14 336.81 132.49 336.27 131.81 335.74 131.13 335.17 130.48 334.6 129.83 334.04 129.18 333.47 128.52 332.9 127.87 332.31 127.25 331.71 126.59 331.14 125.97 330.52 125.35 329.92 124.72 329.33 124.1 328.7 123.51 328.08 122.88 327.46 122.29 326.83 121.69 326.21 121.1 325.56 120.5 324.91 119.93 324.25 119.34 323.6 118.77 322.95 118.2 322.27 117.64 321.62 117.07 320.94 116.53 320.26 115.97 319.58 115.43 318.87 114.89 318.19 114.38 317.48 113.84 316.77 113.33 316.06 112.79 315.35 112.28 314.62 111.8 313.91 111.29 313.17 110.81 312.44 110.3 311.7 109.81 310.96 109.36 310.19 108.88 309.46 108.42 308.69 107.94 307.93 107.49 307.16 107.06 306.4 106.61 305.63 106.19 304.84 105.73 302.8 109.47 303.56 109.9 304.3 110.3 305.04 110.72 305.77 111.17 306.51 111.6 307.25 112.05 307.96 112.48 308.67 112.93 309.4 113.39 310.11 113.87 310.79 114.32 311.5 114.8 312.21 115.28 312.89 115.77 313.57 116.25 314.25 116.76 314.93 117.24 315.61 117.75 316.29 118.26 316.94 118.77 317.59 119.31 318.25 119.82 318.9 120.36 319.55 120.9 320.17 121.44 320.82 121.97 321.45 122.54 322.07 123.08 322.7 123.65 323.32 124.21 323.92 124.78 324.51 125.35 325.13 125.94 325.73 126.51 326.3 127.11 326.89 127.7 327.46 128.3 328.05 128.89 328.62 129.49 329.19 130.11 329.73 130.73 330.29 131.33 330.83 131.95 331.37 132.6 331.91 133.23 332.45 133.85 332.99 134.5 333.5 135.16 334.01 135.78 334.52 136.43 335.03 137.11 335.54 137.76 336.02 138.42 336.53 139.1 337.01 139.75 337.49 140.43 337.95 141.11 338.43 141.79 338.88 142.5 339.33 143.18 339.79 143.86 340.24 144.57 340.67 145.28 341.12 145.98 341.55 146.66 341.97 147.4 342.37 148.11 342.79 148.82 343.19 149.56 343.59 150.26 343.98 151 344.38 151.74 344.75 152.48 345.12 153.21 345.49 153.95 345.86 154.69 346.22 155.42 346.56 156.19 346.93 156.93 347.27 157.69 347.58 158.46 347.92 159.22 348.24 159.99 348.55 160.75 348.86 161.52 349.17 162.28 349.45 163.05 349.77 163.84 350.05 164.61 350.31 165.4 350.59 166.19 350.84 166.99 351.13 167.75 351.38 168.55 351.61 169.34 351.87 170.16 352.09 170.96 352.32 171.75 352.55 172.57 352.74 173.37 352.97 174.19 353.17 174.98 353.37 175.81 353.54 176.63 353.74 177.45 353.9 178.24 354.08 179.06 354.25 179.89 354.39 180.74 354.53 181.56 354.67 182.38 354.81 183.2 354.95 184.05 355.07 184.88 355.18 185.73 355.29 186.55 355.38 187.4 355.49 188.25 355.58 189.07 355.63 189.92 355.72 190.77 355.78 191.62 355.83 192.47 355.89 193.32 355.95 194.17 355.98 195.02 356 195.87 356.03 196.72 360.28 196.61"/><path class="cls-5" d="M207.3,11.14a81.75,81.75,0,1,1-81.75,81.75A81.75,81.75,0,0,1,207.3,11.14Zm0,4.93a76.82,76.82,0,1,1-76.82,76.82A76.82,76.82,0,0,1,207.3,16.07Z"/><path class="cls-6" d="M284.12,92.89a76.82,76.82,0,1,0-76.82,76.82,77,77,0,0,0,76.82-76.82Z"/><path class="cls-7" d="M249.19,133.46l.15-.2,0-.29V41.56l5,5a.68.68,0,0,0,1,0,.62.62,0,0,0,0-1l-6.15-6.15a.77.77,0,0,0-.51-.23.7.7,0,0,0-.48.23l-6.15,6.15a.68.68,0,1,0,1,1l5-5V133a.73.73,0,0,0,.2.49.69.69,0,0,0,.48.22l.26-.05.25-.17Z"/><polygon class="cls-8" points="170.96 134.73 170.96 105.82 153.04 105.82 153.04 134.73 169.09 134.73 170.96 134.73"/><polygon class="cls-8" points="184.28 92.72 184.28 134.73 200.35 134.73 202.19 134.73 202.19 92.72 184.28 92.72"/><polygon class="cls-8" points="215.55 67.21 215.55 134.73 231.59 134.73 233.46 134.73 233.46 67.21 215.55 67.21"/><polygon class="cls-4" points="114.09 103.92 115.8 107.04 106.3 124.64 102.56 122.6 112.08 105.02 113.78 108.14 114.09 103.92"/><polygon class="cls-4" points="114.09 103.92 117.38 104.17 115.8 107.04 114.09 103.92"/><polygon class="cls-4" points="94 104.51 94.17 102.39 114.09 103.92 113.78 108.14 93.83 106.64 94 104.51 94 104.51"/><polygon class="cls-5" points="58.82 196.72 58.85 195.87 58.88 195.02 58.93 194.17 58.96 193.32 59.02 192.47 59.07 191.62 59.16 190.77 59.22 189.92 59.3 189.07 59.39 188.25 59.47 187.4 59.58 186.55 59.7 185.73 59.81 184.88 59.92 184.05 60.07 183.2 60.18 182.38 60.32 181.56 60.49 180.74 60.63 179.89 60.8 179.06 60.97 178.24 61.14 177.45 61.31 176.63 61.51 175.81 61.71 174.98 61.91 174.19 62.11 173.37 62.33 172.57 62.56 171.75 62.79 170.96 63.01 170.16 63.24 169.34 63.5 168.55 63.75 167.75 64.01 166.99 64.26 166.19 64.55 165.4 64.83 164.61 65.11 163.84 65.39 163.05 65.71 162.28 65.99 161.52 66.3 160.75 66.61 159.99 66.95 159.22 67.27 158.46 67.61 157.69 67.95 156.93 68.29 156.19 68.66 155.42 69 154.69 69.36 153.95 69.73 153.21 70.1 152.48 70.5 151.74 70.87 151 71.26 150.26 71.66 149.56 72.08 148.82 72.48 148.11 72.91 147.4 73.33 146.66 73.76 145.98 74.18 145.28 74.64 144.57 75.06 143.86 75.52 143.18 75.97 142.5 76.45 141.79 76.9 141.11 77.39 140.43 77.87 139.75 78.35 139.1 78.83 138.42 79.34 137.76 79.82 137.11 80.33 136.43 80.84 135.78 81.35 135.16 81.89 134.5 82.4 133.85 82.94 133.23 83.48 132.6 84.02 131.95 84.59 131.33 85.12 130.73 85.69 130.11 86.26 129.49 86.83 128.89 87.39 128.3 87.99 127.7 88.55 127.11 89.15 126.51 89.75 125.94 90.34 125.35 90.94 124.78 91.56 124.21 92.18 123.65 92.81 123.08 93.43 122.54 94.05 121.97 94.68 121.44 95.33 120.9 95.95 120.36 96.61 119.82 97.26 119.31 97.94 118.77 98.59 118.26 99.27 117.75 99.92 117.24 100.6 116.76 101.28 116.25 101.96 115.77 102.67 115.28 103.35 114.8 104.06 114.32 104.77 113.87 105.48 113.39 106.19 112.93 106.89 112.48 107.63 112.05 108.37 111.6 109.08 111.17 109.81 110.72 110.58 110.3 111.32 109.9 112.05 109.47 110.01 105.73 109.25 106.19 108.48 106.61 107.69 107.06 106.92 107.49 106.16 107.94 105.42 108.42 104.66 108.88 103.92 109.36 103.15 109.81 102.42 110.3 101.71 110.81 100.97 111.29 100.23 111.8 99.52 112.28 98.82 112.79 98.11 113.33 97.4 113.84 96.69 114.38 95.98 114.89 95.3 115.43 94.62 115.97 93.94 116.53 93.26 117.07 92.58 117.64 91.93 118.2 91.25 118.77 90.59 119.34 89.94 119.93 89.32 120.5 88.67 121.1 88.04 121.69 87.39 122.29 86.77 122.88 86.17 123.51 85.55 124.1 84.93 124.72 84.33 125.35 83.73 125.97 83.14 126.59 82.55 127.25 81.98 127.87 81.38 128.52 80.82 129.18 80.25 129.83 79.71 130.48 79.14 131.13 78.61 131.81 78.04 132.49 77.5 133.14 76.99 133.82 76.45 134.5 75.94 135.21 75.43 135.89 74.92 136.6 74.41 137.28 73.9 137.99 73.42 138.7 72.94 139.41 72.45 140.12 71.97 140.85 71.49 141.56 71.04 142.3 70.58 143.04 70.13 143.75 69.68 144.48 69.25 145.25 68.8 145.98 68.37 146.72 67.95 147.49 67.55 148.22 67.12 148.99 66.73 149.75 66.33 150.52 65.93 151.28 65.56 152.05 65.17 152.84 64.8 153.61 64.43 154.4 64.06 155.17 63.72 155.96 63.38 156.76 63.04 157.55 62.7 158.34 62.36 159.14 62.05 159.93 61.74 160.75 61.43 161.55 61.12 162.37 60.83 163.19 60.55 163.98 60.27 164.81 59.98 165.63 59.7 166.45 59.44 167.27 59.19 168.12 58.93 168.94 58.68 169.77 58.45 170.62 58.22 171.44 58 172.29 57.77 173.14 57.57 173.99 57.37 174.84 57.17 175.69 56.98 176.54 56.81 177.39 56.64 178.24 56.47 179.09 56.3 179.94 56.15 180.82 55.98 181.67 55.84 182.55 55.73 183.43 55.59 184.28 55.47 185.16 55.36 186.04 55.25 186.92 55.16 187.77 55.08 188.65 54.99 189.52 54.91 190.43 54.85 191.31 54.77 192.19 54.71 193.07 54.68 193.95 54.62 194.85 54.59 195.73 54.57 196.61 58.82 196.72"/><polygon class="cls-4" points="204.29 189.75 207.87 189.72 218.81 206.48 215.24 208.8 204.29 192.08 207.87 192.05 204.29 189.75"/><polygon class="cls-4" points="204.29 189.75 206.05 187 207.87 189.72 204.29 189.75"/><polygon class="cls-4" points="195.25 207.72 193.47 206.56 204.29 189.75 207.87 192.05 197.04 208.88 195.25 207.72 195.25 207.72"/><polygon class="cls-5" points="208.4 237.77 208.21 194.2 203.95 194.2 204.15 237.8 208.4 237.77"/></g></g></svg>