<?xml version="1.0" encoding="utf-8"?>
<!-- Generator: Adobe Illustrator 22.1.0, SVG Export Plug-In . SVG Version: 6.00 Build 0)  -->
<svg version="1.1" id="Layer_2" xmlns="http://www.w3.org/2000/svg" xmlns:xlink="http://www.w3.org/1999/xlink" x="0px" y="0px"
	 viewBox="0 0 640 640.2" style="enable-background:new 0 0 640 640.2;" xml:space="preserve">
<style type="text/css">
	.st0{fill:#EEF4FF;}
	.st1{fill:#FFFFFF;stroke:#144496;stroke-width:7;stroke-miterlimit:10;}
	.st2{fill:#FFFFFF;stroke:#144496;stroke-width:7;stroke-linecap:round;stroke-miterlimit:10;}
	.st3{fill:none;stroke:#144496;stroke-width:7;stroke-miterlimit:10;}
	.st4{fill:none;stroke:#144496;stroke-width:7;stroke-linecap:round;stroke-miterlimit:10;}
	.st5{fill:#144496;}
</style>
<circle class="st0" cx="320" cy="320.2" r="320"/>
<g>
	<circle class="st1" cx="320" cy="320.2" r="273.5"/>
	<path class="st2" d="M101.4,268.4c19.1-81,82-145,162.3-165.7"/>
	<g>
		<path class="st1" d="M432.8,443.1H201.9c-4.8,0-8.7-3.9-8.7-8.7l0,0c0-63.5,52-115.5,115.5-115.5h17.5
			c63.5,0,115.5,52,115.5,115.5l0,0C441.5,439.1,437.6,443.1,432.8,443.1z"/>
		<path class="st1" d="M317.3,318.9L317.3,318.9c-34.5,0-62.8-28.2-62.8-62.8v-20.3c0-11.3,9.2-20.5,20.5-20.5l105.1-20.6V256
			C380.1,290.6,351.8,318.9,317.3,318.9z"/>
		<path class="st1" d="M337.3,240.1h-72.5c-5.7,0-10.3-4.6-10.3-10.3v-9.7c0-25.2,20.6-45.9,45.9-45.9h69.4
			c5.7,0,10.3,4.6,10.3,10.3v12.8C380.1,220.8,360.8,240.1,337.3,240.1z"/>
		<polyline class="st3" points="271.9,324.9 317.4,366.5 317.4,366.5 363,324.9 		"/>
	</g>
	<line class="st4" x1="22.5" y1="324.7" x2="70.3" y2="324.7"/>
	<line class="st4" x1="569.6" y1="324.7" x2="617.4" y2="324.7"/>
	<line class="st4" x1="319.9" y1="22.6" x2="319.9" y2="70.4"/>
	<line class="st4" x1="319.9" y1="569.7" x2="319.9" y2="617.4"/>
	<path class="st2" d="M367.6,541.7c81-19.1,145-82,165.7-162.3"/>
	<ellipse class="st5" cx="96.9" cy="290.7" rx="4.1" ry="4.3"/>
	<ellipse class="st5" cx="535.7" cy="358.3" rx="4.1" ry="4.3"/>
</g>
</svg>
