<?xml version="1.0" encoding="utf-8"?>
<!-- Generator: Adobe Illustrator 22.1.0, SVG Export Plug-In . SVG Version: 6.00 Build 0)  -->
<svg version="1.1" id="Layer_2" xmlns="http://www.w3.org/2000/svg" xmlns:xlink="http://www.w3.org/1999/xlink" x="0px" y="0px"
	 viewBox="0 0 640 640" style="enable-background:new 0 0 640 640;" xml:space="preserve">
<style type="text/css">
	.st0{fill:#EEF4FF;}
	.st1{fill:#FFFFFF;stroke:#144496;stroke-width:7;stroke-miterlimit:10;}
	.st2{fill:#144496;}
	.st3{fill:none;stroke:#144496;stroke-width:7;stroke-miterlimit:10;}
	.st4{fill:none;stroke:#144496;stroke-width:7;stroke-linecap:round;stroke-miterlimit:10;}
</style>
<circle class="st0" cx="320" cy="320" r="320"/>
<g>
	<g>
		<path class="st1" d="M408.3,316.1H252.9h-88.8c-21.2,0-38.6-14.5-38.6-32.2l0,0c0-17.7,17.4-32.2,38.6-32.2h244.2
			c21.2,0,38.6,14.5,38.6,32.2l0,0c0,8.9-4.4,16.9-11.3,22.8C428.5,312.5,418.9,316.1,408.3,316.1z"/>
		<path class="st1" d="M408.3,380.5H252.9h-88.8c-21.2,0-38.6-14.5-38.6-32.2l0,0c0-17.7,17.4-32.2,38.6-32.2h244.2
			c21.2,0,38.6,14.5,38.6,32.2l0,0c0,8.9-4.4,16.9-11.3,22.8C428.5,376.9,418.9,380.5,408.3,380.5z"/>
		<path class="st1" d="M408.3,444.9H252.9h-88.8c-21.2,0-38.6-14.5-38.6-32.2l0,0c0-17.7,17.4-32.2,38.6-32.2h244.2
			c21.2,0,38.6,14.5,38.6,32.2l0,0c0,8.9-4.4,16.9-11.3,22.8C428.5,441.3,418.9,444.9,408.3,444.9z"/>
		<path class="st1" d="M361.8,187.4H206.4h-88.8c-21.2,0-38.6-14.5-38.6-32.2l0,0c0-17.7,17.4-32.2,38.6-32.2h244.2
			c21.2,0,38.6,14.5,38.6,32.2l0,0c0,8.9-4.4,16.9-11.3,22.8C382.1,183.7,372.5,187.4,361.8,187.4z"/>
		<path class="st1" d="M472.7,251.7H317.3h-88.8c-21.2,0-38.6-14.5-38.6-32.2l0,0c0-17.7,17.4-32.2,38.6-32.2h244.2
			c21.2,0,38.6,14.5,38.6,32.2l0,0c0,8.9-4.4,16.9-11.3,22.8C492.9,248.1,483.3,251.7,472.7,251.7z"/>
		<path class="st1" d="M408.3,509.3H252.9h-88.8c-21.2,0-38.6-14.5-38.6-32.2l0,0c0-17.7,17.4-32.2,38.6-32.2h244.2
			c21.2,0,38.6,14.5,38.6,32.2l0,0c0,8.9-4.4,16.9-11.3,22.8C428.5,505.7,418.9,509.3,408.3,509.3z"/>
	</g>
	<g>
		<circle class="st1" cx="422.7" cy="396.5" r="161.7"/>
		<g>
			<path class="st2" d="M428.4,447.4V464h-9v-16.3c-14.1-0.6-23.7-4.8-33.1-14.1l7.8-7.8c7.9,7.9,15.6,11.1,25.9,11.6v-39.8l-3-0.3
				c-8.1-0.8-15.3-4.6-19.6-8.1c-5.4-4.8-8.2-11.4-8.2-19.9c0-16.9,11.4-28.6,30.2-30.1v-13.5h9v13.4c11.6,0.6,19.7,4.2,28,11.6
				l-7.4,7.4c-5.7-5.1-11.9-8.4-21-9V388l4.6,0.8c9.9,1.6,14.9,3.6,19.4,7.6c5.9,4.9,9.2,12.3,9.2,21.2
				C461.2,434.8,448.3,446,428.4,447.4z M420,348.9c-12.5,1.1-19.6,8.5-19.6,19.7c0,5.2,1.5,9.5,4.8,12.3c4.2,3.5,9.6,5.1,14.7,5.9
				L420,348.9L420,348.9z M444.5,404.2c-4.9-4.4-10.3-4.6-16.6-5.5v38.6c13.6-0.9,21.8-8.1,21.8-19.7
				C449.7,412,448,407.3,444.5,404.2z"/>
		</g>
		<circle class="st3" cx="422.7" cy="396.5" r="137.7"/>
		<path class="st4" d="M328.5,342.2c11.8-20.3,30-36.6,51.9-45.8"/>
	</g>
</g>
</svg>
