<?xml version="1.0" encoding="utf-8"?>
<!-- Generator: Adobe Illustrator 22.1.0, SVG Export Plug-In . SVG Version: 6.00 Build 0)  -->
<svg version="1.1" id="Layer_2" xmlns="http://www.w3.org/2000/svg" xmlns:xlink="http://www.w3.org/1999/xlink" x="0px" y="0px"
	 viewBox="0 0 640 681.4" style="enable-background:new 0 0 640 681.4;" xml:space="preserve">
<style type="text/css">
	.st0{fill:#EEF4FF;}
	.st1{fill:#FFFFFF;stroke:#144496;stroke-width:7;stroke-linecap:round;stroke-miterlimit:10;}
	.st2{fill:#FFFFFF;stroke:#144496;stroke-width:7;stroke-miterlimit:10;}
	.st3{fill:#144496;}
	.st4{fill:none;stroke:#144496;stroke-width:7;stroke-linecap:round;stroke-miterlimit:10;}
	.st5{fill:none;}
</style>
<circle class="st0" cx="320" cy="320" r="320"/>
<g>
	<polygon class="st1" points="213.8,671.3 181.3,550.8 59,575.6 173.4,390.4 328.3,486 	"/>
	<polygon class="st1" points="440.6,673.4 473.1,552.9 595.4,577.7 481,392.5 326.1,488.1 	"/>
	<circle class="st2" cx="325.1" cy="330.2" r="223.7"/>
	<circle class="st2" cx="325.1" cy="330.2" r="159.2"/>
	<g>
		<path class="st3" d="M318.3,397.1V272.2L292,295.3v-16.2l26.3-22.7h14.2v140.7L318.3,397.1L318.3,397.1z"/>
	</g>
	<g>
		<path class="st4" d="M144.6,265.7c26.5-74.1,97.3-127.1,180.5-127.1"/>
		<circle class="st5" cx="139.9" cy="282.6" r="3"/>
	</g>
	<g>
		<path class="st4" d="M381.2,510.7c74.1-26.5,127.1-97.3,127.1-180.5"/>
		<circle class="st5" cx="364.2" cy="515.3" r="3"/>
	</g>
	<circle class="st3" cx="140" cy="281.9" r="2.9"/>
	<circle class="st3" cx="508.3" cy="315.1" r="2.9"/>
</g>
</svg>
