<svg xmlns="http://www.w3.org/2000/svg" viewBox="0 0 414.11 414.11"><defs><style>.cls-1,.cls-4{fill:#eef4ff;}.cls-1,.cls-2,.cls-4,.cls-6{fill-rule:evenodd;}.cls-2,.cls-7{fill:#fff;}.cls-3,.cls-5{fill:none;}.cls-3,.cls-4,.cls-5,.cls-6,.cls-7{stroke:#144496;}.cls-3,.cls-4,.cls-5,.cls-6{stroke-miterlimit:10;}.cls-3,.cls-4{stroke-width:4.54px;}.cls-5,.cls-6,.cls-7{stroke-width:4.25px;}.cls-6{fill:#144496;}.cls-7{stroke-linejoin:round;}</style></defs><title>Рост трафика</title><g id="Слой_2" data-name="Слой 2"><g id="Слой_1-2" data-name="Слой 1"><path class="cls-1" d="M414.11,207c0-114-93-207-207.07-207S0,93,0,207,93,414.11,207,414.11s207.07-93,207.07-207.07Z"/><path class="cls-2" d="M148.51,291H28.8a4.05,4.05,0,0,0-4,4v11A20.21,20.21,0,0,0,44.9,326.18h326a20.18,20.18,0,0,0,20.13-20.12v-11a4,4,0,0,0-4-4H148.51Z"/><path class="cls-3" d="M148.51,291H28.8a4.05,4.05,0,0,0-4,4v11A20.21,20.21,0,0,0,44.9,326.18h326a20.18,20.18,0,0,0,20.13-20.12v-11a4,4,0,0,0-4-4H261.35"/><path class="cls-2" d="M259.46,291H253.7L247.38,301a7.6,7.6,0,0,1-6.61,4.31H169.2a7.4,7.4,0,0,1-6.6-4.31L157,291H60.38V92.21A9.66,9.66,0,0,1,70,82.57H344.1a9.67,9.67,0,0,1,9.64,9.64V291H259.46Z"/><path class="cls-3" d="M259.46,291H253.7L247.38,301a7.6,7.6,0,0,1-6.61,4.31H169.2a7.4,7.4,0,0,1-6.6-4.31L157,291H60.38V92.21A9.66,9.66,0,0,1,70,82.57H344.1a9.67,9.67,0,0,1,9.64,9.64V291H258.89"/><path class="cls-4" d="M86.71,269H327.46a2.41,2.41,0,0,0,2.41-2.41V107a2.39,2.39,0,0,0-2.41-2.38H86.71A2.41,2.41,0,0,0,84.3,107V266.57A2.38,2.38,0,0,0,86.71,269Z"/><polyline class="cls-5" points="151.88 180.88 180.94 169.26 206.08 147.51 234.57 161.01 262.88 122"/><path class="cls-6" d="M180,174.19a4.55,4.55,0,1,0-4.56-4.54,4.56,4.56,0,0,0,4.56,4.54Z"/><path class="cls-6" d="M151.88,185.44a4.55,4.55,0,1,0-4.54-4.56,4.56,4.56,0,0,0,4.54,4.56Z"/><path class="cls-6" d="M206.08,152.05a4.54,4.54,0,1,0-4.57-4.54,4.55,4.55,0,0,0,4.57,4.54Z"/><path class="cls-6" d="M234.57,165.57A4.55,4.55,0,1,0,230,161a4.55,4.55,0,0,0,4.54,4.56Z"/><path class="cls-6" d="M262.15,127.56a4.55,4.55,0,1,0-4.54-4.54,4.57,4.57,0,0,0,4.54,4.54Z"/><rect class="cls-7" x="142.58" y="216.79" width="18.14" height="28.12"/><rect class="cls-7" x="170.93" y="204.26" width="18.14" height="40.65"/><rect class="cls-7" x="197.72" y="180.74" width="18.14" height="64.18"/><rect class="cls-7" x="225.84" y="196.27" width="18.14" height="48.64"/><rect class="cls-7" x="253.3" y="157.01" width="18.17" height="87.9"/></g></g></svg>