<svg xmlns="http://www.w3.org/2000/svg" viewBox="0 0 414.11 414.11"><defs><style>.cls-1,.cls-4{fill:#eef4ff;}.cls-1,.cls-10,.cls-2,.cls-4,.cls-6,.cls-7{fill-rule:evenodd;}.cls-10,.cls-2,.cls-6,.cls-8{fill:#fff;}.cls-11,.cls-3,.cls-9{fill:none;}.cls-10,.cls-11,.cls-3,.cls-4,.cls-5,.cls-6,.cls-8,.cls-9{stroke:#144496;}.cls-10,.cls-3,.cls-4,.cls-5,.cls-6,.cls-9{stroke-miterlimit:10;}.cls-10,.cls-11,.cls-3,.cls-4{stroke-width:4.54px;}.cls-5,.cls-7{fill:#144496;}.cls-5,.cls-6{stroke-width:0.28px;}.cls-11,.cls-8{stroke-linejoin:round;}.cls-8,.cls-9{stroke-width:4.25px;}.cls-11{stroke-linecap:round;}</style></defs><title>Улучшение юзабилити сайта</title><g id="Слой_2" data-name="Слой 2"><g id="Слой_1-2" data-name="Слой 1"><path class="cls-1" d="M414.11,207c0-114-93-207-207.07-207S0,93,0,207,93,414.11,207,414.11s207.07-93,207.07-207.07Z"/><path class="cls-2" d="M162.74,273.86H52.92a3.66,3.66,0,0,0-3.68,3.65V287.6a18.52,18.52,0,0,0,18.45,18.49H366.83a18.54,18.54,0,0,0,18.48-18.49V277.51a3.68,3.68,0,0,0-3.68-3.65H162.74Z"/><path class="cls-3" d="M162.74,273.86H52.92a3.66,3.66,0,0,0-3.68,3.65V287.6a18.52,18.52,0,0,0,18.45,18.49H366.83a18.54,18.54,0,0,0,18.48-18.49V277.51a3.68,3.68,0,0,0-3.68-3.65H266.26"/><path class="cls-2" d="M264.56,273.86h-5.3l-5.81,9.07a7,7,0,0,1-6.07,4H181.73a6.71,6.71,0,0,1-6-4l-5.13-9.07H81.89V91.42a8.86,8.86,0,0,1,8.85-8.85H342.2A8.86,8.86,0,0,1,351,91.42V273.86H264.56Z"/><path class="cls-3" d="M264.56,273.86h-5.3l-5.81,9.07a7,7,0,0,1-6.07,4H181.73a6.71,6.71,0,0,1-6-4l-5.13-9.07H81.89V91.42a8.86,8.86,0,0,1,8.85-8.85H342.2A8.86,8.86,0,0,1,351,91.42V273.86H264"/><path class="cls-4" d="M106,253.59H327a2.16,2.16,0,0,0,2.18-2.19V104.94a2.16,2.16,0,0,0-2.18-2.18H106a2.19,2.19,0,0,0-2.21,2.18V251.4a2.16,2.16,0,0,0,2.21,2.19Z"/><path class="cls-5" d="M156.36,203.92a1.19,1.19,0,0,0-.65.2.64.64,0,0,0-.26.51v28a.68.68,0,0,0,.29.51,1.12,1.12,0,0,0,.65.2h18.48a1.14,1.14,0,0,0,.65-.2.67.67,0,0,0,.28-.51v-28a.67.67,0,0,0-.28-.51,1.14,1.14,0,0,0-.65-.2H156.36Z"/><polygon class="cls-6" points="173.96 231.53 173.96 205.71 157.29 205.71 157.29 231.53 172.23 231.53 173.96 231.53"/><path class="cls-7" d="M165.83,176.94a4.17,4.17,0,1,0-4.17-4.17,4.18,4.18,0,0,0,4.17,4.17Z"/><rect class="cls-8" x="139.01" y="129.2" width="161.01" height="17.89"/><rect class="cls-8" x="139.01" y="159.82" width="161.01" height="49.83"/><path class="cls-9" d="M284.77,227.62a5.68,5.68,0,1,0-5.67-5.7,5.7,5.7,0,0,0,5.67,5.7Z"/><path class="cls-9" d="M240.49,227.62a5.68,5.68,0,1,0-5.67-5.7,5.7,5.7,0,0,0,5.67,5.7Z"/><path class="cls-9" d="M198.34,227.62a5.68,5.68,0,1,0-5.67-5.7,5.69,5.69,0,0,0,5.67,5.7Z"/><path class="cls-10" d="M172.49,350.45H43.68a4.55,4.55,0,0,1-4.53-4.57V151.77a4.57,4.57,0,0,1,4.53-4.57H172.49a4.55,4.55,0,0,1,4.53,4.57V345.88a4.55,4.55,0,0,1-4.53,4.57Z"/><path class="cls-10" d="M157.49,333.1H58.68a3.25,3.25,0,0,1-3.26-3.26v-162a3.26,3.26,0,0,1,3.26-3.26h98.76a3.28,3.28,0,0,1,3.26,3.26v162a3.24,3.24,0,0,1-3.21,3.26Z"/><line class="cls-3" x1="97.2" y1="185.84" x2="135.35" y2="185.84"/><line class="cls-3" x1="97.2" y1="288.14" x2="135.35" y2="288.14"/><line class="cls-3" x1="97.2" y1="197.21" x2="113.02" y2="197.21"/><line class="cls-3" x1="97.2" y1="299.51" x2="113.02" y2="299.51"/><line class="cls-3" x1="97.2" y1="231.31" x2="144.82" y2="231.31"/><line class="cls-3" x1="97.2" y1="265.41" x2="144.82" y2="265.41"/><line class="cls-3" x1="97.2" y1="242.67" x2="144.82" y2="242.67"/><line class="cls-3" x1="97.2" y1="276.77" x2="144.82" y2="276.77"/><polyline class="cls-11" points="86.74 187.79 77.47 196.98 72.59 192.1"/><polyline class="cls-11" points="86.74 290.07 77.47 299.28 72.59 294.38"/><polyline class="cls-11" points="86.74 209.76 77.47 218.95 72.59 214.07"/><line class="cls-3" x1="97.2" y1="209.34" x2="135.35" y2="209.34"/><line class="cls-3" x1="97.2" y1="311.61" x2="135.35" y2="311.61"/><line class="cls-3" x1="97.2" y1="219.94" x2="113.02" y2="219.94"/><line class="cls-3" x1="97.2" y1="254.04" x2="113.02" y2="254.04"/><polyline class="cls-11" points="86.74 232.92 77.47 242.11 72.59 237.23"/><polyline class="cls-11" points="86.74 267 77.47 276.21 72.59 271.33"/></g></g></svg>