<svg xmlns="http://www.w3.org/2000/svg" viewBox="0 0 414.11 414.11"><defs><style>.cls-1,.cls-4{fill:#eef4ff;}.cls-1,.cls-2,.cls-4,.cls-5,.cls-7{fill-rule:evenodd;}.cls-2,.cls-5,.cls-6,.cls-7{fill:#fff;}.cls-3,.cls-8{fill:none;}.cls-3,.cls-4,.cls-5,.cls-6,.cls-7,.cls-8{stroke:#144496;}.cls-3,.cls-4,.cls-5,.cls-7,.cls-8{stroke-miterlimit:10;}.cls-3,.cls-4,.cls-7{stroke-width:4.54px;}.cls-5,.cls-6,.cls-8{stroke-width:4.25px;}.cls-6{stroke-linejoin:round;}.cls-9{fill:#144496;}</style></defs><title>Рост видимости сайта в поисковой выдаче</title><g id="Слой_2" data-name="Слой 2"><g id="Слой_1-2" data-name="Слой 1"><path class="cls-1" d="M414.11,207c0-114-93-207-207.07-207S0,93,0,207,93,414.11,207,414.11s207.07-93,207.07-207.07Z"/><path class="cls-2" d="M148.51,291H28.8a4.05,4.05,0,0,0-4,4v11A20.21,20.21,0,0,0,44.9,326.18h326a20.18,20.18,0,0,0,20.13-20.12v-11a4,4,0,0,0-4-4H148.51Z"/><path class="cls-3" d="M148.51,291H28.8a4.05,4.05,0,0,0-4,4v11A20.21,20.21,0,0,0,44.9,326.18h326a20.18,20.18,0,0,0,20.13-20.12v-11a4,4,0,0,0-4-4H261.35"/><path class="cls-2" d="M259.46,291H253.7L247.38,301a7.6,7.6,0,0,1-6.61,4.31H169.2a7.4,7.4,0,0,1-6.6-4.31L157,291H60.38V92.21A9.66,9.66,0,0,1,70,82.57H344.1a9.67,9.67,0,0,1,9.64,9.64V291H259.46Z"/><path class="cls-3" d="M259.46,291H253.7L247.38,301a7.6,7.6,0,0,1-6.61,4.31H169.2a7.4,7.4,0,0,1-6.6-4.31L157,291H60.38V92.21A9.66,9.66,0,0,1,70,82.57H344.1a9.67,9.67,0,0,1,9.64,9.64V291H258.89"/><path class="cls-4" d="M86.71,269H327.46a2.41,2.41,0,0,0,2.41-2.41V107a2.39,2.39,0,0,0-2.41-2.38H86.71A2.41,2.41,0,0,0,84.3,107V266.57A2.38,2.38,0,0,0,86.71,269Z"/><path class="cls-5" d="M192.44,242.31V171.67a1.76,1.76,0,0,1,1.73-1.73H208.6a1.73,1.73,0,0,1,1.73,1.73v70.64A1.73,1.73,0,0,1,208.6,244H194.17a1.75,1.75,0,0,1-1.73-1.72Z"/><path class="cls-5" d="M124,242.31V200.92a1.73,1.73,0,0,1,1.72-1.73h14.43a1.75,1.75,0,0,1,1.73,1.73v41.39a1.75,1.75,0,0,1-1.73,1.72H125.74a1.73,1.73,0,0,1-1.72-1.72Z"/><path class="cls-5" d="M158.51,242.31V183.49a1.72,1.72,0,0,1,1.73-1.73h14.43a1.72,1.72,0,0,1,1.73,1.73v58.82a1.73,1.73,0,0,1-1.73,1.72H160.24a1.73,1.73,0,0,1-1.73-1.72Z"/><rect class="cls-6" x="113.67" y="129.2" width="161.01" height="17.89"/><path class="cls-7" d="M342.37,179.72a58.07,58.07,0,1,0-58.06,58.08,58.17,58.17,0,0,0,58.06-58.08Z"/><path class="cls-3" d="M333.75,179.72a49.45,49.45,0,1,0-49.44,49.46,49.55,49.55,0,0,0,49.44-49.46Z"/><path class="cls-5" d="M330.92,236.1c2.18,2.63,5.84,6.23,9.32,9.66a118.39,118.39,0,0,0,9,8.37,9.07,9.07,0,0,0,4.93,2.26,6.15,6.15,0,0,0,4.19-.62,11,11,0,0,0,1.08-.71c.26-.37.51-.74.71-1.08a6.47,6.47,0,0,0,.68-4.16,9.32,9.32,0,0,0-2.24-5,116.72,116.72,0,0,0-8.28-9.1c-3.37-3.49-7-7.2-9.58-9.41a15.24,15.24,0,0,0-5.47-3.24,6.7,6.7,0,0,1-2.78-1,33.67,33.67,0,0,1-3.94-3.79L323,223.82a42.09,42.09,0,0,1,3.77,4,6.77,6.77,0,0,1,1,2.81,14.53,14.53,0,0,0,3.18,5.5Z"/><path class="cls-8" d="M250.3,180.23a34.37,34.37,0,0,1,17.18-29.77"/><path class="cls-8" d="M319,180.23A34.34,34.34,0,0,1,301.83,210"/><path class="cls-9" d="M320.77,175.24a2.47,2.47,0,1,0-4.2-1.73,2.53,2.53,0,0,0,.71,1.73,2.5,2.5,0,0,0,3.49,0Z"/><path class="cls-9" d="M252,189a2.5,2.5,0,0,0,.68-1.7,2.54,2.54,0,0,0-.68-1.73,2.43,2.43,0,0,0-1.7-.68,2.42,2.42,0,0,0-2.41,2.41,2.35,2.35,0,0,0,.68,1.7,2.47,2.47,0,0,0,1.73.68A2.39,2.39,0,0,0,252,189Z"/></g></g></svg>