<svg xmlns="http://www.w3.org/2000/svg" viewBox="0 0 414.11 414.11"><defs><style>.cls-1{fill:#eef4ff;}.cls-1,.cls-2,.cls-3,.cls-5{fill-rule:evenodd;}.cls-2{fill:#144496;}.cls-3,.cls-5{fill:#fff;}.cls-3{stroke:#fff;stroke-width:2.83px;}.cls-3,.cls-5,.cls-6{stroke-miterlimit:10;}.cls-4,.cls-6{fill:none;}.cls-4,.cls-5,.cls-6{stroke:#144496;stroke-width:4.54px;}.cls-4{stroke-linecap:round;stroke-linejoin:round;}</style></defs><title>Настройка рекламной компании</title><g id="Слой_2" data-name="Слой 2"><g id="Слой_1-2" data-name="Слой 1"><path class="cls-1" d="M414.11,207c0-114-93-207-207.07-207S0,93,0,207,93,414.11,207,414.11s207.07-93,207.07-207.07Z"/><path class="cls-2" d="M131,183.71a71.32,71.32,0,0,1-13.15-1.19,3.11,3.11,0,0,1-2.55-3V167.22a57.26,57.26,0,0,1-12.39-5.11L94,170.93a3.23,3.23,0,0,1-3.92.4,76.35,76.35,0,0,1-18.65-18.66,3.21,3.21,0,0,1,.4-3.91l8.81-8.84a58.13,58.13,0,0,1-5.1-12.36H63.21a2.82,2.82,0,0,1-3-2.55,73.47,73.47,0,0,1,0-26.34,3.14,3.14,0,0,1,3-2.55H75.57a57.71,57.71,0,0,1,5.1-12.36l-8.81-8.84a3.22,3.22,0,0,1-.4-3.91A76.14,76.14,0,0,1,90.11,52.36a3.25,3.25,0,0,1,3.92.36l8.84,8.85a57.23,57.23,0,0,1,12.39-5.1V43.71a2.8,2.8,0,0,1,2.55-3,73.1,73.1,0,0,1,26.3,0,3.14,3.14,0,0,1,2.55,3V56.07A57.5,57.5,0,0,1,159,61.17l8.85-8.81a3.24,3.24,0,0,1,3.94-.4,76.31,76.31,0,0,1,18.65,18.65,3.27,3.27,0,0,1-.4,3.91l-8.84,8.85a56.62,56.62,0,0,1,5.1,12.36h12.39a2.79,2.79,0,0,1,2.92,2.55,73.42,73.42,0,0,1,0,26.33,3.11,3.11,0,0,1-2.92,2.55H186.32a56,56,0,0,1-5.1,12.36l8.84,8.85a3.27,3.27,0,0,1,.4,3.91,76.31,76.31,0,0,1-18.65,18.65,3.29,3.29,0,0,1-3.94-.37L159,161.72a57.5,57.5,0,0,1-12.36,5.1v12.36a2.82,2.82,0,0,1-2.55,2.95A48.83,48.83,0,0,1,131,183.71Zm-9.64-6.88a61.47,61.47,0,0,0,19.05,0V164.66a3,3,0,0,1,2.35-2.94,48.86,48.86,0,0,0,15.14-6.3,3,3,0,0,1,3.71.4l8.65,8.65a68.49,68.49,0,0,0,13.55-13.55l-8.65-8.65a3,3,0,0,1-.39-3.71A53.54,53.54,0,0,0,181,123.42a3.16,3.16,0,0,1,2.95-2.35h12.19a81.63,81.63,0,0,0,.56-9.61,84.21,84.21,0,0,0-.56-9.64H184A3,3,0,0,1,181,99.47a47.77,47.77,0,0,0-6.29-15.11,3,3,0,0,1,.39-3.74L183.77,72a69,69,0,0,0-13.55-13.55l-8.65,8.65a2.91,2.91,0,0,1-3.71.39,54.48,54.48,0,0,0-15.14-6.29,3.14,3.14,0,0,1-2.35-3v-12a61.47,61.47,0,0,0-19.05,0V58.42A2.94,2.94,0,0,1,119,61.37a48.57,48.57,0,0,0-15.11,6.29,3,3,0,0,1-3.74-.39l-8.65-8.65A69,69,0,0,0,77.92,72.17l8.65,8.65a3,3,0,0,1,.4,3.74,53.78,53.78,0,0,0-6.3,15.11A3.1,3.1,0,0,1,77.73,102H65.57a75.48,75.48,0,0,0-.6,9.61,78.09,78.09,0,0,0,.6,9.64H77.73a3,3,0,0,1,2.94,2.35A48.59,48.59,0,0,0,87,138.73a3,3,0,0,1-.4,3.74l-8.65,8.64a69,69,0,0,0,13.55,13.55l8.65-8.64a3,3,0,0,1,3.74-.4A53.59,53.59,0,0,0,119,161.91a3.1,3.1,0,0,1,2.35,3ZM131,137a25.53,25.53,0,1,1,25.51-25.51A25.61,25.61,0,0,1,131,137Zm0-44.76a19.24,19.24,0,1,0,19.25,19.25A19.29,19.29,0,0,0,131,92.21Z"/><path class="cls-2" d="M69.11,264.42a48,48,0,0,1-9.24-.8,3.14,3.14,0,0,1-2.55-2.95V253a46,46,0,0,1-7.26-3l-5.5,5.5a3.25,3.25,0,0,1-3.94.4,51,51,0,0,1-12.95-13,3.24,3.24,0,0,1,.39-3.94l5.5-5.5a33,33,0,0,1-3-7.25H23A2.82,2.82,0,0,1,20,223.77a47.57,47.57,0,0,1-.79-9.24,48.67,48.67,0,0,1,.79-9.22A3.11,3.11,0,0,1,23,202.76h7.65a48.44,48.44,0,0,1,3-7.28l-5.5-5.5a3.2,3.2,0,0,1-.39-3.91,50.65,50.65,0,0,1,12.95-13,3.25,3.25,0,0,1,3.94.4l5.5,5.5a31.63,31.63,0,0,1,7.26-2.95v-7.68a2.79,2.79,0,0,1,2.55-2.92,47.09,47.09,0,0,1,18.25,0,3.08,3.08,0,0,1,2.55,2.92v7.68A44.13,44.13,0,0,1,88,179l5.5-5.5a3.21,3.21,0,0,1,3.91-.4,50.18,50.18,0,0,1,12.95,13A3.24,3.24,0,0,1,110,190l-5.5,5.5a33.69,33.69,0,0,1,2.92,7.28h7.68a2.82,2.82,0,0,1,3,2.55,49.76,49.76,0,0,1,.76,9.22,51.52,51.52,0,0,1-.76,9.24,3.17,3.17,0,0,1-3,2.55h-7.68a46.73,46.73,0,0,1-2.92,7.25l5.5,5.5a3.28,3.28,0,0,1,.36,3.94,50.49,50.49,0,0,1-12.95,13,3.21,3.21,0,0,1-3.91-.4l-5.5-5.5a32.59,32.59,0,0,1-7.29,3v7.65a2.8,2.8,0,0,1-2.55,2.95,45.75,45.75,0,0,1-9,.8Zm-5.5-6.5a50.56,50.56,0,0,0,11,0v-7.45A2.94,2.94,0,0,1,77,247.52a32.15,32.15,0,0,0,10-4.11,3,3,0,0,1,3.74.37l5.3,5.3a48.57,48.57,0,0,0,7.85-7.85l-5.3-5.3a2.94,2.94,0,0,1-.4-3.72,31.27,31.27,0,0,0,4.11-10,3.16,3.16,0,0,1,3-2.35h7.46a50.48,50.48,0,0,0,.39-5.5,51.2,51.2,0,0,0-.39-5.5h-7.46a3,3,0,0,1-3-2.35,31.44,31.44,0,0,0-4.11-10,3,3,0,0,1,.4-3.74l5.3-5.3A49,49,0,0,0,96,179.57l-5.3,5.5a3,3,0,0,1-3.74.4,31.67,31.67,0,0,0-10-4.11,3.13,3.13,0,0,1-2.35-3v-7.48a54.63,54.63,0,0,0-11,0v7.48a3,3,0,0,1-2.35,3,31.55,31.55,0,0,0-10,4.11,2.91,2.91,0,0,1-3.71-.4l-5.3-5.3a49,49,0,0,0-7.85,7.86l5.3,5.3a3,3,0,0,1,.37,3.74,32.36,32.36,0,0,0-4.12,10A3.09,3.09,0,0,1,33,209H25.51a51.23,51.23,0,0,0-.4,5.5,50.49,50.49,0,0,0,.4,5.5H33a3,3,0,0,1,2.94,2.35,32.22,32.22,0,0,0,4.12,10,3,3,0,0,1-.37,3.72l-5.3,5.3a49,49,0,0,0,7.85,7.85l5.3-5.3a3,3,0,0,1,3.71-.37,32,32,0,0,0,10,4.11,3.14,3.14,0,0,1,2.35,2.95Zm5.5-25.11a18.27,18.27,0,1,1,18.25-18.28,18.36,18.36,0,0,1-18.25,18.28Zm0-30.44a12.17,12.17,0,1,0,12.16,12.16,12.1,12.1,0,0,0-12.16-12.16Z"/><path class="cls-3" d="M105.42,111.46A25.53,25.53,0,1,1,131,137a25.62,25.62,0,0,1-25.54-25.51Zm69.31,27.1A53.54,53.54,0,0,0,181,123.42a3.16,3.16,0,0,1,2.95-2.35h12.19a81.63,81.63,0,0,0,.56-9.61,84.21,84.21,0,0,0-.56-9.64H184A3,3,0,0,1,181,99.47a47.77,47.77,0,0,0-6.29-15.11,3,3,0,0,1,.39-3.74L183.77,72a69,69,0,0,0-13.55-13.55l-8.65,8.65a2.91,2.91,0,0,1-3.71.39,54.48,54.48,0,0,0-15.14-6.29,3.14,3.14,0,0,1-2.35-3v-12a61.47,61.47,0,0,0-19.05,0V58.42A2.94,2.94,0,0,1,119,61.37a48.57,48.57,0,0,0-15.11,6.29,3,3,0,0,1-3.74-.39l-8.65-8.65A69,69,0,0,0,77.92,72.17l8.65,8.65a3,3,0,0,1,.4,3.74,53.78,53.78,0,0,0-6.3,15.11A3.1,3.1,0,0,1,77.73,102H65.57a75.6,75.6,0,0,0-.6,9.64,78,78,0,0,0,.6,9.61H77.73a3,3,0,0,1,2.94,2.35A48.59,48.59,0,0,0,87,138.73a3,3,0,0,1-.4,3.74l-8.65,8.64a69,69,0,0,0,13.55,13.55l8.65-8.64a3,3,0,0,1,3.74-.4A53.59,53.59,0,0,0,119,161.91a3.1,3.1,0,0,1,2.35,3v12a61.47,61.47,0,0,0,19.05,0V164.66a3,3,0,0,1,2.35-2.94,48.86,48.86,0,0,0,15.14-6.3,3,3,0,0,1,3.71.4l8.65,8.65a68.49,68.49,0,0,0,13.55-13.55l-8.65-8.65a3,3,0,0,1-.39-3.71Z"/><path class="cls-3" d="M50.83,214.53a18.27,18.27,0,1,1,18.28,18.28,18.35,18.35,0,0,1-18.28-18.28Zm61.85,5.3a50.48,50.48,0,0,0,.39-5.5,51.2,51.2,0,0,0-.39-5.5h-7.46a3,3,0,0,1-3-2.35,31.44,31.44,0,0,0-4.11-10,3,3,0,0,1,.4-3.74l5.3-5.3A49,49,0,0,0,96,179.57l-5.3,5.5a3,3,0,0,1-3.74.4,31.67,31.67,0,0,0-10-4.11,3.13,3.13,0,0,1-2.35-3v-7.48a54.63,54.63,0,0,0-11,0v7.48a3,3,0,0,1-2.35,3,31.55,31.55,0,0,0-10,4.11,2.91,2.91,0,0,1-3.71-.4l-5.3-5.3a49,49,0,0,0-7.85,7.86l5.3,5.3a3,3,0,0,1,.37,3.74,32.36,32.36,0,0,0-4.12,10A3.09,3.09,0,0,1,33,209H25.51a51.23,51.23,0,0,0-.4,5.5,50.49,50.49,0,0,0,.4,5.5H33a3,3,0,0,1,2.94,2.35,32.22,32.22,0,0,0,4.12,10,3,3,0,0,1-.37,3.72l-5.3,5.3a49,49,0,0,0,7.85,7.85l5.3-5.3a3,3,0,0,1,3.71-.37,32,32,0,0,0,10,4.11,3.14,3.14,0,0,1,2.35,2.95v7.25a50.56,50.56,0,0,0,11,0v-7.45A2.94,2.94,0,0,1,77,247.52a32.15,32.15,0,0,0,10-4.11,3,3,0,0,1,3.74.37l5.3,5.3a48.57,48.57,0,0,0,7.85-7.85l-5.3-5.3a2.94,2.94,0,0,1-.4-3.72,31.27,31.27,0,0,0,4.11-10,3.16,3.16,0,0,1,3-2.35Z"/><line class="cls-4" x1="350.7" y1="128.18" x2="350.7" y2="341.12"/><path class="cls-5" d="M127.56,239.92V198.65a1.1,1.1,0,0,1,1.53-1.08l25.17,8.91,196.41-66.42V326.64L154.26,260.22l-25.17,8.87a1.14,1.14,0,0,1-1.53-1V226.77"/><line class="cls-4" x1="368.14" y1="233.4" x2="393.87" y2="233.4"/><line class="cls-4" x1="369.18" y1="178.13" x2="382.25" y2="170.65"/><line class="cls-4" x1="369.55" y1="288.09" x2="381.88" y2="296.62"/><path class="cls-6" d="M262.91,297l-9.38,24.77a14.18,14.18,0,0,1-18.25,8.31L197.66,316a14.24,14.24,0,0,1-8.31-18.26l8.56-22.76"/><line class="cls-4" x1="219.86" y1="204.94" x2="261.24" y2="191.54"/><line class="cls-4" x1="154.26" y1="206.48" x2="154.26" y2="259.03"/></g></g></svg>