<svg xmlns="http://www.w3.org/2000/svg" viewBox="0 0 414.08 414.09"><defs><style>.cls-1,.cls-4{fill:#eef4ff;}.cls-1,.cls-2,.cls-4,.cls-5{fill-rule:evenodd;}.cls-2{fill:#fff;}.cls-3,.cls-6{fill:none;}.cls-3,.cls-4,.cls-6{stroke:#144496;stroke-miterlimit:10;}.cls-3,.cls-4{stroke-width:4.51px;}.cls-5,.cls-7{fill:#144496;}.cls-6{stroke-width:4.25px;}</style></defs><title>Автоматизированная система</title><g id="Слой_2" data-name="Слой 2"><g id="Слой_1-2" data-name="Слой 1"><path class="cls-1" d="M414.08,207c0-114-93-207-207-207S0,93,0,207,93,414.09,207,414.09s207-93,207-207Z"/><path class="cls-2" d="M147.4,291H27.69a4,4,0,0,0-4,4v11A20.2,20.2,0,0,0,43.8,326.15h326A20.2,20.2,0,0,0,390,306V295a4,4,0,0,0-4-4H147.4Z"/><path class="cls-3" d="M147.4,291H27.69a4,4,0,0,0-4,4v11A20.2,20.2,0,0,0,43.8,326.15h326A20.2,20.2,0,0,0,390,306V295a4,4,0,0,0-4-4H260.22"/><path class="cls-2" d="M258.35,291H252.6l-6.35,9.9a7.58,7.58,0,0,1-6.61,4.33H168.09a7.44,7.44,0,0,1-6.6-4.33l-5.56-9.9H59.24V92.18a9.67,9.67,0,0,1,9.64-9.64H343a9.67,9.67,0,0,1,9.64,9.64V291H258.35Z"/><path class="cls-3" d="M258.35,291H252.6l-6.35,9.9a7.58,7.58,0,0,1-6.61,4.33H168.09a7.44,7.44,0,0,1-6.6-4.33l-5.56-9.9H59.24V92.18a9.67,9.67,0,0,1,9.64-9.64H343a9.67,9.67,0,0,1,9.64,9.64V291H257.75"/><path class="cls-4" d="M85.61,269H326.38a2.37,2.37,0,0,0,2.38-2.38V107a2.37,2.37,0,0,0-2.38-2.38H85.61A2.38,2.38,0,0,0,83.23,107V266.57A2.34,2.34,0,0,0,85.61,269Z"/><path class="cls-5" d="M223.48,205a44.89,44.89,0,0,1-8.33-.76,2,2,0,0,1-1.64-1.87v-7.85a36.58,36.58,0,0,1-7.86-3.24L200,196.87a2.09,2.09,0,0,1-2.49.25,49.57,49.57,0,0,1-11.85-11.85,2.09,2.09,0,0,1,.25-2.49l5.62-5.61a36.28,36.28,0,0,1-3.24-7.86h-7.85a1.76,1.76,0,0,1-1.87-1.64,46.25,46.25,0,0,1,0-16.7,2,2,0,0,1,1.87-1.61h7.85a35.63,35.63,0,0,1,3.24-7.88L186,135.89a2.09,2.09,0,0,1-.25-2.49,48.51,48.51,0,0,1,11.85-11.85,2,2,0,0,1,2.49.23l5.61,5.61a36,36,0,0,1,7.86-3.23v-8.11a1.78,1.78,0,0,1,1.64-1.87,47.32,47.32,0,0,1,16.7,0,2,2,0,0,1,1.61,1.87v7.85a36,36,0,0,1,7.85,3.26l5.62-5.61a2.05,2.05,0,0,1,2.49-.26,48.16,48.16,0,0,1,11.85,11.85,2.05,2.05,0,0,1-.26,2.5l-5.61,5.61a35.46,35.46,0,0,1,3.26,7.85h7.85a1.78,1.78,0,0,1,1.87,1.62,47.59,47.59,0,0,1,0,16.72,2,2,0,0,1-1.87,1.62h-7.85a36.07,36.07,0,0,1-3.26,7.85l5.61,5.61a2,2,0,0,1,.26,2.5,48.51,48.51,0,0,1-11.85,11.85,2.1,2.1,0,0,1-2.49-.26L241.31,191a35.85,35.85,0,0,1-7.85,3.23v7.85a1.76,1.76,0,0,1-1.61,1.87,30.57,30.57,0,0,1-8.37,1Zm-6.09-4.36a39.4,39.4,0,0,0,12.07,0v-7.74A1.87,1.87,0,0,1,231,191a30.79,30.79,0,0,0,9.61-4,1.92,1.92,0,0,1,2.38.26l5.47,5.5a44.83,44.83,0,0,0,8.62-8.62l-5.5-5.5a1.88,1.88,0,0,1-.26-2.35,34.52,34.52,0,0,0,4-9.61,2,2,0,0,1,1.87-1.51h7.74a48,48,0,0,0,.37-6.09,50.26,50.26,0,0,0-.37-6.12h-7.74a1.87,1.87,0,0,1-1.87-1.5,30.58,30.58,0,0,0-4-9.59,1.92,1.92,0,0,1,.26-2.38l5.5-5.47a44,44,0,0,0-8.62-8.62L243,130.9a1.88,1.88,0,0,1-2.38.23,33.56,33.56,0,0,0-9.61-4,2,2,0,0,1-1.51-1.87v-7.62a38.78,38.78,0,0,0-12.07,0v7.73a1.88,1.88,0,0,1-1.5,1.88,30.34,30.34,0,0,0-9.61,4,1.91,1.91,0,0,1-2.36-.25l-5.49-5.5a43.72,43.72,0,0,0-8.62,8.62l5.5,5.49a1.91,1.91,0,0,1,.25,2.36,34,34,0,0,0-4,9.61,2,2,0,0,1-1.88,1.5H182a52.15,52.15,0,0,0-.37,6.09,54.8,54.8,0,0,0,.37,6.13h7.73a1.88,1.88,0,0,1,1.88,1.5,30.37,30.37,0,0,0,4,9.58,1.93,1.93,0,0,1-.25,2.38l-5.5,5.47a43.46,43.46,0,0,0,8.62,8.62l5.49-5.5a1.86,1.86,0,0,1,2.36-.23,33.33,33.33,0,0,0,9.61,4,2,2,0,0,1,1.5,1.87Zm6.09-25.32a16.21,16.21,0,1,1,16.22-16.21,16.26,16.26,0,0,1-16.22,16.21Zm0-28.43a12.22,12.22,0,1,0,12.22,12.22,12.24,12.24,0,0,0-12.22-12.22Z"/><path class="cls-5" d="M184.22,256.22a31.14,31.14,0,0,1-5.86-.51,2,2,0,0,1-1.62-1.87V249a31.25,31.25,0,0,1-4.62-1.88l-3.49,3.49a2.1,2.1,0,0,1-2.49.26,32.19,32.19,0,0,1-8.25-8.25,2.11,2.11,0,0,1,.25-2.5l3.49-3.48a21.83,21.83,0,0,1-1.87-4.62h-4.85A1.8,1.8,0,0,1,153,230.4a30.46,30.46,0,0,1-.51-5.87,31.22,31.22,0,0,1,.51-5.84,2,2,0,0,1,1.87-1.64h4.85a30.42,30.42,0,0,1,1.87-4.59l-3.49-3.52a2.09,2.09,0,0,1-.25-2.49,32.08,32.08,0,0,1,8.25-8.22,2.08,2.08,0,0,1,2.49.25l3.49,3.49a21,21,0,0,1,4.62-1.87v-4.85a1.76,1.76,0,0,1,1.62-1.87,29.36,29.36,0,0,1,11.59,0,2,2,0,0,1,1.62,1.87v4.85a33.07,33.07,0,0,1,4.62,1.87l3.48-3.49a2.1,2.1,0,0,1,2.5-.25,32.44,32.44,0,0,1,8.22,8.22,2,2,0,0,1-.23,2.49l-3.51,3.52a19.68,19.68,0,0,1,1.87,4.59h4.87a1.78,1.78,0,0,1,1.87,1.64,30.36,30.36,0,0,1,.51,5.84,31.24,31.24,0,0,1-.51,5.87,2,2,0,0,1-1.87,1.62h-4.87a27.74,27.74,0,0,1-1.87,4.62l3.51,3.48a2.06,2.06,0,0,1,.23,2.5,32.55,32.55,0,0,1-8.22,8.25,2.11,2.11,0,0,1-2.5-.26l-3.48-3.49a23.58,23.58,0,0,1-4.62,1.88v4.84a1.79,1.79,0,0,1-1.62,1.87,30.14,30.14,0,0,1-5.73.51Zm-3.51-4.11a35.59,35.59,0,0,0,7,0v-4.76a1.91,1.91,0,0,1,1.47-1.87,19.68,19.68,0,0,0,6.38-2.61,1.84,1.84,0,0,1,2.35.26l3.38,3.37a32.26,32.26,0,0,0,5-5l-3.38-3.37a1.89,1.89,0,0,1-.22-2.38,20.79,20.79,0,0,0,2.61-6.35,2,2,0,0,1,1.87-1.5h4.73a24.49,24.49,0,0,0,0-7h-4.73a1.86,1.86,0,0,1-1.87-1.5,20.69,20.69,0,0,0-2.61-6.35,1.89,1.89,0,0,1,.22-2.38l3.38-3.37a32.26,32.26,0,0,0-5-5l-3.38,3.48a1.84,1.84,0,0,1-2.35.26,19.68,19.68,0,0,0-6.38-2.61,2,2,0,0,1-1.47-1.87v-4.73a31.5,31.5,0,0,0-7,0v4.73a1.88,1.88,0,0,1-1.48,1.87,19.72,19.72,0,0,0-6.37,2.61,1.86,1.86,0,0,1-2.36-.26l-3.37-3.34a30.59,30.59,0,0,0-5,5l3.37,3.34a1.88,1.88,0,0,1,.23,2.38,20.3,20.3,0,0,0-2.61,6.35,2,2,0,0,1-1.87,1.51h-4.73a23.69,23.69,0,0,0,0,7h4.73a1.86,1.86,0,0,1,1.87,1.47,20.37,20.37,0,0,0,2.61,6.38,1.84,1.84,0,0,1-.23,2.35l-3.37,3.38a31.76,31.76,0,0,0,5,5l3.37-3.37a1.89,1.89,0,0,1,2.36-.25,20.7,20.7,0,0,0,6.37,2.63,2,2,0,0,1,1.48,1.87Zm3.51-16a11.6,11.6,0,1,1,11.6-11.6,11.66,11.66,0,0,1-11.6,11.6Zm0-19.31a7.73,7.73,0,1,0,7.71,7.71,7.66,7.66,0,0,0-7.71-7.71Z"/><path class="cls-2" d="M207.27,159.08a16.22,16.22,0,1,1,16.21,16.21,16.26,16.26,0,0,1-16.21-16.21Zm44,17.21a34.52,34.52,0,0,0,4-9.61,2,2,0,0,1,1.87-1.51h7.74a48,48,0,0,0,.37-6.09,50.26,50.26,0,0,0-.37-6.12h-7.74a1.87,1.87,0,0,1-1.87-1.5,30.58,30.58,0,0,0-4-9.59,1.92,1.92,0,0,1,.26-2.38l5.5-5.47a44,44,0,0,0-8.62-8.62L243,130.9a1.88,1.88,0,0,1-2.38.23,33.56,33.56,0,0,0-9.61-4,2,2,0,0,1-1.51-1.87v-7.62a38.78,38.78,0,0,0-12.07,0v7.73a1.88,1.88,0,0,1-1.5,1.88,30.34,30.34,0,0,0-9.61,4,1.91,1.91,0,0,1-2.36-.25l-5.49-5.5a43.72,43.72,0,0,0-8.62,8.62l5.5,5.49a1.9,1.9,0,0,1,.25,2.36,34,34,0,0,0-4,9.61,2,2,0,0,1-1.88,1.5H182a52.15,52.15,0,0,0-.37,6.09,54.8,54.8,0,0,0,.37,6.13h7.73a1.88,1.88,0,0,1,1.88,1.5,30.37,30.37,0,0,0,4,9.58,1.93,1.93,0,0,1-.25,2.38l-5.5,5.47a43.46,43.46,0,0,0,8.62,8.62l5.49-5.5a1.86,1.86,0,0,1,2.36-.23,33.33,33.33,0,0,0,9.61,4,2,2,0,0,1,1.5,1.87v7.63a39.4,39.4,0,0,0,12.07,0v-7.74A1.87,1.87,0,0,1,231,191a30.79,30.79,0,0,0,9.61-4,1.92,1.92,0,0,1,2.38.26l5.47,5.5a44.83,44.83,0,0,0,8.62-8.62l-5.5-5.5a1.88,1.88,0,0,1-.26-2.35Z"/><path class="cls-2" d="M172.6,224.53a11.61,11.61,0,1,1,11.62,11.6,11.67,11.67,0,0,1-11.62-11.6Zm39.29,3.38a24.49,24.49,0,0,0,0-7h-4.73a1.86,1.86,0,0,1-1.87-1.5,20.69,20.69,0,0,0-2.61-6.35,1.89,1.89,0,0,1,.22-2.38l3.38-3.37a32.26,32.26,0,0,0-5-5l-3.38,3.48a1.84,1.84,0,0,1-2.35.26,19.68,19.68,0,0,0-6.38-2.61,2,2,0,0,1-1.47-1.87v-4.73a31.5,31.5,0,0,0-7,0v4.73a1.88,1.88,0,0,1-1.48,1.87,19.72,19.72,0,0,0-6.37,2.61,1.86,1.86,0,0,1-2.36-.26l-3.37-3.34a30.59,30.59,0,0,0-5,5l3.37,3.34a1.88,1.88,0,0,1,.23,2.38,20.3,20.3,0,0,0-2.61,6.35,2,2,0,0,1-1.87,1.51h-4.73a23.69,23.69,0,0,0,0,7h4.73a1.86,1.86,0,0,1,1.87,1.47,20.37,20.37,0,0,0,2.61,6.38,1.84,1.84,0,0,1-.23,2.35l-3.37,3.38a31.76,31.76,0,0,0,5,5l3.37-3.37a1.89,1.89,0,0,1,2.36-.25,20.7,20.7,0,0,0,6.37,2.63,2,2,0,0,1,1.48,1.87v4.62a35.59,35.59,0,0,0,7,0v-4.76a1.91,1.91,0,0,1,1.47-1.87,19.68,19.68,0,0,0,6.38-2.61,1.84,1.84,0,0,1,2.35.26l3.38,3.37a32.26,32.26,0,0,0,5-5l-3.38-3.37a1.89,1.89,0,0,1-.22-2.38,20.79,20.79,0,0,0,2.61-6.35,2,2,0,0,1,1.87-1.5Z"/><path class="cls-6" d="M138.53,187a70,70,0,0,1,35-60.66"/><path class="cls-6" d="M278.62,187a70.1,70.1,0,0,1-35,60.66"/><path class="cls-7" d="M280.6,180.77a2.85,2.85,0,0,0,.77-2,2.72,2.72,0,0,0-2.75-2.75,2.8,2.8,0,0,0-1.93.79,2.77,2.77,0,0,0-.82,2,2.79,2.79,0,0,0,4.73,2Z"/><path class="cls-7" d="M140.46,197a2.82,2.82,0,0,0,.76-1.93,2.6,2.6,0,0,0-2.69-2.69,2.7,2.7,0,0,0-2.69,2.69,2.72,2.72,0,0,0,.76,1.93,2.82,2.82,0,0,0,1.93.76,2.72,2.72,0,0,0,1.93-.76Z"/></g></g></svg>