<svg xmlns="http://www.w3.org/2000/svg" viewBox="0 0 430.36 416.38"><defs><style>.cls-1{fill:#eef4ff;}.cls-1,.cls-2,.cls-5{fill-rule:evenodd;}.cls-2{fill:#fff;}.cls-2,.cls-3,.cls-4{stroke:#144496;stroke-width:4.54px;}.cls-2,.cls-3{stroke-miterlimit:10;}.cls-3,.cls-4{fill:none;}.cls-4{stroke-linecap:round;stroke-linejoin:round;}.cls-5{fill:#144496;}</style></defs><title>Конверсии и бюджеты</title><g id="Слой_2" data-name="Слой 2"><g id="Слой_1-2" data-name="Слой 1"><path class="cls-1" d="M425,207c0-114-93-207-207-207s-207,93-207,207,93,207.07,207,207.07,207-93,207-207.07Z"/><path class="cls-2" d="M128.83,171.72H32.43a3.62,3.62,0,0,1-3.63-3.63h0A48.31,48.31,0,0,1,77,119.91H84.3a48.32,48.32,0,0,1,48.22,48.18h0a3.7,3.7,0,0,1-3.69,3.63Z"/><path class="cls-2" d="M80.62,119.91h0A26.27,26.27,0,0,1,54.43,93.69V85.21A8.51,8.51,0,0,1,63,76.68l43.88-8.62V93.69a26.29,26.29,0,0,1-26.22,26.22Z"/><path class="cls-2" d="M89,87H58.68a4.24,4.24,0,0,1-4.25-4.25V78.69A19.18,19.18,0,0,1,73.56,59.53h29a4.29,4.29,0,0,1,4.28,4.28v5.36A17.93,17.93,0,0,1,89,87Z"/><polyline class="cls-3" points="61.65 122.43 80.7 139.78 80.7 139.78 99.64 122.43"/><path class="cls-2" d="M393.48,171.72H297.07a3.62,3.62,0,0,1-3.63-3.63h0a48.29,48.29,0,0,1,48.19-48.18h7.31a48.31,48.31,0,0,1,48.22,48.18h0a3.68,3.68,0,0,1-3.68,3.63Z"/><path class="cls-2" d="M345.26,119.91h0a26.27,26.27,0,0,1-26.19-26.22V85.21a8.52,8.52,0,0,1,8.53-8.53l43.88-8.62V93.69a26.29,26.29,0,0,1-26.22,26.22Z"/><path class="cls-2" d="M353.62,87h-30.3a4.24,4.24,0,0,1-4.25-4.25V78.69A19.18,19.18,0,0,1,338.2,59.53h29a4.29,4.29,0,0,1,4.28,4.28v5.36A17.93,17.93,0,0,1,353.62,87Z"/><polyline class="cls-3" points="326.3 122.43 345.32 139.78 345.32 139.78 364.34 122.43"/><polygon class="cls-2" points="404.59 193.21 28.8 193.21 184.28 352.88 184.28 352.88 184.28 414.11 251.57 414.11 251.57 351.61 404.59 193.21"/><path class="cls-2" d="M406.54,214.61H23.75A21.54,21.54,0,0,1,2.27,193.15h0a21.54,21.54,0,0,1,21.48-21.48H406.6a21.56,21.56,0,0,1,21.49,21.48h0a21.61,21.61,0,0,1-21.55,21.46Z"/><line class="cls-4" x1="359.43" y1="239.22" x2="212.88" y2="239.22"/><line class="cls-4" x1="335.37" y1="263.93" x2="212.88" y2="263.93"/><line class="cls-4" x1="311.87" y1="288.6" x2="212.88" y2="288.6"/><line class="cls-4" x1="288.45" y1="313.29" x2="212.88" y2="313.29"/><line class="cls-4" x1="264.39" y1="337.95" x2="212.88" y2="337.95"/><line class="cls-4" x1="251.43" y1="362.61" x2="212.88" y2="362.61"/><line class="cls-4" x1="251.43" y1="387.33" x2="212.88" y2="387.33"/><path class="cls-2" d="M289.22,84.53a71.31,71.31,0,1,0-71.29,71.29,71.43,71.43,0,0,0,71.29-71.29Z"/><path class="cls-2" d="M262.32,84.53a44.39,44.39,0,1,0-44.39,44.39,44.49,44.49,0,0,0,44.39-44.39Z"/><path class="cls-5" d="M219.69,101.79v5.7h-5.14V102c-4.84-.11-8.67-1.42-12-4.79l4.59-4.59a11.5,11.5,0,0,0,8.08,3.06V86.46l-1.61-.17a12.05,12.05,0,0,1-7-3.06,9.31,9.31,0,0,1-2.6-7c0-5.84,4-10.18,10.57-10.89V60.72h5.1v4.53a15.31,15.31,0,0,1,10,4.14l-4.48,4.4A10.44,10.44,0,0,0,219,71.32v8.87l1.93.31c3.32.54,5.39,1.45,6.92,2.87,2,1.81,2.8,4.39,2.8,7.62-.08,6.21-4.59,10-11,10.8Zm-4.48-30.33c-3,.4-4.4,2.27-4.4,4.45a3.7,3.7,0,0,0,1,2.61,6.12,6.12,0,0,0,3.38,1.42Zm7.37,16.7c-.83-.8-1.73-1-3.63-1.31v8.73c3.06-.31,4.73-1.87,4.73-4.39a3.94,3.94,0,0,0-1.1-3Z"/></g></g></svg>