<?xml version="1.0" encoding="UTF-8"?>
<!DOCTYPE svg PUBLIC "-//W3C//DTD SVG 1.1//EN" "http://www.w3.org/Graphics/SVG/1.1/DTD/svg11.dtd">
<!-- Creator: CorelDRAW 2018 (64-Bit) -->
<svg xmlns="http://www.w3.org/2000/svg" xml:space="preserve" width="297mm" height="210mm" version="1.1" style="shape-rendering:geometricPrecision; text-rendering:geometricPrecision; image-rendering:optimizeQuality; fill-rule:evenodd; clip-rule:evenodd"
viewBox="0 0 29700 21000"
 xmlns:xlink="http://www.w3.org/1999/xlink">
 <defs>
  <style type="text/css">
   <![CDATA[
    .str0 {stroke:#144496;stroke-width:159.78;stroke-miterlimit:22.9256}
    .str1 {stroke:#144496;stroke-width:159.78;stroke-linecap:round;stroke-miterlimit:22.9256}
    .fil3 {fill:none}
    .fil2 {fill:#144496}
    .fil0 {fill:#EEF4FF}
    .fil1 {fill:white}
   ]]>
  </style>
 </defs>
 <g id="Слой_x0020_1">
  <metadata id="CorelCorpID_0Corel-Layer"/>
  <circle class="fil0" cx="15431.05" cy="9660.55" r="7304.35"/>
  <path class="fil1 str0" d="M19458.72 14951.76l-8205.99 0c-159.29,0 -289.62,-130.33 -289.62,-289.62l-0.01 -9692.73c0,-159.29 130.33,-289.62 289.62,-289.62l8206 -0.01c159.29,0 289.62,130.33 289.62,289.62l0 9692.73c0,159.29 -130.33,289.63 -289.62,289.63z"/>
  <path class="fil1 str0" d="M18502.96 13875.32l-6294.48 0c-115.85,0 -207.55,-94.13 -207.55,-207.56l0 -7675.02c0,-115.85 94.12,-207.56 207.55,-207.56l6292.06 0c115.86,0 207.56,94.13 207.56,207.56l0 7675.02c2.42,113.43 -91.7,207.56 -205.14,207.56z"/>
  <path class="fil1 str0" d="M17407.22 4076.41l-1308.14 0c0,-410.3 -333.06,-743.37 -743.36,-743.37 -410.3,0 -743.36,333.07 -743.36,743.37l-1308.14 0c-159.29,0 -289.62,130.32 -289.62,289.61l0 1641.2c0,159.29 130.33,289.62 289.62,289.62l4103 0.01c159.29,0 289.62,-130.33 289.62,-289.62l0 -1641.19c0,-159.31 -130.33,-289.63 -289.62,-289.63z"/>
  <circle class="fil2" cx="15360.55" cy="4049.85" r="202.74"/>
  <g id="_1853012992816">
   <circle class="fil1 str0" cx="13833.88" cy="8306.02" r="1220.5"/>
   <circle class="fil1 str0" cx="13833.88" cy="8306.02" r="759.77"/>
   <path class="fil1 str0" d="M16954.92 12585.53l-80.85 0c-637.94,0 -1160.7,-521.65 -1160.7,-1160.69l0 -1600.4c0,-637.94 521.65,-1160.69 1160.7,-1160.69l80.85 0c637.94,0 1160.69,521.65 1160.69,1160.69l0 1600.39c0.01,639.05 -522.75,1160.7 -1160.69,1160.7z"/>
   <g>
    <path class="fil2" d="M13863.79 8601.72l0 97.47 -87.49 0 0 -94.14c-83.07,-2.22 -148.41,-24.37 -204.9,-81.96l78.64 -78.64c36.55,36.55 86.39,50.95 138.44,52.06l0 -157.27 -27.69 -3.33c-52.05,-6.64 -94.14,-26.58 -119.61,-52.05 -29.9,-29.9 -44.3,-68.67 -44.3,-120.72 0,-99.67 67.56,-173.88 180.53,-186.07l0 -78.63 87.49 0 0 77.53c70.88,4.43 124.04,26.58 171.66,70.88l-76.42 75.32c-28.79,-27.69 -70.88,-38.77 -107.42,-42.09l0 151.73 33.22 5.54c56.48,8.86 91.93,24.37 118.51,48.73 33.23,31.01 47.62,75.31 47.62,130.69 -1.11,106.32 -78.64,171.66 -188.28,184.95zm-76.42 -519.43c-50.95,6.65 -75.32,38.76 -75.32,76.42 0,15.51 5.54,32.12 17.72,44.3 14.4,13.29 33.23,21.04 57.6,24.37l0 -145.09zm126.26 285.74c-14.4,-13.29 -29.91,-17.72 -62.03,-22.15l0 149.52c52.06,-5.54 80.85,-32.12 80.85,-75.31 0,-21.05 -5.53,-39.87 -18.82,-52.06z"/>
   </g>
   <path class="fil1 str0" d="M16866.32 10147.84l0 0c-126.26,0 -230.37,-104.11 -230.37,-230.36l0 -433.05c0,-126.26 104.11,-230.37 230.36,-230.37l0.01 0c126.26,0 230.36,104.11 230.36,230.37l0 433.05c0,127.36 -104.11,230.36 -230.36,230.36z"/>
   <line class="fil3 str1" x1="16866.31" y1="9011.51" x2="16866.31" y2= "9241.88" />
   <path class="fil3 str0" d="M13843.86 9512.12l0 727.65c0,415.33 340.01,755.34 755.33,755.34l0 0c415.33,0 755.34,-340.01 755.34,-755.34l0 -2398.92c0,-415.33 340.01,-755.34 755.34,-755.34l0 0c415.32,0 755.34,340.01 755.34,755.34l0 810.71"/>
  </g>
 </g>
</svg>
