<svg xmlns="http://www.w3.org/2000/svg" viewBox="0 0 414.11 414.11"><defs><style>.cls-1{fill:#eef4ff;}.cls-1,.cls-2{fill-rule:evenodd;}.cls-2{fill:#fff;}.cls-2,.cls-3,.cls-4{stroke:#144496;stroke-miterlimit:10;}.cls-2,.cls-4{stroke-width:4.54px;}.cls-3,.cls-4{fill:none;}.cls-3{stroke-linecap:round;stroke-width:4.25px;}</style></defs><title>Индивидуальный подход</title><g id="Слой_2" data-name="Слой 2"><g id="Слой_1-2" data-name="Слой 1"><path class="cls-1" d="M414.11,207c0-114-93-207-207.07-207S0,93,0,207,93,414.11,207,414.11s207.07-93,207.07-207.07Z"/><path class="cls-2" d="M387,142.89c0-57.65-47.06-104.71-104.72-104.71A104.72,104.72,0,1,0,387,142.89Z"/><path class="cls-2" d="M350.82,142.87a68.56,68.56,0,1,0-68.55,68.57,68.68,68.68,0,0,0,68.55-68.57Z"/><path class="cls-2" d="M318.53,142.84a36.29,36.29,0,1,0-36.28,36.28,36.36,36.36,0,0,0,36.28-36.28Z"/><path class="cls-2" d="M292.42,142.84A10.16,10.16,0,1,0,282.25,153a10.17,10.17,0,0,0,10.17-10.17Z"/><polyline class="cls-3" points="282.25 28.97 282.25 109.7 282.25 109.7"/><polyline class="cls-3" points="282.25 175.95 282.25 256.71 282.25 256.71"/><polyline class="cls-3" points="168.83 143.26 249.59 143.26 249.59 143.26"/><polyline class="cls-3" points="315.84 143.26 396.57 143.26 396.57 143.26"/><path class="cls-2" d="M263.2,359.83H29.59A8.81,8.81,0,0,1,20.78,351h0c0-64.23,52.61-116.84,116.87-116.84h17.69c64.26,0,116.87,52.61,116.87,116.84h0a9.21,9.21,0,0,1-9,8.82Z"/><path class="cls-2" d="M146.35,234.17h0A63.72,63.72,0,0,1,82.8,170.62V150.09a20.76,20.76,0,0,1,20.75-20.75l106.33-20.83v62a63.79,63.79,0,0,1-63.53,63.64Z"/><path class="cls-2" d="M166.56,154.43H93.23A10.4,10.4,0,0,1,82.8,144v-9.84a46.56,46.56,0,0,1,46.43-46.43h70.22a10.4,10.4,0,0,1,10.43,10.43v13a43.49,43.49,0,0,1-43.32,43.28Z"/><polyline class="cls-4" points="100.4 240.24 146.44 282.33 146.44 282.33 192.59 240.24"/></g></g></svg>