<?xml version="1.0" encoding="UTF-8"?>
<!DOCTYPE svg PUBLIC "-//W3C//DTD SVG 1.1//EN" "http://www.w3.org/Graphics/SVG/1.1/DTD/svg11.dtd">
<!-- Creator: CorelDRAW 2018 (64-Bit) -->
<svg xmlns="http://www.w3.org/2000/svg" xml:space="preserve" width="297mm" height="210mm" version="1.1" style="shape-rendering:geometricPrecision; text-rendering:geometricPrecision; image-rendering:optimizeQuality; fill-rule:evenodd; clip-rule:evenodd"
viewBox="0 0 29700 21000"
 xmlns:xlink="http://www.w3.org/1999/xlink">
 <defs>
  <style type="text/css">
   <![CDATA[
    .str0 {stroke:#144496;stroke-width:159.78;stroke-miterlimit:22.9256}
    .str1 {stroke:#144496;stroke-width:150;stroke-linecap:round;stroke-miterlimit:22.9256}
    .fil2 {fill:none}
    .fil0 {fill:#EEF4FF}
    .fil1 {fill:white}
   ]]>
  </style>
 </defs>
 <g id="Слой_x0020_1">
  <metadata id="CorelCorpID_0Corel-Layer"/>
  <circle class="fil0" cx="14040.93" cy="9660.55" r="7304.35"/>
  <g id="_1817468616944">
   <g>
    <path class="fil1" d="M12075.6 12623.38l-4222.82 0c-77.61,0 -141.52,63.91 -141.52,141.52l0 388.04c0,390.33 319.57,709.89 709.89,709.89l11502.06 0c390.33,0 709.89,-319.57 709.89,-709.89l0 -388.04c0,-77.61 -63.91,-141.52 -141.52,-141.52l-4435.11 0 -3980.87 0zm0 0l0 0 0 0z"/>
    <path id="1" class="fil2 str0" d="M12075.6 12623.38l-4222.82 0c-77.61,0 -141.52,63.91 -141.52,141.52l0 388.04c0,390.33 319.57,709.89 709.89,709.89l11502.06 0c390.33,0 709.89,-319.57 709.89,-709.89l0 -388.04c0,-77.61 -63.91,-141.52 -141.52,-141.52l-4435.11 0m-3980.87 0l0 0 0 0z"/>
   </g>
   <g>
    <path class="fil1" d="M15990.28 12623.38l-203.16 0 -223.7 349.24c-43.37,89.02 -132.39,150.65 -232.83,152.93 0,0 -2.28,0 -2.28,0l-2519.99 0c0,0 -2.28,0 -2.28,0 -100.43,0 -189.46,-61.63 -232.83,-152.93l-196.3 -349.24 -230.55 0 -3179.67 0 0 -7014.46c0,-187.17 152.93,-340.11 340.11,-340.11l9669.13 0c187.17,0 340.11,152.93 340.11,340.11l0 7014.46 -3346.31 0 20.55 0zm0 0l0 0 0 0z"/>
    <path id="1" class="fil2 str0" d="M15990.28 12623.38l-203.16 0 -223.7 349.24c-43.37,89.02 -132.39,150.65 -232.83,152.93 0,0 -2.28,0 -2.28,0l-2519.99 0c0,0 -2.28,0 -2.28,0 -100.43,0 -189.46,-61.63 -232.83,-152.93l-196.3 -349.24 -230.55 0 -3179.67 0 0 -7014.46c0,-187.17 152.93,-340.11 340.11,-340.11l9669.13 0c187.17,0 340.11,152.93 340.11,340.11l0 7014.46 -3346.31 0m20.55 0l0 0 0 0z"/>
   </g>
   <path class="fil0 str0" d="M9895.71 11845.01l8493.59 0c47.93,0 84.46,-38.8 84.46,-84.46l-0.01 -5631.2c0,-47.93 -38.8,-84.46 -84.46,-84.46l-8493.58 0.01c-47.93,0 -84.46,38.8 -84.46,84.46l0 5631.19c-2.28,45.65 36.53,84.46 84.46,84.46z"/>
  </g>
  <rect class="fil1 str0" x="10294.61" y="6455.24" width="2332.83" height="1349.02"/>
  <rect class="fil1 str0" x="13028.64" y="8536.63" width="3085.88" height="2963.33"/>
  <rect class="fil1 str0" x="10876.7" y="7317.29" width="3153.97" height="3443.48"/>
  <rect class="fil1 str0" x="14792.53" y="6555.01" width="3139.73" height="4539.31"/>
  <polyline class="fil2 str1" points="11717.7,9127.65 12229.85,9596.66 13189.68,8481.39 "/>
  <g>
   <line class="fil2 str1" x1="15882.48" y1="9382.3" x2="16842.31" y2= "8267.03" />
   <line class="fil2 str1" x1="15882.48" y1="8267.03" x2="16842.31" y2= "9382.3" />
  </g>
 </g>
</svg>
