<svg xmlns="http://www.w3.org/2000/svg" viewBox="0 0 414.11 414.11"><defs><style>.cls-1{fill:#eef4ff;}.cls-1,.cls-2,.cls-3,.cls-6{fill-rule:evenodd;}.cls-2,.cls-6{fill:#fff;}.cls-2,.cls-4,.cls-5,.cls-6{stroke:#144496;}.cls-2,.cls-4{stroke-miterlimit:10;}.cls-2,.cls-4,.cls-5{stroke-width:4.54px;}.cls-3{fill:#144496;}.cls-4,.cls-5{fill:none;}.cls-5{stroke-linecap:round;}.cls-5,.cls-6{stroke-linejoin:round;}.cls-6{stroke-width:4.25px;}</style></defs><title>План работ и рекомендаций</title><g id="Слой_2" data-name="Слой 2"><g id="Слой_1-2" data-name="Слой 1"><path class="cls-1" d="M414.11,207c0-114-93-207-207.07-207S0,93,0,207,93,414.11,207,414.11s207.07-93,207.07-207.07Z"/><path class="cls-2" d="M314.93,348.12h-220a7.79,7.79,0,0,1-7.76-7.76V80.5a7.77,7.77,0,0,1,7.76-7.76h220a7.77,7.77,0,0,1,7.74,7.76V340.36a7.79,7.79,0,0,1-7.74,7.76Z"/><path class="cls-2" d="M289.3,319.24H120.56a5.58,5.58,0,0,1-5.59-5.56V107.91a5.58,5.58,0,0,1,5.59-5.55H289.22a5.56,5.56,0,0,1,5.58,5.55V313.68a5.52,5.52,0,0,1-5.5,5.56Z"/><path class="cls-2" d="M259.91,56.55H224.84a19.93,19.93,0,1,0-39.85,0H149.92a7.78,7.78,0,0,0-7.76,7.77v44a7.78,7.78,0,0,0,7.76,7.77h110a7.78,7.78,0,0,0,7.77-7.77v-44a7.78,7.78,0,0,0-7.77-7.77Z"/><path class="cls-3" d="M210.47,55.84a5.43,5.43,0,1,0-5.41,5.45,5.44,5.44,0,0,0,5.41-5.45Z"/><path class="cls-2" d="M164.61,244.06H148.17a4.9,4.9,0,0,1-4.85-4.84V222.77a4.9,4.9,0,0,1,4.85-4.84h16.44a4.89,4.89,0,0,1,4.85,4.84v16.45a4.8,4.8,0,0,1-4.85,4.84Z"/><line class="cls-4" x1="186.35" y1="138.73" x2="251.52" y2="138.73"/><line class="cls-4" x1="186.35" y1="158.14" x2="213.34" y2="158.14"/><line class="cls-4" x1="186.35" y1="216.37" x2="267.68" y2="216.37"/><line class="cls-4" x1="186.35" y1="235.79" x2="267.68" y2="235.79"/><line class="cls-4" x1="186.35" y1="255.2" x2="267.68" y2="255.2"/><line class="cls-4" x1="186.35" y1="274.59" x2="267.68" y2="274.59"/><line class="cls-4" x1="186.35" y1="294.01" x2="267.68" y2="294.01"/><path class="cls-2" d="M164.61,294H148.17a4.88,4.88,0,0,1-4.85-4.85v-16.5a4.88,4.88,0,0,1,4.85-4.84h16.44a4.87,4.87,0,0,1,4.85,4.84v16.45a4.79,4.79,0,0,1-4.85,4.9Z"/><polyline class="cls-5" points="168.49 142.02 152.65 157.75 144.28 149.41"/><polyline class="cls-5" points="168.49 179.55 152.65 195.28 144.28 186.94"/><line class="cls-4" x1="186.35" y1="178.84" x2="251.52" y2="178.84"/><line class="cls-4" x1="186.35" y1="196.95" x2="213.34" y2="196.95"/><polygon class="cls-6" points="312.26 203.98 335 221.13 231.99 357.62 209.22 340.44 312.26 203.98"/><polygon class="cls-6" points="209.22 340.44 203.22 372.08 231.99 357.62 209.22 340.44"/><polygon class="cls-6" points="322.89 189.89 345.63 207.07 335 221.13 312.26 203.98 322.89 189.89"/></g></g></svg>