<svg xmlns="http://www.w3.org/2000/svg" viewBox="0 0 414.11 414.11"><defs><style>.cls-1,.cls-3{fill:#eef4ff;}.cls-1,.cls-2,.cls-3,.cls-5,.cls-6{fill-rule:evenodd;}.cls-2,.cls-6{fill:#fff;}.cls-2,.cls-3,.cls-4,.cls-5{stroke:#144496;}.cls-2,.cls-3,.cls-4,.cls-5,.cls-6{stroke-miterlimit:10;}.cls-2,.cls-3,.cls-4{stroke-width:4.54px;}.cls-4{fill:none;}.cls-5{fill:#144496;}.cls-5,.cls-6{stroke-width:2.83px;}.cls-6{stroke:#fff;}</style></defs><title>Настройка аккаунта</title><g id="Слой_2" data-name="Слой 2"><g id="Слой_1-2" data-name="Слой 1"><path class="cls-1" d="M414.11,207c0-114-93-207-207.07-207S0,93,0,207,93,414.11,207,414.11s207.07-93,207.07-207.07Z"/><path class="cls-2" d="M147.17,288.71H24.75a4.11,4.11,0,0,0-4.11,4.11V304a20.66,20.66,0,0,0,20.58,20.61H374.68A20.66,20.66,0,0,0,395.26,304V292.82a4.13,4.13,0,0,0-4.11-4.11H262.57"/><path class="cls-2" d="M260.65,288.71h-5.87l-6.49,10.12a7.82,7.82,0,0,1-6.75,4.42H168.35a7.55,7.55,0,0,1-6.75-4.42l-5.69-10.12H57V85.35a9.88,9.88,0,0,1,9.87-9.86H347.22a9.89,9.89,0,0,1,9.86,9.86V288.71h-97"/><path class="cls-3" d="M84,266.14H330.21a2.44,2.44,0,0,0,2.44-2.46V100.43A2.42,2.42,0,0,0,330.21,98H84a2.42,2.42,0,0,0-2.44,2.44V263.68A2.39,2.39,0,0,0,84,266.14Z"/><path class="cls-2" d="M310.08,240.09H204.43a4,4,0,0,1-4-4h0a53,53,0,0,1,52.86-52.84h8a53,53,0,0,1,52.86,52.84h0a4.2,4.2,0,0,1-4.08,4Z"/><path class="cls-2" d="M257.24,183.26h0a28.82,28.82,0,0,1-28.74-28.74v-9.3a9.38,9.38,0,0,1,9.38-9.36L286,126.43v28.06a28.86,28.86,0,0,1-28.72,28.77Z"/><path class="cls-2" d="M266.37,147.2H233.21a4.69,4.69,0,0,1-4.71-4.7v-4.45a21.05,21.05,0,0,1,21-21h31.74a4.7,4.7,0,0,1,4.71,4.71v5.87a19.66,19.66,0,0,1-19.59,19.58Z"/><polyline class="cls-4" points="236.47 186.01 257.27 205.03 257.27 205.03 278.13 186.01"/><path class="cls-5" d="M142.81,200a47.62,47.62,0,0,0,8.33-.74,2,2,0,0,0,1.65-1.87V189.5a36.78,36.78,0,0,0,7.85-3.26l5.61,5.61a2.06,2.06,0,0,0,2.5.25,49,49,0,0,0,11.85-11.84,2.11,2.11,0,0,0-.26-2.5l-5.61-5.61A36.05,36.05,0,0,0,178,164.3h7.85a1.77,1.77,0,0,0,1.87-1.62,45.77,45.77,0,0,0,0-16.72,2,2,0,0,0-1.87-1.62H178a35.85,35.85,0,0,0-3.23-7.85l5.61-5.61a2.11,2.11,0,0,0,.26-2.5,49,49,0,0,0-11.85-11.85,2,2,0,0,0-2.5.26l-5.61,5.61a36.78,36.78,0,0,0-7.85-3.26v-8.08a1.77,1.77,0,0,0-1.65-1.87,45.9,45.9,0,0,0-16.69,0,2,2,0,0,0-1.62,1.87v7.85a35.85,35.85,0,0,0-7.85,3.23l-5.61-5.61a2.11,2.11,0,0,0-2.5-.25A48.68,48.68,0,0,0,105,128.13a2,2,0,0,0,.23,2.49l5.61,5.61a36.55,36.55,0,0,0-3.23,7.86H99.78a1.78,1.78,0,0,0-1.87,1.61,47.65,47.65,0,0,0,0,16.73A2,2,0,0,0,99.78,164h7.85a35.85,35.85,0,0,0,3.23,7.85l-5.61,5.62A2,2,0,0,0,105,180a48.16,48.16,0,0,0,11.85,11.85,2.05,2.05,0,0,0,2.5-.26L125,186a35.46,35.46,0,0,0,7.85,3.26v7.85a1.78,1.78,0,0,0,1.62,1.87,31.59,31.59,0,0,0,8.36,1Zm6.09-4.37a39.59,39.59,0,0,1-12.1,0v-7.74a1.91,1.91,0,0,0-1.47-1.87,30.52,30.52,0,0,1-9.61-4,1.89,1.89,0,0,0-2.38.23l-5.48,5.5a42.63,42.63,0,0,1-8.61-8.62l5.5-5.47a1.93,1.93,0,0,0,.25-2.38,34.34,34.34,0,0,1-4-9.58,2,2,0,0,0-1.87-1.5H101.4a47.28,47.28,0,0,1-.37-6.13,47.86,47.86,0,0,1,.37-6.09h7.73a1.89,1.89,0,0,0,1.87-1.5,30.59,30.59,0,0,1,4-9.61,1.91,1.91,0,0,0-.25-2.36l-5.5-5.5a43.36,43.36,0,0,1,8.61-8.61l5.48,5.5a1.93,1.93,0,0,0,2.38.25,34.27,34.27,0,0,1,9.61-4,2,2,0,0,0,1.47-1.87v-7.59a39,39,0,0,1,12.1,0v7.71a1.87,1.87,0,0,0,1.51,1.87,31,31,0,0,1,9.61,4,1.86,1.86,0,0,0,2.35-.26l5.5-5.47a43.42,43.42,0,0,1,8.59,8.59l-5.47,5.5a1.88,1.88,0,0,0-.26,2.38,33.85,33.85,0,0,1,4,9.58,2,2,0,0,0,1.87,1.5h7.74a55.12,55.12,0,0,1,.37,6.12,56.58,56.58,0,0,1-.37,6.1H176.6a1.86,1.86,0,0,0-1.87,1.5,31.41,31.41,0,0,1-4,9.61,1.84,1.84,0,0,0,.26,2.35l5.47,5.5a43.42,43.42,0,0,1-8.59,8.59l-5.5-5.47a1.85,1.85,0,0,0-2.35-.25,34.49,34.49,0,0,1-9.61,4A2,2,0,0,0,148.9,188Zm-6.09-25.31a16.22,16.22,0,1,0-16.21-16.22,16.27,16.27,0,0,0,16.21,16.22Zm0-28.43a12.22,12.22,0,1,1-12.22,12.21,12.25,12.25,0,0,1,12.22-12.21Z"/><path class="cls-5" d="M189.1,254.32a29.37,29.37,0,0,0,5.87-.51,2,2,0,0,0,1.61-1.87V247.1a33.31,33.31,0,0,0,4.62-1.87l3.49,3.48a2.08,2.08,0,0,0,2.49.26,31.77,31.77,0,0,0,8.22-8.25,2.06,2.06,0,0,0-.22-2.5l-3.52-3.48a19.59,19.59,0,0,0,1.87-4.6h4.88a1.8,1.8,0,0,0,1.87-1.64,30.3,30.3,0,0,0,.48-5.84,31.29,31.29,0,0,0-.48-5.87,2,2,0,0,0-1.87-1.61h-4.88a25.53,25.53,0,0,0-1.87-4.62l3.52-3.49a2,2,0,0,0,.22-2.49,32.23,32.23,0,0,0-8.22-8.25,2.1,2.1,0,0,0-2.49.25l-3.49,3.49a23.06,23.06,0,0,0-4.62-1.87v-4.85a1.78,1.78,0,0,0-1.61-1.87,29.41,29.41,0,0,0-11.6,0,2,2,0,0,0-1.61,1.87v4.85a30.78,30.78,0,0,0-4.62,1.87l-3.49-3.49a2.1,2.1,0,0,0-2.49-.25,32.19,32.19,0,0,0-8.25,8.25,2.1,2.1,0,0,0,.25,2.49l3.49,3.49a20.81,20.81,0,0,0-1.87,4.62h-4.85a1.76,1.76,0,0,0-1.87,1.61,28.25,28.25,0,0,0-.51,5.87,28.76,28.76,0,0,0,.51,5.84,2,2,0,0,0,1.87,1.64h4.85a32.34,32.34,0,0,0,1.87,4.6l-3.49,3.48a2.11,2.11,0,0,0-.25,2.5,31.73,31.73,0,0,0,8.25,8.25,2.08,2.08,0,0,0,2.49-.26l3.49-3.48a21.31,21.31,0,0,0,4.62,1.87v4.84a1.76,1.76,0,0,0,1.61,1.87,27.76,27.76,0,0,0,5.73.51Zm3.49-4.11a31.32,31.32,0,0,1-7,0v-4.73a1.86,1.86,0,0,0-1.5-1.87,20.28,20.28,0,0,1-6.35-2.64,1.92,1.92,0,0,0-2.38.26L172,244.6a31.82,31.82,0,0,1-5-5l3.37-3.37a1.89,1.89,0,0,0,.26-2.38,19.61,19.61,0,0,1-2.61-6.35,2,2,0,0,0-1.87-1.5H161.4c-.11-1.11-.22-2.36-.22-3.49s.11-2.35.22-3.49h4.77a1.91,1.91,0,0,0,1.87-1.5,19.61,19.61,0,0,1,2.61-6.35,1.89,1.89,0,0,0-.26-2.38L167,205.43a30.4,30.4,0,0,1,5-5l3.37,3.48a1.87,1.87,0,0,0,2.38.23,20.21,20.21,0,0,1,6.35-2.61,2,2,0,0,0,1.5-1.87V195a31.32,31.32,0,0,1,7,0v4.73a1.86,1.86,0,0,0,1.5,1.87,20.3,20.3,0,0,1,6.35,2.61,1.87,1.87,0,0,0,2.38-.23l3.37-3.37a31.82,31.82,0,0,1,5,5l-3.37,3.37a1.88,1.88,0,0,0-.26,2.35,20.54,20.54,0,0,1,2.64,6.38,2,2,0,0,0,1.87,1.48h4.73a26.75,26.75,0,0,1,0,7h-4.73a1.86,1.86,0,0,0-1.87,1.5,20.57,20.57,0,0,1-2.64,6.35,1.88,1.88,0,0,0,.26,2.35l3.37,3.38a31.76,31.76,0,0,1-5,5l-3.37-3.37a1.89,1.89,0,0,0-2.38-.23,20.3,20.3,0,0,1-6.35,2.61,2,2,0,0,0-1.5,1.87Zm-3.49-16a11.61,11.61,0,1,0-11.59-11.6,11.66,11.66,0,0,0,11.59,11.6Zm0-19.34a7.73,7.73,0,1,1-7.74,7.74,7.77,7.77,0,0,1,7.74-7.74Z"/><path class="cls-6" d="M159,154.06a16.21,16.21,0,1,0-16.21,16.22A16.28,16.28,0,0,0,159,154.06Zm-44,17.21a34.34,34.34,0,0,1-4-9.58,2,2,0,0,0-1.87-1.5H101.4a47.28,47.28,0,0,1-.37-6.13,47.86,47.86,0,0,1,.37-6.09h7.73a1.89,1.89,0,0,0,1.87-1.5,30.59,30.59,0,0,1,4-9.61,1.91,1.91,0,0,0-.25-2.36l-5.5-5.5a43.36,43.36,0,0,1,8.61-8.61l5.48,5.5a1.93,1.93,0,0,0,2.38.25,34.27,34.27,0,0,1,9.61-4,2,2,0,0,0,1.47-1.87v-7.59a39,39,0,0,1,12.1,0v7.71a1.87,1.87,0,0,0,1.51,1.87,31,31,0,0,1,9.61,4,1.86,1.86,0,0,0,2.35-.26l5.5-5.47a43.42,43.42,0,0,1,8.59,8.59l-5.47,5.5a1.88,1.88,0,0,0-.26,2.38,33.85,33.85,0,0,1,4,9.58,2,2,0,0,0,1.87,1.5h7.74a55.12,55.12,0,0,1,.37,6.12,56.58,56.58,0,0,1-.37,6.1H176.6a1.86,1.86,0,0,0-1.87,1.5,31.41,31.41,0,0,1-4,9.61,1.84,1.84,0,0,0,.26,2.35l5.47,5.5a43.42,43.42,0,0,1-8.59,8.59l-5.5-5.47a1.85,1.85,0,0,0-2.35-.25,34.49,34.49,0,0,1-9.61,4A2,2,0,0,0,148.9,188v7.6a39.59,39.59,0,0,1-12.1,0v-7.74a1.91,1.91,0,0,0-1.47-1.87,30.52,30.52,0,0,1-9.61-4,1.89,1.89,0,0,0-2.38.23l-5.48,5.5a42.63,42.63,0,0,1-8.61-8.62l5.5-5.47a1.93,1.93,0,0,0,.25-2.38Z"/><path class="cls-6" d="M200.69,222.66a11.59,11.59,0,1,0-11.59,11.6,11.66,11.66,0,0,0,11.59-11.6ZM161.4,226c-.11-1.11-.22-2.36-.22-3.49s.11-2.35.22-3.49h4.77a1.91,1.91,0,0,0,1.87-1.5,19.61,19.61,0,0,1,2.61-6.35,1.89,1.89,0,0,0-.26-2.38L167,205.43a30.4,30.4,0,0,1,5-5l3.37,3.48a1.87,1.87,0,0,0,2.38.23,20.21,20.21,0,0,1,6.35-2.61,2,2,0,0,0,1.5-1.87V195a31.32,31.32,0,0,1,7,0v4.73a1.86,1.86,0,0,0,1.5,1.87,20.3,20.3,0,0,1,6.35,2.61,1.87,1.87,0,0,0,2.38-.23l3.37-3.37a31.82,31.82,0,0,1,5,5l-3.37,3.37a1.88,1.88,0,0,0-.26,2.35,20.54,20.54,0,0,1,2.64,6.38,2,2,0,0,0,1.87,1.48h4.73a26.75,26.75,0,0,1,0,7h-4.73a1.86,1.86,0,0,0-1.87,1.5,20.57,20.57,0,0,1-2.64,6.35,1.88,1.88,0,0,0,.26,2.35l3.37,3.38a31.76,31.76,0,0,1-5,5l-3.37-3.37a1.89,1.89,0,0,0-2.38-.23,20.3,20.3,0,0,1-6.35,2.61,2,2,0,0,0-1.5,1.87v4.62a31.32,31.32,0,0,1-7,0v-4.73a1.86,1.86,0,0,0-1.5-1.87,20.28,20.28,0,0,1-6.35-2.64,1.92,1.92,0,0,0-2.38.26L172,244.6a31.82,31.82,0,0,1-5-5l3.37-3.37a1.89,1.89,0,0,0,.26-2.38,19.61,19.61,0,0,1-2.61-6.35,2,2,0,0,0-1.87-1.5Z"/></g></g></svg>