<svg xmlns="http://www.w3.org/2000/svg" viewBox="0 0 414.11 414.11"><defs><style>.cls-1,.cls-8{fill:#eef4ff;}.cls-1,.cls-2,.cls-3,.cls-6,.cls-8{fill-rule:evenodd;}.cls-2,.cls-6{fill:#fff;}.cls-2,.cls-4,.cls-5,.cls-6,.cls-7,.cls-8{stroke:#144496;stroke-width:4.54px;}.cls-2,.cls-4,.cls-6,.cls-7,.cls-8{stroke-miterlimit:10;}.cls-3{fill:#144496;}.cls-4,.cls-5,.cls-7{fill:none;}.cls-5,.cls-6,.cls-7{stroke-linecap:round;}.cls-5{stroke-linejoin:round;}</style></defs><title>Рекомендации</title><g id="Слой_2" data-name="Слой 2"><g id="Слой_1-2" data-name="Слой 1"><path class="cls-1" d="M414.11,207c0-114-93-207-207.07-207S0,93,0,207,93,414.11,207,414.11s207.07-93,207.07-207.07Z"/><path class="cls-2" d="M300.87,333.78h-220A7.8,7.8,0,0,1,73.11,326V66.16a7.81,7.81,0,0,1,7.76-7.77h220a7.8,7.8,0,0,1,7.77,7.77V326a7.78,7.78,0,0,1-7.77,7.77Z"/><path class="cls-2" d="M275.24,304.92H106.5a5.57,5.57,0,0,1-5.56-5.55V93.6A5.55,5.55,0,0,1,106.5,88H275.19a5.55,5.55,0,0,1,5.55,5.56V299.37a5.47,5.47,0,0,1-5.5,5.55Z"/><path class="cls-2" d="M245.88,42.24H210.81a19.93,19.93,0,1,0-39.85,0H135.89A7.77,7.77,0,0,0,128.13,50V94a7.79,7.79,0,0,0,7.76,7.76h110A7.79,7.79,0,0,0,253.64,94V50a7.77,7.77,0,0,0-7.76-7.76Z"/><path class="cls-3" d="M196.44,41.5A5.43,5.43,0,1,0,191,46.94a5.43,5.43,0,0,0,5.44-5.44Z"/><path class="cls-2" d="M150.58,229.75H134.14a4.89,4.89,0,0,1-4.85-4.88V208.46a4.89,4.89,0,0,1,4.85-4.88h16.44a4.91,4.91,0,0,1,4.84,4.88v16.41a4.81,4.81,0,0,1-4.84,4.88Z"/><line class="cls-4" x1="172.32" y1="124.41" x2="237.46" y2="124.41"/><line class="cls-4" x1="172.32" y1="143.8" x2="199.28" y2="143.8"/><line class="cls-4" x1="172.32" y1="202.05" x2="253.64" y2="202.05"/><line class="cls-4" x1="172.32" y1="221.44" x2="253.64" y2="221.44"/><line class="cls-4" x1="172.32" y1="240.86" x2="253.64" y2="240.86"/><line class="cls-4" x1="172.32" y1="260.28" x2="253.64" y2="260.28"/><line class="cls-4" x1="172.32" y1="279.69" x2="253.64" y2="279.69"/><path class="cls-2" d="M150.58,279.69H134.14a4.88,4.88,0,0,1-4.85-4.84v-16.5a4.89,4.89,0,0,1,4.85-4.88h16.44a4.91,4.91,0,0,1,4.84,4.88v16.41a4.82,4.82,0,0,1-4.84,4.93Z"/><polyline class="cls-5" points="154.46 127.7 138.59 143.43 130.25 135.07"/><polyline class="cls-5" points="154.46 165.23 138.59 180.96 130.25 172.6"/><line class="cls-4" x1="172.32" y1="164.52" x2="237.46" y2="164.52"/><line class="cls-4" x1="172.32" y1="182.64" x2="199.28" y2="182.64"/><path class="cls-6" d="M373.69,276.46h0a12.83,12.83,0,0,0-12.81-12.81H301.49c9.81-48.56-2.12-55.81-9.83-56a5.41,5.41,0,0,0-5.53,5.25c-1.73,49-48,63.58-48,63.58V355c0,9.44,17.75,11.28,17.75,11.28h93.06a12.83,12.83,0,0,0,12.81-12.81h0a12.83,12.83,0,0,0-12.81-12.81h5.21a12.86,12.86,0,0,0,12.82-12.84h0A12.84,12.84,0,0,0,354.1,315h6.72a12.87,12.87,0,0,0,12.84-12.85h0a12.86,12.86,0,0,0-12.84-12.81,12.93,12.93,0,0,0,12.87-12.87Z"/><line class="cls-7" x1="360.88" y1="289.28" x2="338" y2="289.28"/><line class="cls-7" x1="354.13" y1="314.93" x2="338" y2="314.93"/><line class="cls-7" x1="348.89" y1="340.58" x2="338" y2="340.58"/><path class="cls-2" d="M232.64,365.58H196.87a5.38,5.38,0,0,1-5.39-5.38V276.46a5.38,5.38,0,0,1,5.39-5.38h35.77a5.38,5.38,0,0,1,5.39,5.38v83.68a5.43,5.43,0,0,1-5.39,5.44Z"/><path class="cls-8" d="M225.89,343a10.45,10.45,0,1,0-10.46,10.44A10.47,10.47,0,0,0,225.89,343Z"/></g></g></svg>