<?xml version="1.0" encoding="UTF-8"?>
<!DOCTYPE svg PUBLIC "-//W3C//DTD SVG 1.1//EN" "http://www.w3.org/Graphics/SVG/1.1/DTD/svg11.dtd">
<!-- Creator: CorelDRAW 2018 (64-Bit) -->
<svg xmlns="http://www.w3.org/2000/svg" xml:space="preserve" width="297mm" height="210mm" version="1.1" style="shape-rendering:geometricPrecision; text-rendering:geometricPrecision; image-rendering:optimizeQuality; fill-rule:evenodd; clip-rule:evenodd"
viewBox="0 0 29700 21000"
 xmlns:xlink="http://www.w3.org/1999/xlink">
 <defs>
  <style type="text/css">
   <![CDATA[
    .str0 {stroke:white;stroke-width:370;stroke-miterlimit:22.9256}
    .str1 {stroke:#144496;stroke-width:150;stroke-miterlimit:22.9256}
    .fil3 {fill:none}
    .fil1 {fill:#144496}
    .fil0 {fill:#EEF4FF}
    .fil2 {fill:white}
    .fil4 {fill:#144496;fill-rule:nonzero}
   ]]>
  </style>
 </defs>
 <g id="Слой_x0020_1">
  <metadata id="CorelCorpID_0Corel-Layer"/>
  <circle class="fil0" cx="14553.24" cy="9660.56" r="7304.34"/>
  <path class="fil1" d="M15890.31 11274.36c-257.11,0 -503.04,-22.36 -748.97,-67.08 -78.25,-11.18 -145.32,-89.42 -145.32,-167.68l0 -704.25c-245.93,-67.08 -480.69,-167.69 -704.26,-290.65l-503.04 503.04c-55.89,55.9 -156.5,67.08 -223.57,22.36 -413.61,-290.64 -771.33,-648.36 -1061.97,-1061.97 -44.72,-67.07 -33.54,-167.68 22.36,-223.58l503.04 -503.04c-122.97,-223.57 -223.58,-458.32 -290.65,-704.25l-704.27 -0.01c-89.43,0 -156.5,-55.89 -167.68,-145.32 -44.72,-245.93 -67.08,-491.86 -67.08,-748.97 0,-257.11 22.36,-503.04 67.08,-748.97 11.18,-78.24 89.43,-145.32 167.68,-145.32l704.26 -0.01c67.08,-245.93 167.69,-480.68 290.65,-704.25l-503.04 -503.04c-55.9,-55.9 -67.08,-156.5 -22.36,-223.58 290.64,-413.61 648.36,-771.33 1061.97,-1061.97 67.07,-44.71 167.68,-33.53 223.58,22.36l503.04 503.04c223.57,-122.97 458.32,-223.58 704.25,-290.64l0.01 -726.63c0,-89.43 55.89,-156.5 145.32,-167.68 491.86,-89.43 1006.08,-89.43 1497.95,0 78.24,11.18 145.32,89.43 145.32,167.68l0 704.26c245.93,67.07 480.68,167.68 704.25,290.64l503.04 -503.04c55.9,-55.89 156.5,-67.07 223.58,-22.36 413.61,290.64 771.33,648.36 1061.97,1061.97 44.71,67.08 33.53,167.68 -22.36,223.58l-503.04 503.04c122.97,223.57 223.58,458.32 290.64,704.25l704.28 0.01c89.42,0 156.5,55.9 167.68,145.32 44.71,245.93 67.07,491.86 67.07,748.97 0,257.11 -22.36,503.04 -67.07,748.97 -11.18,78.25 -89.43,145.32 -167.68,145.32l-704.27 0.01c-67.07,245.93 -167.68,480.69 -290.64,704.26l503.04 503.03c55.89,55.9 67.07,156.51 22.36,223.58 -290.64,413.61 -648.36,771.33 -1061.97,1061.97 -67.08,44.72 -167.69,33.54 -223.58,-22.36l-503.04 -503.04c-223.58,122.97 -458.32,223.58 -704.25,290.65l0 704.25c0,89.43 -55.9,156.5 -145.33,167.68 -245.93,67.09 -491.87,89.45 -748.98,89.45zm-547.75 -391.26c357.71,55.89 726.61,55.89 1084.33,0l0 -693.08c0,-78.25 55.89,-156.51 134.14,-167.69 301.82,-67.07 592.47,-190.03 860.76,-357.71 67.07,-44.72 156.5,-33.54 212.39,22.36l491.86 491.86c290.65,-212.4 547.76,-480.69 771.33,-771.33l-491.86 -491.86c-55.89,-55.9 -67.07,-145.32 -22.36,-212.4 167.69,-268.29 279.47,-558.93 357.72,-860.76 22.36,-78.24 89.43,-134.14 167.68,-134.14l693.09 0c22.36,-178.86 33.53,-357.71 33.53,-547.75 0,-178.86 -11.18,-368.9 -33.53,-547.75l-693.08 -0.01c-78.25,0 -156.5,-55.9 -167.68,-134.14 -67.08,-301.83 -190.04,-592.47 -357.72,-860.76 -44.71,-67.07 -33.53,-156.5 22.36,-212.4l491.86 -491.85c-212.4,-290.65 -480.69,-547.76 -771.33,-771.33l-491.86 491.86c-55.89,55.89 -145.32,67.07 -212.39,22.36 -268.29,-167.69 -558.94,-279.47 -860.76,-357.72 -78.25,-22.36 -134.14,-89.43 -134.14,-167.68l-0.01 -681.91c-357.72,-55.89 -726.62,-55.89 -1084.33,0l0 693.09c0,78.24 -55.9,156.5 -134.14,167.68 -301.83,67.07 -592.47,190.03 -860.76,357.72 -67.08,44.71 -156.5,33.53 -212.4,-22.36l-491.86 -491.86c-290.64,212.39 -547.75,480.68 -771.33,771.33l491.86 491.86c55.9,55.89 67.08,145.32 22.36,212.39 -167.68,268.29 -279.47,558.93 -357.71,860.76 -22.37,78.25 -89.43,134.14 -167.69,134.14l-693.08 0c-22.36,178.86 -33.53,357.72 -33.53,547.75 0,178.87 11.18,368.9 33.53,547.76l693.07 0c78.25,0 156.51,55.9 167.69,134.14 67.07,301.83 190.03,592.47 357.71,860.76 44.72,67.08 33.54,156.5 -22.36,212.4l-491.85 491.86c212.39,290.64 480.68,547.75 771.32,771.33l491.86 -491.86c55.9,-55.9 145.32,-67.08 212.4,-22.36 268.29,167.68 558.93,279.47 860.76,357.71 78.24,22.37 134.14,89.43 134.14,167.69l0.01 681.9zm547.75 -2269.27c-793.69,0 -1453.23,-648.36 -1453.23,-1453.23 0,-793.69 648.36,-1453.23 1453.23,-1453.23 793.69,0 1453.23,648.36 1453.23,1453.23 0,804.86 -659.54,1453.23 -1453.23,1453.23zm0 -2548.74c-603.65,0 -1095.52,491.85 -1095.52,1095.51 0,603.65 491.86,1095.51 1095.52,1095.51 603.65,0 1095.51,-491.85 1095.51,-1095.51 0,-592.47 -491.86,-1095.51 -1095.51,-1095.51z"/>
  <path class="fil1" d="M12369.03 15868.8c-178.87,0 -346.54,-11.18 -525.4,-44.71 -78.25,-11.18 -145.33,-89.43 -145.33,-167.68l0 -435.98c-145.32,-44.71 -279.47,-100.6 -413.61,-167.68l-313 313.01c-55.9,55.89 -156.5,67.07 -223.58,22.36 -290.64,-201.22 -536.58,-447.15 -737.8,-737.8 -44.71,-67.07 -33.53,-167.68 22.37,-223.58l313 -313c-67.07,-134.14 -134.14,-268.29 -167.68,-413.61l-435.97 0.01c-89.42,0 -156.5,-55.9 -167.68,-145.33 -33.53,-167.68 -44.71,-346.53 -44.71,-525.4 0,-178.86 11.18,-346.53 44.71,-525.4 11.18,-78.24 89.43,-145.32 167.68,-145.32l435.97 0c44.71,-145.32 100.61,-279.47 167.68,-413.61l-313 -313c-55.9,-55.9 -67.08,-156.51 -22.37,-223.58 201.22,-290.64 447.15,-536.58 737.8,-737.8 67.08,-44.71 167.68,-33.53 223.58,22.36l313 313.01c134.14,-67.08 268.29,-134.14 413.61,-167.68l0 -435.98c0,-89.42 55.9,-156.5 145.33,-167.68 335.35,-67.07 704.25,-67.07 1039.62,0 78.24,11.18 145.32,89.43 145.32,167.68l0 435.98c145.32,44.71 279.47,100.6 413.61,167.68l313 -313.01c55.9,-55.89 156.51,-67.07 223.58,-22.36 290.64,201.22 536.58,447.15 737.8,737.8 44.71,67.07 33.53,167.68 -22.36,223.58l-313.01 313c67.08,134.14 134.14,268.29 167.68,413.61l435.97 0c89.43,0 156.5,55.9 167.68,145.32 33.53,167.69 44.71,346.54 44.71,525.4 0,178.87 -11.18,346.54 -44.71,525.4 -11.18,78.25 -89.43,145.33 -167.68,145.33l-435.97 0c-44.71,145.32 -100.6,279.47 -167.68,413.61l313.01 313c55.89,55.9 67.07,156.5 22.36,223.58 -201.22,290.64 -447.15,536.58 -737.8,737.8 -67.07,44.71 -167.68,33.53 -223.58,-22.37l-313 -313c-134.14,67.07 -268.29,134.14 -413.61,167.68l0 435.98c0,89.42 -55.9,156.5 -145.32,167.68 -167.69,33.52 -346.54,44.7 -514.22,44.7zm-313.01 -368.9c212.4,22.37 424.79,22.37 626.01,0l0 -424.79c0,-78.24 55.89,-156.5 134.14,-167.68 201.22,-44.71 391.25,-122.97 570.11,-234.75 67.08,-44.71 156.51,-33.53 212.4,22.36l301.82 301.83c167.69,-134.15 313.01,-279.48 447.15,-447.15l-301.82 -301.82c-55.9,-55.9 -67.08,-145.32 -22.36,-212.4 111.78,-178.86 190.03,-368.9 234.74,-570.11 22.36,-78.25 89.43,-134.14 167.69,-134.14l424.8 -0.01c11.18,-100.61 22.36,-212.4 22.36,-313.01 0,-100.6 -11.18,-212.39 -22.36,-313l-424.79 0c-78.25,0 -156.51,-55.89 -167.69,-134.14 -44.71,-201.22 -122.97,-391.25 -234.75,-570.12 -44.71,-67.07 -33.53,-156.5 22.36,-212.39l301.83 -301.83c-134.14,-167.68 -279.47,-313 -447.15,-447.14l-301.83 313c-55.89,55.89 -145.32,67.07 -212.4,22.36 -178.86,-111.79 -368.89,-190.04 -570.11,-234.75 -78.25,-22.36 -134.14,-89.43 -134.14,-167.69l0 -424.79c-212.4,-22.36 -424.79,-22.36 -626.01,0l0 424.79c0,78.25 -55.89,156.51 -134.14,167.69 -201.21,44.71 -391.25,122.97 -570.11,234.75 -67.08,44.71 -156.51,33.53 -212.4,-22.36l-301.82 -301.83c-167.69,134.14 -313.01,279.47 -447.15,447.15l301.83 301.82c55.89,55.89 67.07,145.32 22.36,212.4 -111.79,178.86 -190.04,368.89 -234.75,570.11 -22.36,78.25 -89.43,134.14 -167.68,134.14l-424.81 0.01c-11.18,100.61 -22.36,212.4 -22.36,313 0,100.61 11.18,212.4 22.36,313.01l424.8 0c78.24,0 156.5,55.89 167.68,134.14 44.71,201.21 122.97,391.25 234.75,570.11 44.71,67.08 33.53,156.5 -22.36,212.4l-301.83 301.82c134.14,167.69 279.47,313.01 447.15,447.15l301.82 -301.83c55.9,-55.89 145.32,-67.07 212.4,-22.36 178.86,111.79 368.9,190.04 570.11,234.75 78.25,22.36 134.14,89.43 134.14,167.68l0.01 413.62zm313.01 -1430.87c-570.12,0 -1039.62,-469.5 -1039.62,-1039.62 0,-570.11 469.5,-1039.62 1039.62,-1039.62 570.11,0 1039.62,469.51 1039.62,1039.62 0,570.12 -469.51,1039.62 -1039.62,1039.62zm0 -1732.7c-380.08,0 -693.09,313.01 -693.09,693.08 0,380.08 313.01,693.09 693.09,693.09 380.07,0 693.08,-313.01 693.08,-693.09 -0.01,-391.26 -313.01,-693.08 -693.08,-693.08z"/>
  <path class="fil2 str0" d="M14437.08 7160.6c0,-793.69 648.35,-1453.23 1453.23,-1453.23 793.69,0 1453.24,648.36 1453.24,1453.23 0,804.86 -659.55,1453.22 -1453.24,1453.22 -793.69,0 -1453.23,-648.34 -1453.23,-1453.22zm3946.08 1542.65c167.68,-268.29 279.47,-558.92 357.71,-860.76 22.36,-78.24 89.42,-134.13 167.67,-134.13l693.09 0c22.37,-178.86 33.53,-357.73 33.53,-547.76 0,-178.85 -11.18,-368.89 -33.53,-547.75l-693.07 -0.01c-78.24,0 -156.49,-55.9 -167.68,-134.14 -67.08,-301.83 -190.04,-592.46 -357.72,-860.75 -44.72,-67.07 -33.53,-156.51 22.36,-212.41l491.86 -491.85c-212.39,-290.64 -480.7,-547.76 -771.33,-771.33l-491.86 491.86c-55.89,55.89 -145.32,67.06 -212.39,22.36 -268.31,-167.69 -558.94,-279.47 -860.77,-357.73 -78.24,-22.35 -134.13,-89.42 -134.13,-167.68l-0.01 -681.9c-357.72,-55.89 -726.62,-55.89 -1084.34,0l0 693.09c0,78.25 -55.89,156.49 -134.14,167.68 -301.82,67.07 -592.45,190.04 -860.74,357.72 -67.08,44.71 -156.52,33.52 -212.41,-22.37l-491.86 -491.86c-290.63,212.4 -547.74,480.7 -771.33,771.33l491.86 491.86c55.9,55.89 67.08,145.32 22.36,212.4 -167.68,268.29 -279.47,558.93 -357.71,860.77 -22.36,78.24 -89.44,134.13 -167.69,134.13l-693.08 0c-22.36,178.86 -33.53,357.73 -33.53,547.76 0,178.85 11.17,368.9 33.53,547.75l693.08 0.01c78.24,0 156.49,55.89 167.68,134.14 67.08,301.83 190.03,592.46 357.72,860.75 44.72,67.07 33.54,156.5 -22.36,212.39l-491.86 491.86c212.39,290.66 480.68,547.76 771.33,771.33l491.86 -491.86c55.89,-55.89 145.32,-67.08 212.39,-22.36 268.28,167.69 558.93,279.48 860.76,357.72 78.24,22.36 134.13,89.42 134.13,167.69l0.01 681.9c357.72,55.89 726.62,55.89 1084.34,0l0 -693.09c0,-78.24 55.89,-156.5 134.14,-167.68 301.82,-67.08 592.46,-190.03 860.75,-357.71 67.08,-44.72 156.51,-33.55 212.4,22.35l491.86 491.86c290.64,-212.39 547.75,-480.68 771.33,-771.33l-491.85 -491.86c-55.89,-55.9 -67.08,-145.31 -22.36,-212.39z"/>
  <path class="fil2 str0" d="M11329.41 13029.41c0,-570.11 469.51,-1039.62 1039.62,-1039.62 570.11,0 1039.61,469.51 1039.61,1039.62 0,570.12 -469.5,1039.62 -1039.61,1039.62 -570.11,0 -1039.62,-469.5 -1039.62,-1039.62zm3521.29 301.82c11.18,-100.6 22.35,-212.39 22.35,-312.99 0,-100.62 -11.17,-212.39 -22.35,-313.01l-424.8 0c-78.23,0 -156.49,-55.9 -167.67,-134.14 -44.72,-201.22 -122.97,-391.26 -234.76,-570.12 -44.71,-67.08 -33.53,-156.5 22.36,-212.4l301.84 -301.82c-134.16,-167.69 -279.49,-313 -447.15,-447.14l-301.83 313c-55.89,55.89 -145.33,67.08 -212.4,22.36 -178.88,-111.8 -368.91,-190.04 -570.11,-234.75 -78.25,-22.36 -134.15,-89.43 -134.15,-167.68l0 -424.81c-212.4,-22.36 -424.79,-22.36 -625.99,0l0 424.81c0,78.24 -55.92,156.49 -134.16,167.68 -201.21,44.71 -391.26,122.97 -570.11,234.75 -67.08,44.72 -156.5,33.53 -212.39,-22.36l-301.82 -301.83c-167.71,134.15 -313.02,279.47 -447.15,447.15l301.81 301.82c55.9,55.89 67.07,145.33 22.36,212.4 -111.78,178.86 -190.03,368.89 -234.73,570.12 -22.36,78.24 -89.44,134.14 -167.7,134.14l-424.8 0c-11.18,100.61 -22.35,212.4 -22.35,313 0,100.61 11.17,212.4 22.35,313l424.8 0c78.25,0 156.5,55.9 167.68,134.15 44.71,201.22 122.97,391.25 234.75,570.1 44.71,67.08 33.54,156.52 -22.36,212.42l-301.82 301.81c134.14,167.68 279.45,313.02 447.14,447.15l301.84 -301.81c55.89,-55.92 145.31,-67.08 212.39,-22.37 178.85,111.78 368.88,190.03 570.11,234.75 78.24,22.35 134.13,89.41 134.13,167.67l0.03 413.63c212.39,22.35 424.78,22.35 625.99,0l0 -424.8c0,-78.24 55.9,-156.49 134.15,-167.68 201.2,-44.71 391.23,-122.96 570.11,-234.75 67.07,-44.72 156.51,-33.53 212.4,22.36l301.81 301.83c167.68,-134.15 313.01,-279.48 447.15,-447.15l-301.82 -301.83c-55.89,-55.89 -67.07,-145.31 -22.36,-212.39 111.79,-178.87 190.03,-368.9 234.74,-570.11 22.37,-78.25 89.44,-134.14 167.68,-134.14l424.81 -0.02z"/>
  <path class="fil3 str1" d="M8273.8 9660.56c0,-2243.43 1196.85,-4316.44 3139.72,-5438.15"/>
  <path class="fil3 str1" d="M20832.68 9660.56c0,2243.43 -1196.85,4316.44 -3139.72,5438.15"/>
  <path class="fil4" d="M20903.7 9246.84c18.38,-19.72 28.08,-45.12 28.08,-70.52 0,-25.73 -9.7,-51.47 -28.41,-70.52 -19.05,-18.71 -44.79,-28.41 -70.52,-28.41 -25.4,0 -51.14,9.7 -70.19,28.75 -19.05,19.05 -29.07,44.78 -29.07,70.18 0,25.74 10.02,51.81 28.74,70.86 19.38,18.71 45.12,28.41 70.52,28.41 25.73,0 51.8,-9.7 70.85,-28.75z"/>
  <path class="fil4" d="M8344.81 10214.98c18.38,-19.72 28.08,-45.12 28.08,-70.52 0,-25.73 -9.7,-51.47 -28.41,-70.52 -19.05,-18.71 -44.79,-28.41 -70.52,-28.41 -25.4,0 -51.14,9.7 -70.19,28.75 -19.05,19.05 -29.07,44.78 -29.07,70.18 0,25.74 10.02,51.81 28.74,70.86 19.38,18.71 45.12,28.41 70.52,28.41 25.73,0 51.8,-9.7 70.85,-28.75z"/>
 </g>
</svg>
