<svg xmlns="http://www.w3.org/2000/svg" viewBox="0 0 414.11 414.11"><defs><style>.cls-1{fill:#eef4ff;}.cls-1,.cls-2,.cls-3{fill-rule:evenodd;}.cls-2,.cls-5{fill:#144496;}.cls-3{fill:#fff;stroke:#fff;stroke-width:10.49px;}.cls-3,.cls-4{stroke-miterlimit:10;}.cls-4{fill:none;stroke:#144496;stroke-width:4.25px;}</style></defs><title>Настройка</title><g id="Слой_2" data-name="Слой 2"><g id="Слой_1-2" data-name="Слой 1"><path class="cls-1" d="M207,414.11c114.07,0,207.07-93,207.07-207.07S321.11,0,207,0,0,93,0,207,93,414.11,207,414.11Z"/><path class="cls-2" d="M245,252.79a116,116,0,0,1-21.23-1.9,5,5,0,0,1-4.14-4.76V226.18a91.84,91.84,0,0,1-20-8.22l-14.25,14.25a5.26,5.26,0,0,1-6.35.63,123.91,123.91,0,0,1-30.11-30.11,5.32,5.32,0,0,1,.65-6.35l14.26-14.25a91.53,91.53,0,0,1-8.25-20h-20a4.54,4.54,0,0,1-4.76-4.11,119.56,119.56,0,0,1,0-42.46,5.07,5.07,0,0,1,4.76-4.11h20a92,92,0,0,1,8.25-20L149.58,77.24a5.27,5.27,0,0,1-.65-6.32A123.52,123.52,0,0,1,179,40.82a5.26,5.26,0,0,1,6.35.62L199.64,55.7a93,93,0,0,1,20-8.25V26.87a4.54,4.54,0,0,1,4.14-4.76,120,120,0,0,1,42.43,0,5.07,5.07,0,0,1,4.14,4.76v20a91.45,91.45,0,0,1,20,8.25l14.26-14.26a5.29,5.29,0,0,1,6.35-.65A124.53,124.53,0,0,1,341,70.27a5.3,5.3,0,0,1-.65,6.35L326.07,90.88a90.76,90.76,0,0,1,8.25,20h19.95A4.55,4.55,0,0,1,359,115a119.45,119.45,0,0,1,0,42.44,5.09,5.09,0,0,1-4.77,4.14H334.32a91.37,91.37,0,0,1-8.25,19.95l14.26,14.26a5.3,5.3,0,0,1,.65,6.35,124.36,124.36,0,0,1-30.1,30.1,5.29,5.29,0,0,1-6.35-.65L290.27,217.3a91.45,91.45,0,0,1-20,8.25v20a4.54,4.54,0,0,1-4.14,4.76,79.16,79.16,0,0,1-21.2,2.52Zm-15.53-11.08a99.52,99.52,0,0,0,30.72,0V222.07a4.81,4.81,0,0,1,3.8-4.77,78.37,78.37,0,0,0,24.41-10.12,4.77,4.77,0,0,1,6,.63l13.94,13.94a110.14,110.14,0,0,0,21.89-21.88L316.26,186a4.84,4.84,0,0,1-.65-6,85.88,85.88,0,0,0,10.15-24.4,5.06,5.06,0,0,1,4.76-3.8h19.64a124.35,124.35,0,0,0,.94-15.53,128.35,128.35,0,0,0-.94-15.51H330.52a4.79,4.79,0,0,1-4.76-3.8,77.82,77.82,0,0,0-10.15-24.4,4.84,4.84,0,0,1,.65-6l13.95-13.92a110.41,110.41,0,0,0-21.89-21.88L294.38,64.57a4.77,4.77,0,0,1-6,.63A86.56,86.56,0,0,0,264,55.08a5.09,5.09,0,0,1-3.8-4.77V31a100.14,100.14,0,0,0-30.72,0V50.63a4.79,4.79,0,0,1-3.8,4.76,77.74,77.74,0,0,0-24.41,10.15,4.87,4.87,0,0,1-6-.65l-13.91-14a110.41,110.41,0,0,0-21.89,21.88l14,14a4.76,4.76,0,0,1,.62,6,86.67,86.67,0,0,0-10.12,24.4,5.07,5.07,0,0,1-4.76,3.8H139.44a124.79,124.79,0,0,0-1,15.54,127.6,127.6,0,0,0,1,15.5h19.64a4.79,4.79,0,0,1,4.76,3.83A78.75,78.75,0,0,0,174,180.23a4.78,4.78,0,0,1-.62,6l-14,14a111.12,111.12,0,0,0,21.89,21.86l13.91-13.95a4.8,4.8,0,0,1,6-.62,87.15,87.15,0,0,0,24.41,10.12,5.08,5.08,0,0,1,3.8,4.76ZM245,177.39a41.2,41.2,0,1,1,41.19-41.21A41.34,41.34,0,0,1,245,177.39Zm0-72.25a31.05,31.05,0,1,0,31,31,31.11,31.11,0,0,0-31-31Z"/><path class="cls-2" d="M145.13,383.05a78,78,0,0,1-14.88-1.28,5,5,0,0,1-4.11-4.76V364.65a73.74,73.74,0,0,1-11.73-4.73l-8.88,8.87a5.25,5.25,0,0,1-6.35.62,81.94,81.94,0,0,1-20.89-20.92,5.21,5.21,0,0,1,.63-6.32l8.87-8.87A55,55,0,0,1,83,321.56H70.67a4.54,4.54,0,0,1-4.74-4.11,76.05,76.05,0,0,1-1.27-14.91,77.9,77.9,0,0,1,1.27-14.88,5.06,5.06,0,0,1,4.74-4.11H83a75.31,75.31,0,0,1,4.76-11.74l-8.87-8.87a5.26,5.26,0,0,1-.63-6.35A82.3,82.3,0,0,1,99.18,235.7a5.27,5.27,0,0,1,6.35.62l8.88,8.88a54,54,0,0,1,11.73-4.77V228.08a4.51,4.51,0,0,1,4.11-4.74,76.79,76.79,0,0,1,29.45,0,5,5,0,0,1,4.14,4.74v12.35a77.24,77.24,0,0,1,11.71,4.77l8.87-8.88a5.27,5.27,0,0,1,6.35-.62,81.94,81.94,0,0,1,20.92,20.89,5.29,5.29,0,0,1-.65,6.35l-8.87,8.87c1.9,3.8,3.82,7.6,4.76,11.74h12.36a4.54,4.54,0,0,1,4.76,4.11,77.38,77.38,0,0,1,1.25,14.88,79.77,79.77,0,0,1-1.25,14.91,5.07,5.07,0,0,1-4.76,4.11H206.93a78.82,78.82,0,0,1-4.76,11.74l8.87,8.87a5.25,5.25,0,0,1,.65,6.32,81.58,81.58,0,0,1-20.92,20.92,5.26,5.26,0,0,1-6.35-.62l-8.87-8.87a53.51,53.51,0,0,1-11.71,4.73V377a4.54,4.54,0,0,1-4.14,4.76,74.47,74.47,0,0,1-14.57,1.28Zm-8.87-10.46a84.91,84.91,0,0,0,17.75,0v-12a4.78,4.78,0,0,1,3.79-4.76A50.76,50.76,0,0,0,174,349.14a4.81,4.81,0,0,1,6,.63l8.56,8.56a81.62,81.62,0,0,0,12.67-12.67l-8.56-8.56a4.8,4.8,0,0,1-.62-6,51.34,51.34,0,0,0,6.63-16.16,5.08,5.08,0,0,1,4.76-3.8h12.05a84.71,84.71,0,0,0,.62-8.87,85.86,85.86,0,0,0-.62-8.87H203.44a4.82,4.82,0,0,1-4.76-3.8,51.63,51.63,0,0,0-6.63-16.16,4.8,4.8,0,0,1,.62-6l8.56-8.53a81.81,81.81,0,0,0-12.67-12.7L180,255a4.81,4.81,0,0,1-6,.66A50.57,50.57,0,0,0,157.8,249a5,5,0,0,1-3.79-4.77v-12a81,81,0,0,0-17.75,0v12a4.79,4.79,0,0,1-3.8,4.77,51.18,51.18,0,0,0-16.15,6.66,4.77,4.77,0,0,1-6-.66l-8.56-8.53a78.74,78.74,0,0,0-12.68,12.67l8.54,8.56a4.79,4.79,0,0,1,.65,6,51.24,51.24,0,0,0-6.66,16.16,5,5,0,0,1-4.76,3.8h-12a78.35,78.35,0,0,0-.66,8.87,77.33,77.33,0,0,0,.66,8.87h12a4.78,4.78,0,0,1,4.76,3.8,51.11,51.11,0,0,0,6.66,16.19,4.81,4.81,0,0,1-.65,6L89.06,346a80,80,0,0,0,12.68,12.67l8.56-8.56a4.75,4.75,0,0,1,6-.62,50.88,50.88,0,0,0,16.15,6.63,5.08,5.08,0,0,1,3.8,4.76ZM145.13,332a29.47,29.47,0,1,1,29.48-29.48A29.62,29.62,0,0,1,145.13,332Zm0-49.12a19.65,19.65,0,1,0,19.65,19.64,19.54,19.54,0,0,0-19.65-19.64Z"/><path class="cls-3" d="M203.75,136.18A41.21,41.21,0,1,1,245,177.39a41.34,41.34,0,0,1-41.22-41.21Zm111.86,43.73a85.88,85.88,0,0,0,10.15-24.4,5,5,0,0,1,4.76-3.8h19.64a124.35,124.35,0,0,0,.94-15.53,128.35,128.35,0,0,0-.94-15.51H330.52a4.79,4.79,0,0,1-4.76-3.8,77.82,77.82,0,0,0-10.15-24.4,4.84,4.84,0,0,1,.65-6l13.95-13.92a110.41,110.41,0,0,0-21.89-21.88L294.38,64.57a4.77,4.77,0,0,1-6,.63A86.56,86.56,0,0,0,264,55.08a5.09,5.09,0,0,1-3.8-4.77V31a100.14,100.14,0,0,0-30.72,0V50.63a4.79,4.79,0,0,1-3.8,4.76,77.74,77.74,0,0,0-24.41,10.15,4.87,4.87,0,0,1-6-.65l-13.91-14a110.41,110.41,0,0,0-21.89,21.88l14,14a4.75,4.75,0,0,1,.62,6,86.67,86.67,0,0,0-10.12,24.4,5.07,5.07,0,0,1-4.76,3.8H139.44a124.79,124.79,0,0,0-1,15.54,127.6,127.6,0,0,0,1,15.5h19.64a4.79,4.79,0,0,1,4.76,3.83A78.75,78.75,0,0,0,174,180.23a4.78,4.78,0,0,1-.62,6l-14,14a111.12,111.12,0,0,0,21.89,21.86l13.91-13.95a4.8,4.8,0,0,1,6-.62,87.15,87.15,0,0,0,24.41,10.12,5.08,5.08,0,0,1,3.8,4.76v19.33a99.52,99.52,0,0,0,30.72,0V222.07a4.81,4.81,0,0,1,3.8-4.77,78.37,78.37,0,0,0,24.41-10.12,4.77,4.77,0,0,1,6,.63l13.94,13.94a110.14,110.14,0,0,0,21.89-21.88L316.26,186a4.84,4.84,0,0,1-.65-6Z"/><path class="cls-3" d="M115.68,302.54A29.47,29.47,0,1,1,145.13,332a29.59,29.59,0,0,1-29.45-29.48Zm99.81,8.56a84.71,84.71,0,0,0,.62-8.87,85.86,85.86,0,0,0-.62-8.87H203.44a4.82,4.82,0,0,1-4.76-3.8,51.63,51.63,0,0,0-6.63-16.16,4.8,4.8,0,0,1,.62-6l8.56-8.53a81.81,81.81,0,0,0-12.67-12.7L180,255a4.81,4.81,0,0,1-6,.66A50.57,50.57,0,0,0,157.8,249a5,5,0,0,1-3.79-4.77v-12a81,81,0,0,0-17.75,0v12a4.79,4.79,0,0,1-3.8,4.77,51.18,51.18,0,0,0-16.15,6.66,4.77,4.77,0,0,1-6-.66l-8.56-8.53a78.74,78.74,0,0,0-12.68,12.67l8.54,8.56a4.81,4.81,0,0,1,.65,6,51.24,51.24,0,0,0-6.66,16.16,5,5,0,0,1-4.76,3.8h-12a78.35,78.35,0,0,0-.66,8.87,77.33,77.33,0,0,0,.66,8.87h12a4.78,4.78,0,0,1,4.76,3.8,51.11,51.11,0,0,0,6.66,16.19,4.81,4.81,0,0,1-.65,6L89.06,346a80,80,0,0,0,12.68,12.67l8.56-8.56a4.75,4.75,0,0,1,6-.62,50.88,50.88,0,0,0,16.15,6.63,5.08,5.08,0,0,1,3.8,4.76v11.74a84.91,84.91,0,0,0,17.75,0v-12a4.81,4.81,0,0,1,3.79-4.76A50.76,50.76,0,0,0,174,349.14a4.81,4.81,0,0,1,6,.63l8.56,8.56a81.62,81.62,0,0,0,12.67-12.67l-8.56-8.56a4.8,4.8,0,0,1-.62-6,51.34,51.34,0,0,0,6.63-16.16,5.08,5.08,0,0,1,4.76-3.8Z"/><path class="cls-4" d="M29.06,207a178,178,0,0,1,89-154.15"/><path class="cls-4" d="M385.06,207a178,178,0,0,1-89,154.18"/><path class="cls-5" d="M387.07,195.34a3,3,0,0,0,.79-2,2.89,2.89,0,0,0-.79-2,2.82,2.82,0,0,0-4.82,2,2.9,2.9,0,0,0,.82,2,2.93,2.93,0,0,0,4,0Z"/><path class="cls-5" d="M31.07,222.77a3,3,0,0,0,.79-2,2.92,2.92,0,0,0-.79-2,2.85,2.85,0,0,0-4,0,2.84,2.84,0,0,0,0,4,2.82,2.82,0,0,0,4,0Z"/></g></g></svg>