<svg xmlns="http://www.w3.org/2000/svg" viewBox="0 0 414.11 414.11"><defs><style>.cls-1,.cls-3{fill:#eef4ff;}.cls-1,.cls-2,.cls-3{fill-rule:evenodd;}.cls-2,.cls-4{fill:#fff;}.cls-2,.cls-3,.cls-4,.cls-5{stroke:#144496;stroke-miterlimit:10;}.cls-2,.cls-3,.cls-4{stroke-width:4.51px;}.cls-5{fill:none;stroke-linecap:round;stroke-width:4.25px;}</style></defs><title>Никакой навязчивости</title><g id="Слой_2" data-name="Слой 2"><g id="Слой_1-2" data-name="Слой 1"><path class="cls-1" d="M414.11,207c0-114-93-207-207.07-207S0,93,0,207,93,414.11,207,414.11s207.07-93,207.07-207.07Z"/><path class="cls-2" d="M151.34,291H31.63a4,4,0,0,0-4,4v11a20.18,20.18,0,0,0,20.12,20.12h326a20.2,20.2,0,0,0,20.13-20.12v-11a4,4,0,0,0-4-4H264.19"/><path class="cls-2" d="M262.32,291h-5.76L250.21,301a7.51,7.51,0,0,1-6.6,4.31H172.06a7.35,7.35,0,0,1-6.6-4.31L159.87,291H63.21V92.21a9.67,9.67,0,0,1,9.64-9.64H346.93a9.68,9.68,0,0,1,9.67,9.64V291H261.72"/><path class="cls-3" d="M89.55,269H330.32a2.39,2.39,0,0,0,2.38-2.41V107a2.37,2.37,0,0,0-2.38-2.38H89.55A2.38,2.38,0,0,0,87.17,107V266.57A2.33,2.33,0,0,0,89.55,269Z"/><rect class="cls-4" x="100.86" y="116.19" width="66.13" height="38.24"/><rect class="cls-4" x="178.36" y="175.21" width="87.48" height="83.99"/><rect class="cls-4" x="117.35" y="140.63" width="89.4" height="97.63"/><rect class="cls-4" x="228.36" y="119.03" width="89.01" height="128.66"/><polyline class="cls-5" points="141.19 191.96 155.71 205.26 182.92 173.62"/><line class="cls-5" x1="259.26" y1="199.16" x2="286.47" y2="167.56"/><line class="cls-5" x1="259.26" y1="167.56" x2="286.47" y2="199.16"/></g></g></svg>