<svg xmlns="http://www.w3.org/2000/svg" viewBox="0 0 414.11 414.11"><defs><style>.cls-1{fill:#eef4ff;}.cls-1,.cls-2,.cls-3{fill-rule:evenodd;}.cls-2{fill:#fff;}.cls-2,.cls-4,.cls-5{stroke:#144496;stroke-miterlimit:10;stroke-width:4.54px;}.cls-3{fill:#144496;}.cls-4,.cls-5{fill:none;}.cls-4{stroke-linecap:round;}</style></defs><title>Размещение бесплатно</title><g id="Слой_2" data-name="Слой 2"><g id="Слой_1-2" data-name="Слой 1"><path class="cls-1" d="M414.11,207c0-114-93-207-207.07-207S0,93,0,207,93,414.11,207,414.11s207.07-93,207.07-207.07Z"/><path class="cls-2" d="M321.22,357.05H88.61a8.23,8.23,0,0,1-8.19-8.22V74.07a8.21,8.21,0,0,1,8.19-8.19H321.22a8.23,8.23,0,0,1,8.22,8.19V348.83a8.26,8.26,0,0,1-8.22,8.22Z"/><path class="cls-2" d="M294.12,326.52H115.71a5.88,5.88,0,0,1-5.9-5.86V103.1a5.9,5.9,0,0,1,5.9-5.9H294.07a5.89,5.89,0,0,1,5.89,5.9V320.66a5.83,5.83,0,0,1-5.84,5.86Z"/><path class="cls-2" d="M263.08,48.76H226a21.06,21.06,0,1,0-42.12,0H146.78A8.24,8.24,0,0,0,138.56,57v46.51a8.24,8.24,0,0,0,8.22,8.22h116.3a8.24,8.24,0,0,0,8.2-8.22V57a8.24,8.24,0,0,0-8.2-8.22Z"/><path class="cls-3" d="M210.81,48a5.76,5.76,0,1,0-5.75,5.72A5.76,5.76,0,0,0,210.81,48Z"/><path class="cls-2" d="M196.38,168.66a34.6,34.6,0,1,0-34.61,34.58,34.67,34.67,0,0,0,34.61-34.58Z"/><path class="cls-2" d="M183.32,168.66a21.53,21.53,0,1,0-21.55,21.54,21.57,21.57,0,0,0,21.55-21.54Z"/><path class="cls-2" d="M250.24,290H248a33,33,0,0,1-32.89-32.89V211.69A33,33,0,0,1,248,178.81h2.29a33,33,0,0,1,32.91,32.88v45.38A33,33,0,0,1,250.24,290Z"/><path class="cls-3" d="M162.62,177.05v2.75h-2.46v-2.66a7.73,7.73,0,0,1-5.81-2.33l2.21-2.24a5.55,5.55,0,0,0,3.94,1.48V169.6l-.8-.09a5.93,5.93,0,0,1-3.37-1.47,4.58,4.58,0,0,1-1.27-3.43c0-2.84,1.92-4.93,5.13-5.27V157.1h2.46v2.21a7.23,7.23,0,0,1,4.88,2l-2.16,2.13a4.9,4.9,0,0,0-3.06-1.19v4.3l.94.15a6.18,6.18,0,0,1,3.37,1.38,4.82,4.82,0,0,1,1.33,3.72c0,3-2.21,4.85-5.33,5.24Zm-2.15-14.74a2.21,2.21,0,0,0-2.16,2.18,1.82,1.82,0,0,0,.52,1.25,2.83,2.83,0,0,0,1.64.68Zm3.57,8.11a2.81,2.81,0,0,0-1.76-.62V174c1.48-.14,2.3-.91,2.3-2.13a2,2,0,0,0-.54-1.47Z"/><path class="cls-2" d="M247.75,220.88h0a6.57,6.57,0,0,1-6.55-6.55V202.05a6.57,6.57,0,0,1,6.55-6.52h0a6.56,6.56,0,0,1,6.52,6.52v12.28a6.55,6.55,0,0,1-6.52,6.55Z"/><line class="cls-4" x1="247.75" y1="188.65" x2="247.75" y2="195.19"/><path class="cls-5" d="M162.06,202.85v20.63a21.48,21.48,0,0,0,21.43,21.41h0a21.48,21.48,0,0,0,21.4-21.41v-68a21.48,21.48,0,0,1,21.4-21.43h0a21.49,21.49,0,0,1,21.43,21.43v23"/></g></g></svg>