<svg xmlns="http://www.w3.org/2000/svg" viewBox="0 0 640 640"><defs><style>.cls-1{fill:#eef4ff;}.cls-2,.cls-3{fill:#fff;}.cls-2,.cls-3,.cls-4,.cls-5{stroke:#144496;stroke-miterlimit:10;stroke-width:7px;}.cls-3,.cls-5{stroke-linecap:round;}.cls-4,.cls-5{fill:none;}.cls-6{fill:#144496;}</style></defs><title>Целевая аудитория</title><g id="Слой_2" data-name="Слой 2"><g id="Layer_2" data-name="Layer 2"><circle class="cls-1" cx="320" cy="320" r="320"/><circle class="cls-2" cx="320" cy="320" r="273.5"/><path class="cls-3" d="M101.4,268.2A224.83,224.83,0,0,1,263.7,102.5"/><path class="cls-2" d="M432.8,442.9H201.9a8.71,8.71,0,0,1-8.7-8.7h0c0-63.5,52-115.5,115.5-115.5h17.5c63.5,0,115.5,52,115.5,115.5h0A9.08,9.08,0,0,1,432.8,442.9Z"/><path class="cls-2" d="M317.3,318.7h0a63,63,0,0,1-62.8-62.8V235.6A20.53,20.53,0,0,1,275,215.1l105.1-20.6v61.3A63.06,63.06,0,0,1,317.3,318.7Z"/><path class="cls-2" d="M337.3,239.9H264.8a10.29,10.29,0,0,1-10.3-10.3v-9.7A46,46,0,0,1,300.4,174h69.4a10.29,10.29,0,0,1,10.3,10.3v12.8A43,43,0,0,1,337.3,239.9Z"/><polyline class="cls-4" points="271.9 324.7 317.4 366.3 317.4 366.3 363 324.7"/><line class="cls-5" x1="22.5" y1="324.5" x2="70.3" y2="324.5"/><line class="cls-5" x1="569.6" y1="324.5" x2="617.4" y2="324.5"/><line class="cls-5" x1="319.9" y1="22.4" x2="319.9" y2="70.2"/><line class="cls-5" x1="319.9" y1="569.5" x2="319.9" y2="617.2"/><path class="cls-3" d="M367.6,541.5A224.83,224.83,0,0,0,533.3,379.2"/><ellipse class="cls-6" cx="96.9" cy="290.5" rx="4.1" ry="4.3"/><ellipse class="cls-6" cx="535.7" cy="358.1" rx="4.1" ry="4.3"/></g></g></svg>