<svg xmlns="http://www.w3.org/2000/svg" viewBox="0 0 414.08 414.09"><defs><style>.cls-1{fill:#eef4ff;}.cls-1,.cls-2,.cls-3,.cls-6{fill-rule:evenodd;}.cls-2,.cls-3,.cls-5,.cls-6{fill:#fff;}.cls-2,.cls-3,.cls-4,.cls-5,.cls-6{stroke:#144496;}.cls-2,.cls-3,.cls-4,.cls-6{stroke-miterlimit:10;}.cls-2,.cls-5{stroke-width:4.25px;}.cls-3,.cls-4,.cls-6{stroke-width:4.54px;}.cls-4{fill:none;}.cls-5{stroke-linejoin:round;}.cls-6{stroke-linecap:round;}</style></defs><title>Знаем то, что делаем</title><g id="Слой_2" data-name="Слой 2"><g id="Слой_1-2" data-name="Слой 1"><path class="cls-1" d="M414.08,207c0-114-93-207-207-207S0,93,0,207,93,414.09,207,414.09s207-93,207-207Z"/><path class="cls-2" d="M34.33,82.46H379.76c6.86,0,12.41,6.75,12.41,15.05v195.2c0,8.3-5.55,15.05-12.41,15.05H34.33c-6.86,0-12.42-6.75-12.42-15.05V97.51c0-8.3,5.56-15.05,12.42-15.05Z"/><path class="cls-3" d="M216,331.54h-174A6.55,6.55,0,0,1,35.38,325h0c0-47.88,39.2-87.05,87.05-87.05h13.18c47.88,0,87,39.2,87,87.05h0a6.83,6.83,0,0,1-6.72,6.55Z"/><path class="cls-3" d="M128.92,237.91h0a47.48,47.48,0,0,1-47.34-47.34v-15.3A15.49,15.49,0,0,1,97,159.82l79.23-15.54v46.21a47.55,47.55,0,0,1-47.34,47.42Z"/><path class="cls-3" d="M144,178.53H89.35a7.75,7.75,0,0,1-7.77-7.77v-7.31a34.71,34.71,0,0,1,34.61-34.62h52.33a7.75,7.75,0,0,1,7.77,7.77v9.64A32.39,32.39,0,0,1,144,178.5Z"/><polyline class="cls-4" points="94.68 242.45 128.98 273.8 128.98 273.8 163.36 242.45"/><rect class="cls-5" x="287.83" y="82.46" width="62.19" height="108.06"/><polygon class="cls-6" points="297.18 288.25 290.83 264.7 266.94 269.55 289.28 233.38 319.55 252.06 297.18 288.25"/><polygon class="cls-6" points="341.49 288.65 347.84 265.12 371.74 269.97 349.4 233.77 319.12 252.45 341.49 288.65"/><path class="cls-3" d="M362.64,221.61a43.71,43.71,0,1,0-43.71,43.71,43.81,43.81,0,0,0,43.71-43.71Z"/><path class="cls-3" d="M350,221.61a31.1,31.1,0,1,0-31.09,31.1A31.14,31.14,0,0,0,350,221.61Z"/><line class="cls-4" x1="205.8" y1="235.33" x2="232.78" y2="235.33"/><line class="cls-4" x1="205.8" y1="177.11" x2="287.15" y2="177.11"/><line class="cls-4" x1="205.8" y1="157.69" x2="287.15" y2="157.69"/><line class="cls-4" x1="205.8" y1="138.27" x2="287.15" y2="138.27"/><line class="cls-4" x1="205.8" y1="118.86" x2="287.15" y2="118.86"/><line class="cls-4" x1="205.8" y1="99.44" x2="287.15" y2="99.44"/><line class="cls-4" x1="205.8" y1="214.61" x2="270.96" y2="214.61"/><line class="cls-4" x1="205.8" y1="196.5" x2="232.78" y2="196.5"/></g></g></svg>