<svg xmlns="http://www.w3.org/2000/svg" xmlns:xlink="http://www.w3.org/1999/xlink" viewBox="0 0 449.23 414.09"><defs><style>.cls-1{fill:none;}.cls-2{fill:#eef4ff;fill-rule:evenodd;}.cls-3{fill:#fff;}.cls-4{fill:#144496;}.cls-5{clip-path:url(#clip-path);}</style><clipPath id="clip-path"><path class="cls-1" d="M286.78,231.65c25.34-22.91,51.9-44.59,77.25-67.5l29.28,29.29c-13.24,6.8-27.44,23.69-32.09,32.57-5.13,27.49-18.28,49.06-40,73.61-21-20.78-46.09-44.62-67.07-65.36,11.62,2.91,24.44,3.23,32.63-2.61Z"/></clipPath></defs><title>Сотрудничаем с лидерами</title><g id="Слой_2" data-name="Слой 2"><g id="Слой_1-2" data-name="Слой 1"><path class="cls-2" d="M431.6,207c0-114-93-207-207-207s-207,93-207,207,93,207.05,207,207.05,207-93,207-207Z"/><path class="cls-3" d="M448.44,153.13,359.38,64.06a2.27,2.27,0,0,0-3.18,0L311.67,108.6l-.51.76-.14.85.14.82.51.8,8.05,8-13.81,13.8a27.63,27.63,0,0,1-14.74,7.63,28.59,28.59,0,0,1-16.52-2.1,56.86,56.86,0,0,0-11.74-3.86A60.43,60.43,0,0,0,250.55,134a58.49,58.49,0,0,0-27.89,7.12l-1.73,1-1.9-.48a48.08,48.08,0,0,0-5.24-1,46.91,46.91,0,0,0-5.36-.32A44.35,44.35,0,0,0,193.27,143a29,29,0,0,1-15.76,1.19,27.39,27.39,0,0,1-13.78-7.46l-21.91-21.94,5.75-5.75.48-.68.17-.91-.14-.85-.51-.76L103,61.29a2.38,2.38,0,0,0-1.62-.66,2.25,2.25,0,0,0-1.58.66L.68,160.44a2.27,2.27,0,0,0,0,3.18l44.53,44.56.71.48.88.17.88-.17.71-.48,6.23-6.24,16.53,16.5a27.61,27.61,0,0,1,7.68,14.45,109.83,109.83,0,0,0,10.86,31.24,111.32,111.32,0,0,0,19.64,26.65l6,5.92-3.41,3.57a21.85,21.85,0,0,0-4.36,6.78,21.16,21.16,0,0,0-1.48,7.88A21,21,0,0,0,112.28,330a21,21,0,0,0,6.89,4.62,21.7,21.7,0,0,0,8.19,1.62l6.66-.17-.28,5.47a21.7,21.7,0,0,0,1.39,8.78A20.8,20.8,0,0,0,140,357.7a21.11,21.11,0,0,0,6.91,4.65,21.74,21.74,0,0,0,8.17,1.59l5.78-.06-.11,5.25a21.5,21.5,0,0,0,1.53,8.44,21.46,21.46,0,0,0,11.62,11.77,21.76,21.76,0,0,0,16.33,0,21.92,21.92,0,0,0,6.91-4.65l3.35-3.6,3.14,1.11a18.48,18.48,0,0,0,3.15.82l3.29.28a19.57,19.57,0,0,0,16.44-8.87,19.4,19.4,0,0,0,1.84-3.6l2.81-7.31,6.26,6.26a19.6,19.6,0,0,0,27.7,0,20.61,20.61,0,0,0,2.66-3.29,19.51,19.51,0,0,0,1.87-3.74l2.33-6.29,5.41,3.94a18.81,18.81,0,0,0,5.42,2.77,19.84,19.84,0,0,0,19.95-4.76,19.14,19.14,0,0,0,4.25-6.32,19.46,19.46,0,0,0,1.48-7.51l-.14-2.32-.4-2.33-1.22-5.1,5.16-1.05a19,19,0,0,0,5.33-1.93,19.53,19.53,0,0,0,10.29-17.26,18.88,18.88,0,0,0-3.6-11.34l-2.5-3.49,8.93-8.93A109.58,109.58,0,0,0,361,232.21a24.75,24.75,0,0,1,2.47-7.08,25.45,25.45,0,0,1,4.51-6.13l25.51-25.45,7.43,7.43.68.48.9.17.88-.14.71-.51,44.53-44.54.48-.68.17-.9-.14-.85-.51-.74Z"/><path class="cls-4" d="M398.72,192.47l-82.26-82.26,41.33-41.36,85.89,85.86-41.36,41.36Zm-34.13,23.22a30.24,30.24,0,0,0-5.36,7.25,28.33,28.33,0,0,0-2.86,8.31A105.87,105.87,0,0,1,327,287.52l-9.24,9.24-59.44-59.44c5.33.31,10.74.76,16.07.9a36.33,36.33,0,0,0,6.18-.56,33,33,0,0,0,6.18-1.82,2.12,2.12,0,0,0,1.22-1.22,2.17,2.17,0,0,0,0-1.75,2.36,2.36,0,0,0-1.19-1.22,2.2,2.2,0,0,0-1.76,0c-11.22,4.56-23.13.79-32.51-4.45a88.08,88.08,0,0,1-15.82-11.57c-.28,0-10.32-10.23-11.59-11.51l10.6-10.6a2.24,2.24,0,1,0-3.17-3.17l-40.2,40.16A19.84,19.84,0,0,1,160,224.05a20,20,0,0,1-1.53-7.57,19.43,19.43,0,0,1,1.53-7.57,19.83,19.83,0,0,1,4.31-6.46l48.3-48.3a53.54,53.54,0,0,1,4.71-4.17,49.7,49.7,0,0,1,5.13-3.6,53.6,53.6,0,0,1,28.12-8,55.3,55.3,0,0,1,11.36,1.21,54.42,54.42,0,0,1,10.86,3.58A33,33,0,0,0,292,145.59a32.15,32.15,0,0,0,17.06-8.85l13.8-13.8,67.21,67.21-25.51,25.48ZM318.42,325.11a15.36,15.36,0,0,1-4.88,3.26,15.73,15.73,0,0,1-5.78,1.16,15.1,15.1,0,0,1-10.66-4.42L226,254a2.44,2.44,0,0,0-1.62-.65,2.25,2.25,0,0,0-1.59,3.83l76.65,76.65a14.78,14.78,0,0,1,3.26,4.87,14.92,14.92,0,0,1,0,11.51,14.73,14.73,0,0,1-3.29,4.91,15.08,15.08,0,0,1-21.31,0l-72.65-72.65a2.25,2.25,0,0,0-3.18,3.18l59.64,59.64a15.12,15.12,0,0,1,3.2,4.87,15.43,15.43,0,0,1,1.11,5.67,15.2,15.2,0,0,1-1.13,5.73,14.84,14.84,0,0,1-3.29,4.9,15.26,15.26,0,0,1-10.66,4.43,15.1,15.1,0,0,1-10.66-4.43L175.83,301.8a2.25,2.25,0,0,0-3.17,3.18l47.93,47.93a16,16,0,0,1,3.32,4.91,15.6,15.6,0,0,1,1.16,5.78,15,15,0,0,1-1.16,5.78,15.36,15.36,0,0,1-3.26,4.88A15.14,15.14,0,0,1,210,378.68c-2.64-.2-5-.62-7.68-1l.74-5a22,22,0,0,0-.83-9.86,21.6,21.6,0,0,0-5.18-8.37,21.22,21.22,0,0,0-6.92-4.64,21.49,21.49,0,0,0-8.16-1.59l-5.76.08.11-5.24a22.08,22.08,0,0,0-1.5-8.45,21.83,21.83,0,0,0-4.7-7.09,21.38,21.38,0,0,0-6.92-4.64,21.8,21.8,0,0,0-8.16-1.59l-6.64.14.26-5.44a22,22,0,0,0-1.39-8.76,21.57,21.57,0,0,0-4.85-7.4,20.93,20.93,0,0,0-9.15-5.39,21.64,21.64,0,0,0-10.75-.28l-2.72.62-7.25-7.22A105.34,105.34,0,0,1,93.69,262a106.44,106.44,0,0,1-10.41-30,31.48,31.48,0,0,0-8.9-16.78L57.86,198.68l80.75-80.76,21.94,21.94a31.23,31.23,0,0,0,10.38,6.92,33.42,33.42,0,0,0,12.5,2.41,33,33,0,0,0,11.4-2l3.65-1.13,3.72-.74,15.36-2.38-56.44,56.41a24.24,24.24,0,0,0,0,34.41A23.84,23.84,0,0,0,169,239a24.7,24.7,0,0,0,18.71,0,24.2,24.2,0,0,0,7.85-5.28L222,207.35l8.76,8.79,3,3,84.72,84.73a14.68,14.68,0,0,1,3.26,4.87,14.89,14.89,0,0,1,0,11.57,14.78,14.78,0,0,1-3.26,4.87ZM193.83,381.4a17,17,0,0,1-5.47,3.66,16.43,16.43,0,0,1-12.81,0,16.74,16.74,0,0,1-10.4-15.54,16.71,16.71,0,0,1,4.93-11.87,16.3,16.3,0,0,1,5.47-3.63,17,17,0,0,1,6.41-1.31,16.77,16.77,0,0,1,11.87,28.66Zm-38.86-22a16.55,16.55,0,0,1-6.41-1.31,16.81,16.81,0,0,1,0-31.07,16.45,16.45,0,0,1,12.82,0,17.25,17.25,0,0,1,5.47,3.63A16.86,16.86,0,0,1,155,359.35Zm-39.54-32.6a16.39,16.39,0,0,1-3.66-5.47,17.18,17.18,0,0,1-1.3-6.41,16.81,16.81,0,0,1,10.43-15.53,17,17,0,0,1,6.4-1.31,16.81,16.81,0,1,1-11.87,28.69ZM9,158.34,101.4,66l41.35,41.36c-32.06,31.89-64,64-96,96L5.41,161.94Zm439.4-5.24L359.35,64a2.27,2.27,0,0,0-3.18,0l-44.53,44.54-.51.76-.14.85.14.82.51.8,8.05,8-13.8,13.8a27.63,27.63,0,0,1-14.74,7.63,28.62,28.62,0,0,1-16.53-2.1,56.83,56.83,0,0,0-11.74-3.85A60.42,60.42,0,0,0,250.53,134a58.56,58.56,0,0,0-27.9,7.12l-1.73,1-1.9-.48a47.64,47.64,0,0,0-5.24-1,46.94,46.94,0,0,0-5.36-.31A44,44,0,0,0,193.24,143a29,29,0,0,1-15.76,1.19,27.45,27.45,0,0,1-13.78-7.45l-21.91-21.94,5.75-5.76.49-.68.17-.91-.15-.85-.51-.76L103,61.26a2.38,2.38,0,0,0-1.61-.66,2.26,2.26,0,0,0-1.59.66L.65,160.41a2.27,2.27,0,0,0,0,3.18l44.53,44.56.71.48.88.17.88-.17.71-.48,6.24-6.24,16.52,16.5a27.59,27.59,0,0,1,7.68,14.46A109.87,109.87,0,0,0,89.66,264.1a111.59,111.59,0,0,0,19.64,26.65l6,5.92-3.4,3.58a21.48,21.48,0,0,0-4.26,22.81,21.85,21.85,0,0,0,4.65,6.92,21.09,21.09,0,0,0,6.89,4.62,21.74,21.74,0,0,0,8.19,1.62l6.66-.17-.28,5.47a21.75,21.75,0,0,0,1.39,8.79,21.54,21.54,0,0,0,11.73,12,21.78,21.78,0,0,0,8.17,1.59l5.78-.05-.11,5.24a21.59,21.59,0,0,0,1.53,8.45,21.18,21.18,0,0,0,4.7,7.11,21.41,21.41,0,0,0,6.92,4.65,21.76,21.76,0,0,0,16.33,0,21.92,21.92,0,0,0,6.91-4.65l3.35-3.6,3.15,1.11a17.5,17.5,0,0,0,3.14.82l3.29.28a19.18,19.18,0,0,0,13.86-5.7,19.54,19.54,0,0,0,2.58-3.17,19.1,19.1,0,0,0,1.84-3.6l2.81-7.31,6.26,6.26a19.6,19.6,0,0,0,27.7,0,20.18,20.18,0,0,0,2.66-3.29,19.51,19.51,0,0,0,1.87-3.74l2.33-6.29,5.41,3.94a19,19,0,0,0,5.42,2.78,19.93,19.93,0,0,0,6.09.93,19.59,19.59,0,0,0,13.86-5.7,19.33,19.33,0,0,0,4.26-6.32,19.64,19.64,0,0,0,1.47-7.51l-.14-2.32-.4-2.33-1.22-5.1,5.16-1.05a19,19,0,0,0,5.33-1.93,19.48,19.48,0,0,0,10.29-17.26,18.88,18.88,0,0,0-3.6-11.34l-2.49-3.48,8.92-8.93a109.6,109.6,0,0,0,30.68-58.62,24.38,24.38,0,0,1,2.46-7.09,25.21,25.21,0,0,1,4.51-6.12l25.51-25.46,7.43,7.43.68.48.9.17.88-.14L404,201l44.53-44.53.49-.68.17-.91-.15-.85-.51-.74Z"/><path class="cls-4" d="M44.56,166a2.24,2.24,0,0,0-1.59-.66,2.35,2.35,0,0,0-1.61.66,2.28,2.28,0,0,0-.65,1.61,2.24,2.24,0,0,0,.65,1.59,2.21,2.21,0,0,0,1.58.65,2.18,2.18,0,0,0,1.59-.65,2.31,2.31,0,0,0,.65-1.62,2.21,2.21,0,0,0-.65-1.58Z"/><path class="cls-4" d="M411.28,158.74a2.25,2.25,0,0,0-1.59-.65,2.24,2.24,0,0,0-2.27,2.27,2.25,2.25,0,0,0,2.24,2.24,2.19,2.19,0,0,0,1.59-.66,2.28,2.28,0,0,0,.65-1.61,2.24,2.24,0,0,0-.65-1.59Z"/><g class="cls-5"><rect class="cls-4" x="255.46" y="181.93" width="149.02" height="5.53"/><rect class="cls-4" x="255.46" y="215.4" width="149.02" height="5.53"/><rect class="cls-4" x="255.46" y="232.16" width="149.02" height="5.53"/><rect class="cls-4" x="255.46" y="265.66" width="149.02" height="5.53"/><rect class="cls-4" x="255.46" y="282.42" width="149.02" height="5.53"/><rect class="cls-4" x="255.46" y="198.68" width="149.02" height="5.5"/><rect class="cls-4" x="255.46" y="248.91" width="149.02" height="5.53"/><rect class="cls-4" x="255.46" y="165.17" width="149.02" height="5.53"/></g></g></g></svg>