<svg xmlns="http://www.w3.org/2000/svg" viewBox="0 0 414.08 414.09"><defs><style>.cls-1{fill:#eef4ff;}.cls-1,.cls-2,.cls-3,.cls-6{fill-rule:evenodd;}.cls-2,.cls-6{fill:#fff;}.cls-2,.cls-4,.cls-5,.cls-6,.cls-7,.cls-8,.cls-9{stroke:#144496;}.cls-2,.cls-4,.cls-6,.cls-7,.cls-8{stroke-miterlimit:10;}.cls-2,.cls-4,.cls-5{stroke-width:4.25px;}.cls-3{fill:#144496;}.cls-4,.cls-5,.cls-7,.cls-8,.cls-9{fill:none;}.cls-5,.cls-8,.cls-9{stroke-linecap:round;}.cls-5,.cls-9{stroke-linejoin:round;}.cls-6,.cls-7,.cls-8,.cls-9{stroke-width:4.54px;}</style></defs><title>Личный проект-менеджер</title><g id="Слой_2" data-name="Слой 2"><g id="Слой_1-2" data-name="Слой 1"><path class="cls-1" d="M414.08,207c0-114-93-207-207-207S0,93,0,207,93,414.09,207,414.09s207-93,207-207Z"/><path class="cls-2" d="M349.65,230.63H227.34a4.34,4.34,0,0,1-4.31-4.34V81.84a4.34,4.34,0,0,1,4.31-4.34H349.65A4.34,4.34,0,0,1,354,81.84V226.29a4.34,4.34,0,0,1-4.31,4.34Z"/><path class="cls-2" d="M335.4,214.58H241.6a3.12,3.12,0,0,1-3.12-3.12V97.09A3.1,3.1,0,0,1,241.6,94h93.77a3.08,3.08,0,0,1,3.09,3.09V211.46a3.06,3.06,0,0,1-3.06,3.12Z"/><path class="cls-2" d="M319.07,68.51h-19.5a11.07,11.07,0,1,0-22.14,0H257.92a4.35,4.35,0,0,0-4.33,4.31V97.29a4.34,4.34,0,0,0,4.33,4.33h61.15a4.34,4.34,0,0,0,4.33-4.33V72.82a4.35,4.35,0,0,0-4.33-4.31Z"/><path class="cls-3" d="M291.6,68.12a3,3,0,1,0-3,3,3,3,0,0,0,3-3Z"/><path class="cls-2" d="M266.09,172.77H257a2.72,2.72,0,0,1-2.72-2.69v-9.16a2.72,2.72,0,0,1,2.72-2.69h9.13a2.71,2.71,0,0,1,2.69,2.69v9.16a2.67,2.67,0,0,1-2.69,2.69Z"/><line class="cls-4" x1="278.16" y1="114.21" x2="314.39" y2="114.21"/><line class="cls-4" x1="278.16" y1="124.98" x2="293.19" y2="124.98"/><line class="cls-4" x1="278.16" y1="157.38" x2="323.4" y2="157.38"/><line class="cls-4" x1="278.16" y1="168.15" x2="323.4" y2="168.15"/><line class="cls-4" x1="278.16" y1="178.95" x2="323.4" y2="178.95"/><line class="cls-4" x1="278.16" y1="189.75" x2="323.4" y2="189.75"/><line class="cls-4" x1="278.16" y1="200.55" x2="323.4" y2="200.55"/><path class="cls-2" d="M266.09,200.55H257a2.74,2.74,0,0,1-2.72-2.72v-9.16A2.72,2.72,0,0,1,257,186h9.13a2.71,2.71,0,0,1,2.69,2.69v9.13a2.7,2.7,0,0,1-2.69,2.75Z"/><polyline class="cls-5" points="268.24 116.02 259.43 124.78 254.78 120.13"/><polyline class="cls-5" points="268.24 136.91 259.43 145.64 254.78 141"/><line class="cls-4" x1="278.16" y1="136.52" x2="314.39" y2="136.52"/><line class="cls-4" x1="278.16" y1="146.58" x2="293.19" y2="146.58"/><path class="cls-6" d="M258.38,288.48h-222A8.36,8.36,0,0,1,28,280.12h0C28,219.06,78,169.06,139,169.06h16.84c61.06,0,111.06,50,111.06,111.06h0a8.74,8.74,0,0,1-8.56,8.36Z"/><path class="cls-6" d="M147.29,169.06h0a60.59,60.59,0,0,1-60.41-60.41V89.12a19.73,19.73,0,0,1,19.7-19.7L207.67,49.61v59a60.64,60.64,0,0,1-60.41,60.49Z"/><path class="cls-6" d="M166.54,93.26H96.8a9.88,9.88,0,0,1-9.89-9.89V74a44.25,44.25,0,0,1,44.14-44.13h66.72a9.89,9.89,0,0,1,9.9,9.89V52.1a41.34,41.34,0,0,1-41.16,41.16Z"/><polyline class="cls-7" points="103.64 174.81 147.4 214.84 147.4 214.84 191.25 174.81"/><path class="cls-6" d="M147.69,266h20.89l11.19-20.43a2.38,2.38,0,0,1,4.2.05L194.43,266H322.61a10.49,10.49,0,0,1,10.46,10.46v92.16a10.49,10.49,0,0,1-10.46,10.46H147.74a10.49,10.49,0,0,1-10.46-10.46V276.38A10.36,10.36,0,0,1,147.69,266Z"/><line class="cls-8" x1="169.54" y1="343.39" x2="225.61" y2="343.39"/><line class="cls-9" x1="169.54" y1="322.5" x2="305.32" y2="322.5"/><line class="cls-9" x1="169.54" y1="301.63" x2="238.59" y2="301.63"/><line class="cls-8" x1="240.43" y1="343.39" x2="240.49" y2="343.39"/></g></g></svg>