<svg xmlns="http://www.w3.org/2000/svg" xmlns:xlink="http://www.w3.org/1999/xlink" viewBox="0 0 449.09 414.11"><defs><style>.cls-1{fill:none;clip-rule:evenodd;}.cls-2{fill:#eef4ff;fill-rule:evenodd;}.cls-3{fill:#fff;}.cls-4{fill:#144496;}.cls-5{clip-path:url(#clip-path);}</style><clipPath id="clip-path"><path class="cls-1" d="M286.78,231.68c25.34-22.91,51.88-44.59,77.25-67.5l29.25,29.28c-13.21,6.81-27.44,23.7-32.09,32.57-5.13,27.5-18.25,49.07-40,73.65-21-20.78-46.09-44.62-67.07-65.37,11.6,2.89,24.44,3.23,32.63-2.63Z"/></clipPath></defs><title>Наладить контакт</title><g id="Слой_2" data-name="Слой 2"><g id="Слой_1-2" data-name="Слой 1"><path class="cls-2" d="M224.53,414.11c114,0,207.07-93,207.07-207.07S338.57,0,224.53,0s-207,93-207,207,93,207.07,207,207.07Z"/><path class="cls-3" d="M448.44,153.16,359.38,64.09a2.31,2.31,0,0,0-3.21,0l-44.53,44.53-.51.77-.14.82.14.82.51.8,8.05,8-13.83,13.8a27.53,27.53,0,0,1-14.74,7.63,28.52,28.52,0,0,1-16.5-2.1,56.83,56.83,0,0,0-11.74-3.85,57.74,57.74,0,0,0-26.75.48,56.93,56.93,0,0,0-13.5,5.3l-1.73.93-1.92-.48a49.43,49.43,0,0,0-5.25-.93,40.91,40.91,0,0,0-5.36-.34,45.41,45.41,0,0,0-7.68.68,42.83,42.83,0,0,0-7.48,2,28.94,28.94,0,0,1-15.76,1.19,27.45,27.45,0,0,1-13.78-7.45l-21.91-21.94,5.78-5.76.49-.71.17-.9-.15-.83-.51-.76L103,61.26a2.38,2.38,0,0,0-1.61-.66,2.26,2.26,0,0,0-1.59.66L.65,160.41a2.27,2.27,0,0,0,0,3.18l44.53,44.56.71.48.88.14.88-.14.74-.51,6.23-6.21,16.53,16.5a26.89,26.89,0,0,1,4.93,6.66,27.59,27.59,0,0,1,2.72,7.8,110.13,110.13,0,0,0,30.48,57.88l6,5.95-3.43,3.57a21.79,21.79,0,0,0-4.34,6.78,21.66,21.66,0,0,0,.08,16,21.31,21.31,0,0,0,19.73,13.16l6.67-.17-.29,5.44a21.72,21.72,0,0,0,1.42,8.79,21.35,21.35,0,0,0,11.71,12,21.69,21.69,0,0,0,8.16,1.59l5.78-.05-.11,5.24a21.06,21.06,0,0,0,1.53,8.45,20.24,20.24,0,0,0,4.71,7.08,20.54,20.54,0,0,0,6.88,4.65,21.3,21.3,0,0,0,8.17,1.62,21.57,21.57,0,0,0,8.16-1.59,20.93,20.93,0,0,0,6.92-4.68l3.34-3.6,3.15,1.14a20.56,20.56,0,0,0,3.15.82l3.28.25a20.29,20.29,0,0,0,7.52-1.44,19.92,19.92,0,0,0,6.32-4.28,20.16,20.16,0,0,0,2.58-3.18,19.71,19.71,0,0,0,1.84-3.6l2.81-7.31,6.29,6.26a19.37,19.37,0,0,0,6.29,4.26,19.67,19.67,0,0,0,7.54,1.47A19.38,19.38,0,0,0,265,369.69a18,18,0,0,0,2.67-3.26,20.1,20.1,0,0,0,1.87-3.74l2.32-6.29,5.42,3.91a18.8,18.8,0,0,0,11.51,3.74,19.5,19.5,0,0,0,18.11-12,19.5,19.5,0,0,0,1.47-7.52l-.14-2.32-.39-2.32-1.22-5.11,5.13-1.05a19.32,19.32,0,0,0,9.89-5.32,19.15,19.15,0,0,0,5.73-13.87,20.52,20.52,0,0,0-.88-5.95,20.18,20.18,0,0,0-2.72-5.38l-2.5-3.49,8.93-8.93a111.43,111.43,0,0,0,19.84-27,110.2,110.2,0,0,0,10.8-31.66,24.7,24.7,0,0,1,2.47-7.09,25.13,25.13,0,0,1,4.54-6.12l25.48-25.46,7.43,7.43.68.45.9.2.88-.14.71-.51,44.56-44.56.48-.68.17-.91-.14-.82Z"/><path class="cls-4" d="M398.69,192.5l-82.26-82.26,41.33-41.36,85.92,85.86L402.29,196.1Zm-34.1,23.24a31,31,0,0,0-5.38,7.23,28.65,28.65,0,0,0-2.87,8.31A105.72,105.72,0,0,1,327,287.55l-9.21,9.24-59.45-59.42c5.33.29,10.75.77,16.08.88a35,35,0,0,0,6.17-.56,33,33,0,0,0,6.18-1.82,2.37,2.37,0,0,0,1.25-1.22,2.33,2.33,0,0,0,0-1.76,2.38,2.38,0,0,0-1.19-1.21,2.2,2.2,0,0,0-1.76,0c-11.25,4.56-23.13.79-32.54-4.45a88.08,88.08,0,0,1-15.79-11.57c-.31,0-10.34-10.23-11.62-11.48l10.63-10.63a2.21,2.21,0,0,0,.65-1.59,2.28,2.28,0,0,0-.65-1.59,2.36,2.36,0,0,0-1.61-.65,2.29,2.29,0,0,0-1.59.65l-40.17,40.17a19.81,19.81,0,0,1-28.06,0,20.07,20.07,0,0,1-4.28-6.46,19.84,19.84,0,0,1,4.28-21.57l48.3-48.31a52.87,52.87,0,0,1,4.71-4.16,48.55,48.55,0,0,1,5.13-3.63,55.29,55.29,0,0,1,13.46-5.93,54.63,54.63,0,0,1,14.66-2,54.08,54.08,0,0,1,22.19,4.79A32.8,32.8,0,0,0,292,145.67a31.85,31.85,0,0,0,17.06-8.84L322.87,123l67.21,67.24Zm-46.2,109.42a14.91,14.91,0,0,1-4.85,3.26,15.77,15.77,0,0,1-5.78,1.16,15.34,15.34,0,0,1-5.79-1.16,14.56,14.56,0,0,1-4.87-3.29L226,254a2.42,2.42,0,0,0-1.62-.65,2.24,2.24,0,0,0-1.58,3.83l76.65,76.65a15.07,15.07,0,1,1-21.32,21.31L205.43,282.5a2.27,2.27,0,0,0-3.18,0,2.2,2.2,0,0,0,0,3.18l59.61,59.64a15.21,15.21,0,0,1,3.21,4.87,15.05,15.05,0,0,1,1.13,5.67,15.88,15.88,0,0,1-1.13,5.76,16.17,16.17,0,0,1-3.29,4.9,15.06,15.06,0,0,1-21.32,0L175.8,301.86a2.29,2.29,0,0,0-1.58-.65,2.27,2.27,0,0,0-2.27,2.24,2.38,2.38,0,0,0,.68,1.61L220.54,353a15.11,15.11,0,0,1,3.31,4.9,15.78,15.78,0,0,1,1.16,5.79,14.73,14.73,0,0,1-1.16,5.78,14.92,14.92,0,0,1-8.16,8.13,14.64,14.64,0,0,1-5.76,1.17c-2.63-.2-5-.6-7.68-1l.77-5a22,22,0,0,0-.82-9.87A21.66,21.66,0,0,0,197,354.5a21.31,21.31,0,0,0-6.92-4.65,21.57,21.57,0,0,0-8.16-1.59l-5.76.09.12-5.27a21.89,21.89,0,0,0-1.53-8.45,21.59,21.59,0,0,0-11.63-11.74,21.57,21.57,0,0,0-8.16-1.58l-6.63.14.25-5.44a22,22,0,0,0-1.39-8.76,21.47,21.47,0,0,0-14-12.79,22,22,0,0,0-10.74-.28l-2.73.62-7.25-7.23A105.77,105.77,0,0,1,83.25,232,31.42,31.42,0,0,0,80.08,223a32.08,32.08,0,0,0-5.73-7.74L57.83,198.71,138.56,118l21.94,21.91a31.19,31.19,0,0,0,10.37,6.92,33.31,33.31,0,0,0,12.5,2.41,36.34,36.34,0,0,0,5.81-.48,33.17,33.17,0,0,0,5.59-1.51l3.66-1.13,3.71-.77,15.36-2.38-56.41,56.41a24.24,24.24,0,0,0,0,34.41,23.94,23.94,0,0,0,7.85,5.28,24.7,24.7,0,0,0,18.71,0,23.87,23.87,0,0,0,7.86-5.28l26.39-26.39,8.78,8.79,3,3,84.73,84.73a15.7,15.7,0,0,1,3.26,4.84,16,16,0,0,1,1.16,5.81,15,15,0,0,1-4.45,10.66Zm-124.56,56.3a16.81,16.81,0,1,1-23.78-23.76,16.81,16.81,0,0,1,23.78,23.76Zm-38.86-22a17.09,17.09,0,0,1-11.88-4.93,16.78,16.78,0,0,1,0-23.73,16.27,16.27,0,0,1,5.5-3.68,16.45,16.45,0,0,1,12.82,0,16.76,16.76,0,0,1,5.5,27.35,16.15,16.15,0,0,1-5.5,3.69,16.73,16.73,0,0,1-6.41,1.3Zm-39.54-32.6a16.49,16.49,0,0,1-3.66-5.47,17.11,17.11,0,0,1-1.28-6.4,16.93,16.93,0,0,1,1.28-6.47,17.21,17.21,0,0,1,3.66-5.44,16.45,16.45,0,0,1,5.47-3.63,16.82,16.82,0,1,1-5.47,27.41ZM9,158.4,101.4,66.05l41.35,41.35q-48.09,47.83-96,96L5.44,162Zm439.43-5.24L359.38,64.09a2.31,2.31,0,0,0-3.21,0l-44.53,44.53-.51.77-.14.82.14.82.51.8,8.05,8-13.83,13.8a27.53,27.53,0,0,1-14.74,7.63,28.52,28.52,0,0,1-16.5-2.1,56.83,56.83,0,0,0-11.74-3.85,57.74,57.74,0,0,0-26.75.48,56.93,56.93,0,0,0-13.5,5.3l-1.73.93-1.92-.48a49.43,49.43,0,0,0-5.25-.93,40.91,40.91,0,0,0-5.36-.34,45.41,45.41,0,0,0-7.68.68,42.83,42.83,0,0,0-7.48,2,28.94,28.94,0,0,1-15.76,1.19,27.45,27.45,0,0,1-13.78-7.45l-21.91-21.94,5.78-5.76.49-.71.17-.9-.15-.83-.51-.76L103,61.26a2.38,2.38,0,0,0-1.61-.66,2.26,2.26,0,0,0-1.59.66L.65,160.41a2.27,2.27,0,0,0,0,3.18l44.53,44.56.71.48.88.14.88-.14.74-.51,6.23-6.21,16.53,16.5a26.89,26.89,0,0,1,4.93,6.66,27.59,27.59,0,0,1,2.72,7.8,110.13,110.13,0,0,0,30.48,57.88l6,5.95-3.43,3.57a21.79,21.79,0,0,0-4.34,6.78,21.66,21.66,0,0,0,.08,16,21.31,21.31,0,0,0,19.73,13.16l6.67-.17-.29,5.44a21.72,21.72,0,0,0,1.42,8.79,21.35,21.35,0,0,0,11.71,12,21.69,21.69,0,0,0,8.16,1.59l5.78-.05-.11,5.24a21.06,21.06,0,0,0,1.53,8.45,20.24,20.24,0,0,0,4.71,7.08,20.54,20.54,0,0,0,6.88,4.65,21.3,21.3,0,0,0,8.17,1.62,21.57,21.57,0,0,0,8.16-1.59,20.93,20.93,0,0,0,6.92-4.68l3.34-3.6,3.15,1.14a20.56,20.56,0,0,0,3.15.82l3.28.25a20.29,20.29,0,0,0,7.52-1.44,19.92,19.92,0,0,0,6.32-4.28,20.16,20.16,0,0,0,2.58-3.18,19.71,19.71,0,0,0,1.84-3.6l2.81-7.31,6.29,6.26a19.37,19.37,0,0,0,6.29,4.26,19.67,19.67,0,0,0,7.54,1.47A19.38,19.38,0,0,0,265,369.69a18,18,0,0,0,2.67-3.26,20.1,20.1,0,0,0,1.87-3.74l2.32-6.29,5.42,3.91a18.8,18.8,0,0,0,11.51,3.74,19.5,19.5,0,0,0,18.11-12,19.5,19.5,0,0,0,1.47-7.52l-.14-2.32-.39-2.32-1.22-5.11,5.13-1.05a19.32,19.32,0,0,0,9.89-5.32,19.15,19.15,0,0,0,5.73-13.87,20.52,20.52,0,0,0-.88-5.95,20.18,20.18,0,0,0-2.72-5.38l-2.5-3.49,8.93-8.93a111.43,111.43,0,0,0,19.84-27,110.2,110.2,0,0,0,10.8-31.66,24.7,24.7,0,0,1,2.47-7.09,25.13,25.13,0,0,1,4.54-6.12l25.48-25.46,7.43,7.43.68.45.9.2.88-.14.71-.51,44.56-44.56.48-.68.17-.91-.14-.82Z"/><path class="cls-4" d="M44.56,166a2.3,2.3,0,0,0-1.59-.66,2.4,2.4,0,0,0-1.61.63,2.28,2.28,0,0,0-.65,1.61,2.37,2.37,0,0,0,.65,1.59,2.33,2.33,0,0,0,3.2,0,2.31,2.31,0,0,0,.65-1.62,2.21,2.21,0,0,0-.65-1.58Z"/><path class="cls-4" d="M411.28,158.77a2.25,2.25,0,0,0-1.59-.65,2.28,2.28,0,0,0-1.61.65,2.22,2.22,0,0,0-.63,1.59,2.33,2.33,0,0,0,.63,1.58,2.36,2.36,0,0,0,1.61.68,2.25,2.25,0,0,0,1.59-.65,2.3,2.3,0,0,0,.65-1.61,2.24,2.24,0,0,0-.65-1.59Z"/><g class="cls-5"><rect class="cls-4" x="255.43" y="181.96" width="149.02" height="5.5"/><rect class="cls-4" x="255.43" y="215.43" width="149.02" height="5.53"/><rect class="cls-4" x="255.43" y="232.19" width="149.02" height="5.53"/><rect class="cls-4" x="255.43" y="265.69" width="149.02" height="5.53"/><rect class="cls-4" x="255.43" y="282.44" width="149.02" height="5.53"/><rect class="cls-4" x="255.43" y="198.68" width="149.02" height="5.53"/><rect class="cls-4" x="255.43" y="248.94" width="149.02" height="5.53"/><rect class="cls-4" x="255.43" y="165.2" width="149.02" height="5.53"/></g></g></g></svg>