<?xml version="1.0" encoding="utf-8"?>
<!-- Generator: Adobe Illustrator 22.1.0, SVG Export Plug-In . SVG Version: 6.00 Build 0)  -->
<svg version="1.1" id="Слой_1" xmlns="http://www.w3.org/2000/svg" xmlns:xlink="http://www.w3.org/1999/xlink" x="0px" y="0px"
	 viewBox="0 0 414 414.1" style="enable-background:new 0 0 414 414.1;" xml:space="preserve">
<style type="text/css">
	.st0{fill:#EEF4FF;}
	.st1{fill:#FFFFFF;}
	.st2{fill:#144496;}
	.st3{clip-path:url(#SVGID_2_);}
</style>
<title>Повысить лояльность</title>
<g id="Слой_2_1_">
	<g id="Слой_1-2">
		<path class="st0" d="M207,414.1c114,0,207-93,207-207.1S321,0,207,0S0,93,0,207S93,414.1,207,414.1L207,414.1z"/>
		<path class="st1" d="M103.8,382.8l0.9,0.6l1.1,0.2l1.1-0.2l0.9-0.6l23.4-23.4c3.2-3.2,5.7-7.1,7.3-11.4c1.5-4.3,2.1-8.8,1.6-13.4
			l-0.2-2.3l10.1-9.7c7.5-7.3,17.6-11.3,28-11.3h100.3c16.6,0.1,32.5-6.4,44.4-18l68.6-82.3c9.1-10.9,7.8-27.1-3-36.3l-0.3-0.3
			c-10.8-8.8-26.6-7.4-35.7,3.1c-5,5.5-10.6,11-15.8,16.4V33.3c0-0.8-0.3-1.5-0.8-2c-0.5-0.5-1.3-0.8-2-0.8H137.6
			c-0.7,0-1.5,0.3-2,0.8c-0.5,0.5-0.8,1.2-0.8,2V208l-3.8,0.8c-13.5,2.7-26.2,8.6-37.1,17c-10.7,8.4-19.3,19.3-25.1,31.6l-1.4,2.9
			l-3.2-0.2c-8.7-0.4-17.1,2.8-23.2,9l-23.5,23.4l-0.6,0.9l-0.2,1.1l0.2,1.1l0.6,0.9L103.8,382.8z"/>
		<path class="st2" d="M184.1,263.5c0.5-0.5,0.8-1.3,0.8-2c0-0.7-0.3-1.5-0.8-2c-1.1-1.1-2.9-1.1-4,0c-0.5,0.5-0.8,1.3-0.8,2
			c0,0.7,0.3,1.5,0.8,2C181.2,264.5,182.9,264.5,184.1,263.5z M103.8,382.8l0.9,0.6l1.1,0.2l1.1-0.2l0.9-0.6l23.4-23.4
			c3.2-3.2,5.7-7.1,7.3-11.4c1.5-4.3,2.1-8.8,1.6-13.4l-0.2-2.3l10.1-9.7c7.5-7.3,17.6-11.3,28-11.3h100.3
			c16.6,0.1,32.5-6.4,44.4-18l68.6-82.3c9.1-10.9,7.8-27.1-3-36.3l-0.3-0.3c-10.8-8.8-26.6-7.4-35.7,3.1c-5,5.5-10.6,11-15.8,16.4
			V33.3c0-0.8-0.3-1.5-0.8-2c-0.5-0.5-1.3-0.8-2-0.8H137.6c-0.7,0-1.5,0.3-2,0.8c-0.5,0.5-0.8,1.2-0.8,2V208l-3.8,0.8
			c-13.5,2.7-26.2,8.6-37.1,17c-10.7,8.4-19.3,19.3-25.1,31.6l-1.4,2.9l-3.2-0.2c-8.7-0.4-17.1,2.8-23.2,9l-23.5,23.4l-0.6,0.9
			l-0.2,1.1l0.2,1.1l0.6,0.9L103.8,382.8z M330.7,41v158.8l-27.2,28.1l-3.4-4.2c-4.9-6-12.2-9.5-20-9.5c-15.8,0-81.5,2.9-91.7-0.7
			c-5.6-2.3-11.5-4-17.4-5.2c-6-1.2-12.1-1.7-18.1-1.7c-4.2,0.1-8.3,0.3-12.4,0.5v-171h190.3V41z M138.1,213.3
			c8.2-1.2,16.6-1.4,24.9-0.5c8,0.9,15.9,2.9,23.4,5.9l2.8,0.8l2.8,0.3h88.4c11.1,0,20.1,9,20.1,20.1c0,11.1-9,20.1-20.1,20.1h-66.3
			c-1.5,0.1-2.7,1.4-2.6,3c0.1,1.4,1.2,2.6,2.6,2.6h66.3c14.2,0,25.7-11.4,25.7-25.6c0,0,0-0.1,0-0.1c-0.1-2-0.3-3.8-0.5-5.7
			c16.7-17.4,35-35,51-52.8c3.5-4,8.4-6.5,13.6-6.9c11-1,20.7,7.1,21.7,18.1c0.5,5.4-1.2,10.7-4.7,14.8l-68.4,82.1
			c-10.8,10.4-25.2,16.2-40.3,16.2H177.9c-5.9,0-11.7,1.1-17.2,3.3c-5.5,2.2-10.5,5.4-14.7,9.6l-7.5,7.3l-5.1-7.5l-2.2-2.4
			l-46.8-46.8c-1.1-1.1-2.2-2.1-3.4-3c-1.2-0.9-2.5-1.7-3.8-2.4l-4.1-2.2l2.1-4.2c5.9-11.9,14.7-22.1,25.5-29.7
			C111.8,220,124.6,215.1,138.1,213.3z M45,273.1c9.7-9.8,25.6-9.8,35.4-0.1c0,0,0,0,0.1,0.1l46.8,46.9c9.7,9.8,9.7,25.6,0,35.4
			l-21.4,21.4l-82.3-82.3L45,273.1z M195,87.4v15.3c0,22.6,18.3,40.9,40.9,40.9c22.6,0,40.9-18.3,40.9-40.9V82.6h4.8
			c0.8,0,1.5-0.3,2-0.8c0.5-0.5,0.8-1.2,0.8-2c0-1.5-1.2-2.8-2.7-2.8c0,0-0.1,0-0.1,0h-15.2c-1.5,0-2.8,1.2-2.8,2.8c0,0,0,0,0,0
			c0,0.8,0.3,1.5,0.8,2c0.5,0.5,1.3,0.8,2,0.8h4.8v20.1c-0.3,19.5-16.4,35-35.9,34.7c-19-0.3-34.4-15.7-34.7-34.7V82.6h4.8
			c1.6,0,2.8-1.3,2.8-2.8c0-0.7-0.3-1.5-0.8-2c-0.5-0.5-1.2-0.8-2-0.8h-15.2c-0.7,0-1.5,0.3-2,0.8c-1.1,1.1-1.1,2.9,0,4
			c0.5,0.5,1.3,0.8,2,0.8h4.8V87.4z"/>
		<g>
			<defs>
				<path id="SVGID_1_" d="M19.2,294.4c29.2,28.7,58.5,57.3,87.7,86c8.3-8.6,16.7-17.2,25-25.8c9.6-10.9,9.7-22.4-0.6-34.7
					l-52.2-51.3c-10.8-8.5-22-8.8-33.5,0.2C36.8,277.4,28,285.9,19.2,294.4z"/>
			</defs>
			<clipPath id="SVGID_2_">
				<use xlink:href="#SVGID_1_"  style="overflow:visible;"/>
			</clipPath>
			<g class="st3">
				<rect x="-35" y="291.1" class="st2" width="226.1" height="5.5"/>
				<rect x="-35" y="324.6" class="st2" width="226.1" height="5.5"/>
				<rect x="-35" y="341.4" class="st2" width="226.1" height="5.5"/>
				<rect x="-35" y="374.8" class="st2" width="226.1" height="5.5"/>
				<rect x="-35" y="391.6" class="st2" width="226.1" height="5.5"/>
				<rect x="-35" y="307.8" class="st2" width="226.1" height="5.5"/>
				<rect x="-35" y="358.1" class="st2" width="226.1" height="5.5"/>
				<rect x="-35" y="274.3" class="st2" width="226.1" height="5.5"/>
				<rect x="-35" y="424.9" class="st2" width="226.1" height="5.5"/>
				<rect x="-35" y="458.4" class="st2" width="226.1" height="5.5"/>
				<rect x="-35" y="475.1" class="st2" width="226.1" height="5.5"/>
				<rect x="-35" y="508.6" class="st2" width="226.1" height="5.5"/>
				<rect x="-35" y="525.3" class="st2" width="226.1" height="5.5"/>
				<rect x="-35" y="441.6" class="st2" width="226.1" height="5.5"/>
				<rect x="-35" y="491.8" class="st2" width="226.1" height="5.5"/>
				<rect x="-35" y="408.1" class="st2" width="226.1" height="5.5"/>
			</g>
		</g>
	</g>
</g>
</svg>
