<svg xmlns="http://www.w3.org/2000/svg" viewBox="0 0 414.11 414.11"><defs><style>.cls-1{fill:#eef4ff;}.cls-1,.cls-4,.cls-6{fill-rule:evenodd;}.cls-2,.cls-4{fill:#fff;}.cls-3,.cls-6{fill:#144496;}.cls-5{fill:#4e73b1;}</style></defs><title>Создать спрос</title><g id="Слой_2" data-name="Слой 2"><g id="Слой_1-2" data-name="Слой 1"><path class="cls-1" d="M207,414.11c114.07,0,207.07-93,207.07-207.07S321.11,0,207,0,0,93,0,207,93,414.11,207,414.11Z"/><path class="cls-2" d="M347.5,167.07H264.39a9.83,9.83,0,0,0-9.81,9.84v17a9.56,9.56,0,0,0,2.07,6l1.64,2.1-1.64,2.07a9.29,9.29,0,0,0-1.53,2.8,9.4,9.4,0,0,0-.54,3.23c0,12.22-1,14.77,1.93,25.32-12.79-3.55-24.58-2-38.07-2a1.69,1.69,0,0,0-1.7,1.7,1.78,1.78,0,0,0,.48,1.22,1.72,1.72,0,0,0,1.22.51h29.7a6.44,6.44,0,0,1,6.44,6.41v16.95a6.49,6.49,0,0,1-6.44,6.41H165.06a6.42,6.42,0,0,1-4.53-1.9,6.51,6.51,0,0,1-1.87-4.51V243.3a6.38,6.38,0,0,1,6.4-6.41h29.71a1.72,1.72,0,0,0,1.22-.51,1.75,1.75,0,0,0,0-2.41,1.72,1.72,0,0,0-1.22-.51H165.06a9.77,9.77,0,0,0-9.83,9.84v16.95a10.37,10.37,0,0,0,.51,3.17,9.94,9.94,0,0,0,1.58,2.87l1.62,2.07-1.62,2.07a9.38,9.38,0,0,0-1.56,2.86,9.85,9.85,0,0,0-.53,3.2v16.92c.19,2.92,1.19,5.56,2,8.37a77.37,77.37,0,0,0-9.72-1.93H66.93c-3.26,0-5.73.42-8.17,2.86a9.82,9.82,0,0,0-2.86,7v16.95a9.54,9.54,0,0,0,.51,3.17A10.2,10.2,0,0,0,58,332.65l1.64,2.09L58,336.81a10.31,10.31,0,0,0-1.56,2.84,9.85,9.85,0,0,0-.51,3.2V359.8a9.77,9.77,0,0,0,9.81,9.81h83.11a9.54,9.54,0,0,0,3.17-.51,10.22,10.22,0,0,0,2.87-1.59L157,365.9l2.07,1.64a9.74,9.74,0,0,0,2.87,1.56,9.54,9.54,0,0,0,3.17.51h83.08a9.86,9.86,0,0,0,3.21-.51,9.53,9.53,0,0,0,2.83-1.56l2.1-1.64,2.07,1.64a10.42,10.42,0,0,0,2.86,1.56,9.72,9.72,0,0,0,3.18.51H347.5a9.78,9.78,0,0,0,9.81-9.81V342.85a9.54,9.54,0,0,0-.51-3.17,10.06,10.06,0,0,0-1.56-2.87l-1.62-2.07,1.62-2.09a10.45,10.45,0,0,0,1.56-2.84,9.85,9.85,0,0,0,.51-3.2V309.66a9.72,9.72,0,0,0-.51-3.18,10.42,10.42,0,0,0-1.56-2.86l-1.62-2.07,1.62-2.07a10.42,10.42,0,0,0,1.56-2.86,9.86,9.86,0,0,0,.51-3.21V276.49a9.85,9.85,0,0,0-.51-3.2,10.87,10.87,0,0,0-1.56-2.86l-1.65-2.07,1.65-2.07a10.13,10.13,0,0,0,1.56-2.87,9.8,9.8,0,0,0,.51-3.17V243.3a9.91,9.91,0,0,0-.51-3.21,11.06,11.06,0,0,0-1.59-2.86l-1.62-2.07,1.65-2.07a9.68,9.68,0,0,0,1.56-2.86,9.54,9.54,0,0,0,.51-3.17v-17a9.54,9.54,0,0,0-.51-3.17,10.76,10.76,0,0,0-1.59-2.89l-1.62-2,1.65-2.1a9.56,9.56,0,0,0,2.07-6v-17a9.85,9.85,0,0,0-9.81-9.84Z"/><path class="cls-3" d="M65.45,278.39l.65-.11.54-.34L227.11,117.47v17.6a1.83,1.83,0,0,0,.48,1.22,1.85,1.85,0,0,0,1.22.48,1.64,1.64,0,0,0,1.7-1.7V113.41a1.78,1.78,0,0,0-.48-1.19,1.72,1.72,0,0,0-1.22-.51H207.16a1.72,1.72,0,0,0,0,3.43h17.43L64.23,275.47a1.74,1.74,0,0,0-.51,1.22,1.78,1.78,0,0,0,.51,1.22l.54.37Z"/><path class="cls-4" d="M164.41,234.77h84.93A6.64,6.64,0,0,1,256,241.4v20.32a6.65,6.65,0,0,1-6.63,6.64H164.41a6.64,6.64,0,0,1-6.61-6.64V241.4a6.63,6.63,0,0,1,6.61-6.63Z"/><path class="cls-3" d="M353.91,359.8a6.42,6.42,0,0,1-1.88,4.48,6.52,6.52,0,0,1-4.53,1.93H264.39A6.49,6.49,0,0,1,258,359.8V342.85a6.45,6.45,0,0,1,6.41-6.41H347.5a6.45,6.45,0,0,1,6.41,6.41Zm-105.77,6.41H165.06a6.42,6.42,0,0,1-4.53-1.9,6.49,6.49,0,0,1-1.87-4.51V342.85a6.4,6.4,0,0,1,6.4-6.41h83.08a6.57,6.57,0,0,1,4.54,1.88,6.66,6.66,0,0,1,1.9,4.53V359.8a6.46,6.46,0,0,1-1.87,4.48,6.58,6.58,0,0,1-4.57,1.93Zm-99.32,0H65.71a6.49,6.49,0,0,1-6.41-6.41V342.85a6.45,6.45,0,0,1,6.41-6.41h83.11a6.51,6.51,0,0,1,6.41,6.41V359.8a6.49,6.49,0,0,1-6.41,6.41ZM59.3,309.66a6.49,6.49,0,0,1,6.41-6.41h83.11a6.49,6.49,0,0,1,6.41,6.41v16.95a6.44,6.44,0,0,1-6.41,6.4H65.71a6.49,6.49,0,0,1-6.41-6.4Zm188.84-39.6a6.46,6.46,0,0,1,4.54,1.9,6.55,6.55,0,0,1,1.9,4.53v16.92a6.49,6.49,0,0,1-6.44,6.44H165.06a6.42,6.42,0,0,1-4.53-1.9,6.5,6.5,0,0,1-1.87-4.54V276.49a6.48,6.48,0,0,1,1.87-4.53,6.38,6.38,0,0,1,4.53-1.9Zm-89.48,56.55V309.66a6.49,6.49,0,0,1,1.87-4.51,6.42,6.42,0,0,1,4.53-1.9h83.08a6.49,6.49,0,0,1,6.44,6.41v16.95a6.51,6.51,0,0,1-1.87,4.5,6.64,6.64,0,0,1-4.57,1.9H165.06a6.38,6.38,0,0,1-6.4-6.4Zm195.25-16.95v16.95a6.47,6.47,0,0,1-1.88,4.5,6.58,6.58,0,0,1-4.53,1.9H264.39a6.49,6.49,0,0,1-6.41-6.4V309.66a6.49,6.49,0,0,1,6.41-6.41H347.5a6.49,6.49,0,0,1,6.41,6.41Zm0-33.17v16.92a6.51,6.51,0,0,1-6.41,6.44H264.39a6.54,6.54,0,0,1-6.41-6.44V276.49a6.49,6.49,0,0,1,6.41-6.43H347.5a6.49,6.49,0,0,1,6.41,6.43Zm0-33.19v16.95a6.51,6.51,0,0,1-6.41,6.41H264.39a6.51,6.51,0,0,1-6.41-6.41V243.3a6.48,6.48,0,0,1,1.87-4.51,6.55,6.55,0,0,1,4.54-1.9H347.5a6.44,6.44,0,0,1,6.41,6.41Zm0-33.2v17a6.49,6.49,0,0,1-1.88,4.5,6.62,6.62,0,0,1-4.53,1.9H264.39a6.49,6.49,0,0,1-6.41-6.4v-17a6.49,6.49,0,0,1,6.41-6.4H347.5a6.4,6.4,0,0,1,4.51,1.9,6.32,6.32,0,0,1,1.9,4.5ZM258,176.91a6.49,6.49,0,0,1,6.41-6.41H347.5a6.49,6.49,0,0,1,6.41,6.41v17a6.34,6.34,0,0,1-1.9,4.51,6.45,6.45,0,0,1-4.51,1.9H264.39a6.43,6.43,0,0,1-4.51-1.9,6.34,6.34,0,0,1-1.9-4.51Zm89.52-9.84H264.39a9.83,9.83,0,0,0-9.81,9.84v17a9.56,9.56,0,0,0,2.07,6l1.64,2.1-1.64,2.07a9.29,9.29,0,0,0-1.53,2.8,9.4,9.4,0,0,0-.54,3.23c0,12.22-1,14.77,1.93,25.32-12.79-3.55-24.58-2-38.07-2a1.69,1.69,0,0,0-1.7,1.7,1.78,1.78,0,0,0,.48,1.22,1.72,1.72,0,0,0,1.22.51h29.7a6.44,6.44,0,0,1,6.44,6.41v16.95a6.49,6.49,0,0,1-6.44,6.41H165.06a6.42,6.42,0,0,1-4.53-1.9,6.51,6.51,0,0,1-1.87-4.51V243.3a6.38,6.38,0,0,1,6.4-6.41h29.71a1.72,1.72,0,0,0,1.22-.51,1.75,1.75,0,0,0,0-2.41,1.72,1.72,0,0,0-1.22-.51H165.06a9.77,9.77,0,0,0-9.83,9.84v16.95a10.37,10.37,0,0,0,.51,3.17,9.94,9.94,0,0,0,1.58,2.87l1.62,2.07-1.62,2.07a9.38,9.38,0,0,0-1.56,2.86,9.85,9.85,0,0,0-.53,3.2v16.92c.19,2.92,1.19,5.56,2,8.37a77.37,77.37,0,0,0-9.72-1.93H65.71a9.77,9.77,0,0,0-9.81,9.81v16.95a9.54,9.54,0,0,0,.51,3.17A10.2,10.2,0,0,0,58,332.65l1.64,2.09L58,336.81a10.31,10.31,0,0,0-1.56,2.84,9.85,9.85,0,0,0-.51,3.2V359.8a9.77,9.77,0,0,0,9.81,9.81h83.11a9.54,9.54,0,0,0,3.17-.51,10.22,10.22,0,0,0,2.87-1.59L157,365.9l2.07,1.64a9.74,9.74,0,0,0,2.87,1.56,9.54,9.54,0,0,0,3.17.51h83.08a9.86,9.86,0,0,0,3.21-.51,9.53,9.53,0,0,0,2.83-1.56l2.1-1.64,2.07,1.64a10.42,10.42,0,0,0,2.86,1.56,9.72,9.72,0,0,0,3.18.51H347.5a9.78,9.78,0,0,0,9.81-9.81V342.85a9.54,9.54,0,0,0-.51-3.17,10.06,10.06,0,0,0-1.56-2.87l-1.62-2.07,1.62-2.09a10.45,10.45,0,0,0,1.56-2.84,9.85,9.85,0,0,0,.51-3.2V309.66a9.72,9.72,0,0,0-.51-3.18,10.42,10.42,0,0,0-1.56-2.86l-1.62-2.07,1.62-2.07a10.42,10.42,0,0,0,1.56-2.86,9.86,9.86,0,0,0,.51-3.21V276.49a9.85,9.85,0,0,0-.51-3.2,10.87,10.87,0,0,0-1.56-2.86l-1.65-2.07,1.65-2.07a10.13,10.13,0,0,0,1.56-2.87,9.8,9.8,0,0,0,.51-3.17V243.3a9.91,9.91,0,0,0-.51-3.21,11.06,11.06,0,0,0-1.59-2.86l-1.62-2.07,1.65-2.07a9.68,9.68,0,0,0,1.56-2.86,9.54,9.54,0,0,0,.51-3.17v-17a9.54,9.54,0,0,0-.51-3.17,10.76,10.76,0,0,0-1.59-2.89l-1.62-2,1.65-2.1a9.56,9.56,0,0,0,2.07-6v-17a9.85,9.85,0,0,0-9.81-9.84Z"/><rect class="cls-3" x="181.39" y="233.46" width="44.16" height="3.43"/><rect class="cls-3" x="55.9" y="128.21" width="126.91" height="2.89"/><rect class="cls-3" x="55.9" y="163.25" width="92.21" height="2.89"/><rect class="cls-3" x="55.9" y="198.28" width="57.06" height="2.89"/><rect class="cls-3" x="55.9" y="233.32" width="22.54" height="2.86"/><rect class="cls-3" x="55.9" y="145.73" width="109.84" height="2.86"/><rect class="cls-3" x="55.9" y="180.77" width="74.64" height="2.89"/><rect class="cls-3" x="55.9" y="215.8" width="39.74" height="2.89"/><rect class="cls-5" x="55.9" y="250.84" width="4.45" height="2.86"/><path class="cls-2" d="M362,77.92v-.14a57.77,57.77,0,0,0-1.85-7.88l0-.05c-.29-.88-.57-1.76-.91-2.64l-.09-.26-.08-.28-.06-.11-.06-.17-.7-1.73,0,0a51.37,51.37,0,0,0-2.7-5.53A56.38,56.38,0,0,0,329.27,35l-.11,0-.28-.14-.26-.09,0,0-.28-.14-.28-.11h0l-.29-.11-.28-.12-.06-.05-.22-.06-.29-.14-.14-.06-.17-.06-.28-.11-.2-.08-.09,0-.31-.12-.25-.08h0l-.28-.11-.32-.12h0l-.26-.08-.28-.12-.12,0-.2-.09-.28-.08-.17-.06-.14,0-.28-.11-.26-.09h-.06l-.28-.08-.31-.12h0l-.28-.08-.32-.09-.08,0-.23,0-.31-.09-.14,0-.14,0-.32-.09-.19,0H320l-.28-.09-.28-.08h0l-.31-.06-.29-.09h-.08l-.23-.05-.31-.09-.14,0-.17,0-.31-.06-.2-.06-.12,0-.31-.05-.28-.06h0l-.28-.06L316,30.9h0l-.26-.06-.31-.06-.14,0-.17,0-.31,0-.2-.06h-.11l-.32-.05-.28,0h0l-.31-.06-.31,0-.06,0-.25,0-.32,0-.14,0h-.17l-.34,0-.22,0-.09,0-.31,0-.31,0h0l-.31,0-.32,0h-.31l-.31,0-.17,0h-.17l-.31,0h-.31l-.32,0h-.36l-.29,0h-.62l-.31,0H305l-.31,0H304l-.28,0h-.37l-.31,0h-.31l-.31,0h-.15l-.17,0-.34,0h-.31l-.31,0-.31,0-.31,0-.31,0-.09,0-.23,0-.34,0h-.14l-.17,0-.31,0-.23,0-.08,0-.31,0-.32.06h0l-.31,0-.31.05h-.08l-.23.06-.31,0-.17,0-.14,0-.32.06-.25.06h-.06l-.31.05-.28.06h0l-.29.06-.31.05-.11,0-.2.06-.31.06-.17,0-.14,0-.31.09-.23.05h-.09l-.28.09-.31.06h0l-.31.08-.29.09h-.08l-.23,0-.31.09-.14,0L291,32l-.32.09-.22,0-.09,0-.31.09-.28.08h0l-.31.12-.29.08h-.05l-.26.09-.28.11-.12,0-.19.06-.29.08-.59.23-.26,0,0,0-.31.12-.28.11h0l-.26.08-.31.12-.08,0-.2.08-.28.11-.17.06L285,34l-.28.14-.2.06-.08.05-.29.12-.28.11h0l-.28.11-.29.14h0l-.26.12-.28.14-.09,0-.2.08-.28.14-.14.06-.14.09-.29.11-.19.11-.09,0-.28.14-.26.12,0,0-.28.15-.28.14h0l-.54.28-.06,0-.2.11-.42.23-.14.09A55.85,55.85,0,0,0,269,43.71,57.48,57.48,0,0,0,256.42,59.1l-1.25,2.41,0,.06-.26.57h0l-.14.25-.14.28,0,.06-.23.51,0,.14-.06.14-.14.29L254,64l0,.08-.23.54,0,0-.23.57v0l-.11.23-.11.31-.06.09-.06.19-.11.29-.06.17-.05.11-.12.31-.08.23,0,.06-.11.28-.09.28v0l-.11.28-.11.29v.08l-.09.2-.08.31-.06.15-.06.14-.08.31-.09.23v.05l-.11.31-.09.29h0l-.08.31-.09.28,0,.09-.05.22-.09.29,0,.17,0,.14-.09.31-.05.23v.06l-.09.31-.08.28v0l-.06.28-.09.31v.09l-.05.23-.09.28,0,.17,0,.14-.06.31-.06.26,0,0,0,.29-.06.31v0l-.06.28-.05.31v.09l-.06.23-.06.28,0,.2v.11l-.06.31,0,.09a57,57,0,0,0-.68,8.81,56,56,0,0,0,3.23,18.83l0,0,.4,1.11.05.14.15.4.08.25.14.28.14.35.06.19.2.46,0,.08.48,1.05,0,.11.2.43.39.82.09.23.22.4.06.11.23.51h0l.25.51.06.08.23.43.08.2.17.28.17.31.11.2.88,1.5,0,.06a57,57,0,0,0,39.15,26.53h0l.56.12h.12l1.61.22.51.06.06,0,.59.05h.06l.51.06h.2l.4.06.31,0h.25l.48,0,.12,0c1.16.06,2.32.12,3.51.12l.6,0h1.16l.43,0h.17l.56,0h0A56.57,56.57,0,0,0,346,126.74a59.4,59.4,0,0,0,5.24-6l.08-.11.26-.34.14-.23.17-.23.62-.88.06,0,.63-.94.08-.14.23-.34.14-.23.17-.25.2-.31.11-.17.26-.43,0-.06.32-.51v0L355,115l.06-.11.22-.4.12-.2.17-.31.17-.31.11-.17.2-.43.05-.08.29-.51h0c.4-.82.79-1.65,1.19-2.5l.06-.11.39-1,.06-.09,0-.08.2-.46.08-.19.14-.35.12-.28.08-.25.17-.4.06-.14.17-.51,0-.06.19-.54v0l.2-.51,0-.15.14-.39.09-.29.11-.28.12-.37.05-.2.14-.48,0-.06.17-.59h0v-.06A56.49,56.49,0,0,0,362,77.92Z"/><path class="cls-4" d="M305.6,119.71a33,33,0,1,0-33.05-33,33.08,33.08,0,0,0,33.05,33Z"/><path class="cls-3" d="M357.25,101l-.08.25a53.53,53.53,0,0,1-46.27,38.47l-.19,0-.37,0-.29,0h-.31l-.48,0-.57.06h0l-.54,0h-.82l-.28,0h-2.21l-.26,0h-.85l-.54,0h0l-.56-.06-.49,0h-.28l-.31,0-.37,0-.17,0a53.49,53.49,0,0,1-46.29-38.47l-.08-.25a53,53,0,0,1-2-14.32,51.48,51.48,0,0,1,.62-8.1v-.09l.06-.17c.26-1.61.57-3.23,1-4.79l0-.14.14-.45,0-.17.12-.4.08-.26.09-.34.08-.28.09-.28.11-.34.06-.23a53.46,53.46,0,0,1,43.37-36.71l.14,0,1.19-.14h0l.62-.06h0l.57-.05.11,0,.48,0,.2,0,.43,0h.22l.37,0,.31,0h.29l.42,0h.2l.48,0h2.75l.46,0H308l.4,0h.28l.31,0,.37,0h.26l.42,0,.17,0,.49,0,.11,0,.57.05h.05l.6.06h0l1.16.14.17,0a53.48,53.48,0,0,1,42.77,35l0,.06.17.51,0,.11.17.45.06.17.11.4.09.23.08.34.09.28.08.31a50.09,50.09,0,0,1,1.45,6.52l.05.26a50.31,50.31,0,0,1,.63,8.1,53,53,0,0,1-2,14.32ZM362,77.92v-.14a57.77,57.77,0,0,0-1.85-7.88l0-.05c-.29-.88-.57-1.76-.91-2.64l-.09-.26-.08-.28-.06-.11-.06-.17-.7-1.73,0,0a51.37,51.37,0,0,0-2.7-5.53A56.38,56.38,0,0,0,329.27,35l-.11,0-.28-.14-.26-.09,0,0-.28-.14-.28-.11h0l-.29-.11-.28-.12-.06-.05-.22-.06-.29-.14-.14-.06-.17-.06-.28-.11-.2-.08-.09,0-.31-.12-.25-.08h0l-.28-.11-.32-.12h0l-.26-.08-.28-.12-.12,0-.2-.09-.28-.08-.17-.06-.14,0-.28-.11-.26-.09h-.06l-.28-.08-.31-.12h0l-.28-.08-.32-.09-.08,0-.23,0-.31-.09-.14,0-.14,0-.32-.09-.19,0H320l-.28-.09-.28-.08h0l-.31-.06-.29-.09h-.08l-.23-.05-.31-.09-.14,0-.17,0-.31-.06-.2-.06-.12,0-.31-.05-.28-.06h0l-.28-.06L316,30.9h0l-.26-.06-.31-.06-.14,0-.17,0-.31,0-.2-.06h-.11l-.32-.05-.28,0h0l-.31-.06-.31,0-.06,0-.25,0-.32,0-.14,0h-.17l-.34,0-.22,0-.09,0-.31,0-.31,0h0l-.31,0-.32,0h-.31l-.31,0-.17,0h-.17l-.31,0h-.31l-.32,0h-.36l-.29,0h-.62l-.31,0H305l-.31,0H304l-.28,0h-.37l-.31,0h-.31l-.31,0h-.15l-.17,0-.34,0h-.31l-.31,0-.31,0-.31,0-.31,0-.09,0-.23,0-.34,0h-.14l-.17,0-.31,0-.23,0-.08,0-.31,0-.32.06h0l-.31,0-.31.05h-.08l-.23.06-.31,0-.17,0-.14,0-.32.06-.25.06h-.06l-.31.05-.28.06h0l-.29.06-.31.05-.11,0-.2.06-.31.06-.17,0-.14,0-.31.09-.23.05h-.09l-.28.09-.31.06h0l-.31.08-.29.09h-.08l-.23,0-.31.09-.14,0L291,32l-.32.09-.22,0-.09,0-.31.09-.28.08h0l-.31.12-.29.08h-.05l-.26.09-.28.11-.12,0-.19.06-.29.08-.59.23-.26,0,0,0-.31.12-.28.11h0l-.26.08-.31.12-.08,0-.2.08-.28.11-.17.06L285,34l-.28.14-.2.06-.08.05-.29.12-.28.11h0l-.28.11-.29.14h0l-.26.12-.28.14-.09,0-.2.08-.28.14-.14.06-.14.09-.29.11-.19.11-.09,0-.28.14-.26.12,0,0-.28.15-.28.14h0l-.54.28-.06,0-.2.11-.42.23-.14.09A55.85,55.85,0,0,0,269,43.71,57.48,57.48,0,0,0,256.42,59.1l-1.25,2.41,0,.06-.26.57h0l-.14.25-.14.28,0,.06-.23.51,0,.14-.06.14-.14.29L254,64l0,.08-.23.54,0,0-.23.57v0l-.11.23-.11.31-.06.09-.06.19-.11.29-.06.17-.05.11-.12.31-.08.23,0,.06-.11.28-.09.28v0l-.11.28-.11.29v.08l-.09.2-.08.31-.06.15-.06.14-.08.31-.09.23v.05l-.11.31-.09.29h0l-.08.31-.09.28,0,.09-.05.22-.09.29,0,.17,0,.14-.09.31-.05.23v.06l-.09.31-.08.28v0l-.06.28-.09.31v.09l-.05.23-.09.28,0,.17,0,.14-.06.31-.06.26,0,0,0,.29-.06.31v0l-.06.28-.05.31v.09l-.06.23-.06.28,0,.2v.11l-.06.31,0,.09a57,57,0,0,0-.68,8.81,56,56,0,0,0,3.23,18.83l0,0,.4,1.11.05.14.15.4.08.25.14.28.14.35.06.19.2.46,0,.08.48,1.05,0,.11.2.43.39.82.09.23.22.4.06.11.23.51h0l.25.51.06.08.23.43.08.2.17.28.17.31.11.2.88,1.5,0,.06a57,57,0,0,0,39.15,26.53h0l.56.12h.12l1.61.22.51.06.06,0,.59.05h.06l.51.06h.2l.4.06.31,0h.25l.48,0,.12,0c1.16.06,2.32.12,3.51.12l.6,0h1.16l.43,0h.17l.56,0h0A56.57,56.57,0,0,0,346,126.74a59.4,59.4,0,0,0,5.24-6l.08-.11.26-.34.14-.23.17-.23.62-.88.06,0,.63-.94.08-.14.23-.34.14-.23.17-.25.2-.31.11-.17.26-.43,0-.06.32-.51v0L355,115l.06-.11.22-.4.12-.2.17-.31.17-.31.11-.17.2-.43.05-.08.29-.51h0c.4-.82.79-1.65,1.19-2.5l.06-.11.39-1,.06-.09,0-.08.2-.46.08-.19.14-.35.12-.28.08-.25.17-.4.06-.14.17-.51,0-.06.19-.54v0l.2-.51,0-.15.14-.39.09-.29.11-.28.12-.37.05-.2.14-.48,0-.06.17-.59h0v-.06A56.49,56.49,0,0,0,362,77.92Z"/><path class="cls-3" d="M305.6,119.14a32.47,32.47,0,1,1,23-9.52,32.49,32.49,0,0,1-23,9.52Zm35.89-32.46A35.92,35.92,0,1,0,331,112.05a35.81,35.81,0,0,0,10.52-25.37Z"/><path class="cls-6" d="M306.14,70.89v-.08l.29,0,.17,0v.06l1.64.11a15.21,15.21,0,0,1,6.26,2c.46.23.74-.06,1-.45s.76-1.59.17-2.1c-1.79-1.47-5.3-1.93-7.51-1.93a23.42,23.42,0,0,0-3.72.09c-5.44.71-9.35,3.34-9.35,9.21,0,6.07,5,7.82,9.83,9.69l.8.29v-.09l2.72,1.19c3.2,1.42,5.44,3.35,5.44,7s-2.41,5.9-5.81,6.61l-2.35.48v-.2l-1.7-.2c-3.63-.42-5.47-2-8.28-4.08-.51-.4-.74-.14-1.11.37a2,2,0,0,0-.05,2.78c2,2.66,6.46,3.82,9.61,3.82,1.27,0,2.49,0,3.68-.11,5.62-.88,9.1-4.31,9.1-10.2,0-6.21-4.22-8.48-9.52-10.41l-.82-.31v.09l-2.67-1c-3.06-1.25-5.78-2.75-5.78-6.44s3-5.41,6.21-5.92Z"/><path class="cls-6" d="M304.78,67v40.51h0c0,.37.65.65,1.48.65s1.47-.28,1.47-.65l0,0V67l0-.06c0-.34-.68-.65-1.47-.65s-1.48.31-1.48.65Z"/></g></g></svg>