<svg xmlns="http://www.w3.org/2000/svg" viewBox="0 0 414.11 414.11"><defs><style>.cls-1{fill:#eef4ff;fill-rule:evenodd;}.cls-2{fill:#fff;}.cls-3{fill:#144496;}</style></defs><title>Улучшить репутацию</title><g id="Слой_2" data-name="Слой 2"><g id="Слой_1-2" data-name="Слой 1"><path class="cls-1" d="M207,414.11c114.07,0,207.07-93,207.07-207.07S321.11,0,207,0,0,93,0,207,93,414.11,207,414.11Z"/><path class="cls-2" d="M45.86,368.25H368.25v-3.83H45.86ZM311.41,159.08a1.85,1.85,0,0,0-1.9,1.9V344.35a1.85,1.85,0,0,0,.54,1.36,1.94,1.94,0,0,0,1.36.57h38.44a1.93,1.93,0,0,0,1.36-.57,1.9,1.9,0,0,0,.54-1.36V161a1.85,1.85,0,0,0-1.9-1.9ZM251,234.4a1.93,1.93,0,0,0-1.9,1.9V344.35a2,2,0,0,0,.54,1.36,2,2,0,0,0,1.36.57h38.47a1.94,1.94,0,0,0,1.36-.57,1.89,1.89,0,0,0,.53-1.36v-108a1.86,1.86,0,0,0-.53-1.34,1.94,1.94,0,0,0-1.36-.56Zm-60.41,32.26a2,2,0,0,0-1.36.53,2.06,2.06,0,0,0-.54,1.36v75.8a2,2,0,0,0,.54,1.36,2,2,0,0,0,1.36.57H229a1.95,1.95,0,0,0,1.9-1.93v-75.8a1.94,1.94,0,0,0-.57-1.36,1.82,1.82,0,0,0-1.33-.53Zm-60.4,32.4a1.89,1.89,0,0,0-1.36.53,2,2,0,0,0-.54,1.36v43.4a1.85,1.85,0,0,0,.54,1.36,1.93,1.93,0,0,0,1.36.57H168.6a2,2,0,0,0,1.37-.57,1.89,1.89,0,0,0,.53-1.36V301a2,2,0,0,0-.53-1.36,1.92,1.92,0,0,0-1.37-.53ZM69.73,309.51a1.88,1.88,0,0,0-1.33.54,1.94,1.94,0,0,0-.57,1.36v32.94a2,2,0,0,0,.54,1.36,2,2,0,0,0,1.36.57H108.2a1.95,1.95,0,0,0,1.9-1.93V311.41a1.94,1.94,0,0,0-.57-1.36,1.78,1.78,0,0,0-1.33-.54ZM322,86l11.65-33.3,19.93,39.88a2.09,2.09,0,0,0,1.14,1,1.91,1.91,0,0,0,1.44-.11l.09,0a2.06,2.06,0,0,0,.88-1.08,1.89,1.89,0,0,0-.09-1.47l-22-43.94A1.9,1.9,0,0,0,334,46a2,2,0,0,0-1.48.08L288.6,68a2,2,0,0,0-1,1.11,2,2,0,0,0,.12,1.47,2,2,0,0,0,2.58.85L330,51.62,318.42,84.73a296.4,296.4,0,0,1-98.08,136.15,296.46,296.46,0,0,1-152.68,60.8l.31,3.85a300.11,300.11,0,0,0,154.72-61.62A300.23,300.23,0,0,0,322,86Z"/><path class="cls-3" d="M45.86,368.25H368.25v-3.83H45.86Zm298.49-25.8h-31V162.88H348V342.45ZM311.41,159.08a1.85,1.85,0,0,0-1.9,1.9V344.35a1.85,1.85,0,0,0,.54,1.36,1.94,1.94,0,0,0,1.36.57h38.44a1.93,1.93,0,0,0,1.36-.57,1.9,1.9,0,0,0,.54-1.36V161a1.85,1.85,0,0,0-1.9-1.9ZM284,342.45h-31V238.22h34.61V342.45Zm-33-108a1.93,1.93,0,0,0-1.9,1.9V344.35a2,2,0,0,0,.54,1.36,2,2,0,0,0,1.36.57h38.47a1.94,1.94,0,0,0,1.36-.57,1.89,1.89,0,0,0,.53-1.36v-108a1.86,1.86,0,0,0-.53-1.34,1.94,1.94,0,0,0-1.36-.56Zm-27.44,108h-31V270.68h34.61v71.77Zm-33-75.6a2,2,0,0,0-1.36.57,2,2,0,0,0-.54,1.36v75.57a2,2,0,0,0,.54,1.36,2,2,0,0,0,1.36.57H229a1.95,1.95,0,0,0,1.9-1.93V268.78a1.93,1.93,0,0,0-.57-1.36,1.86,1.86,0,0,0-1.33-.57Zm-27.46,75.6h-31V302.88h34.64v39.57Zm-32.94-43.39a1.89,1.89,0,0,0-1.36.53,2,2,0,0,0-.54,1.36v43.4a1.85,1.85,0,0,0,.54,1.36,1.93,1.93,0,0,0,1.36.57H168.6a2,2,0,0,0,1.37-.57,1.89,1.89,0,0,0,.53-1.36V301a2,2,0,0,0-.53-1.36,1.92,1.92,0,0,0-1.37-.53ZM102.7,342.45h-31V313.31h34.61v29.14Zm-33-32.94a1.88,1.88,0,0,0-1.33.54,1.94,1.94,0,0,0-.57,1.36v32.94a2,2,0,0,0,.54,1.36,2,2,0,0,0,1.36.57H108.2a1.95,1.95,0,0,0,1.9-1.93V311.41a1.94,1.94,0,0,0-.57-1.36,1.78,1.78,0,0,0-1.33-.54ZM322,86l11.65-33.3,19.93,39.88a2.09,2.09,0,0,0,1.14,1,1.91,1.91,0,0,0,1.44-.11l.09,0a2.06,2.06,0,0,0,.88-1.08,1.89,1.89,0,0,0-.09-1.47l-22-43.94A1.9,1.9,0,0,0,334,46a2,2,0,0,0-1.48.08L288.6,68a2,2,0,0,0-1,1.11,2,2,0,0,0,.12,1.47,2,2,0,0,0,2.58.85L330,51.62,318.42,84.73a296.4,296.4,0,0,1-98.08,136.15,296.46,296.46,0,0,1-152.68,60.8l.31,3.85a300.11,300.11,0,0,0,154.72-61.62A300.23,300.23,0,0,0,322,86Z"/><rect class="cls-3" x="59.95" y="87.51" width="229.44" height="3.4"/><rect class="cls-3" x="59.95" y="128.66" width="209.71" height="3.37"/><rect class="cls-3" x="59.95" y="169.74" width="179.77" height="3.4"/><rect class="cls-3" x="59.95" y="210.87" width="134.19" height="3.37"/><rect class="cls-3" x="59.95" y="251.97" width="43.23" height="3.37"/><rect class="cls-3" x="59.95" y="108.11" width="220.65" height="3.37"/><rect class="cls-3" x="59.95" y="149.19" width="196.27" height="3.4"/><rect class="cls-3" x="59.95" y="190.29" width="159.53" height="3.4"/><rect class="cls-3" x="59.95" y="231.42" width="99.58" height="3.37"/></g></g></svg>