<?xml version="1.0" encoding="utf-8"?>
<!-- Generator: Adobe Illustrator 22.1.0, SVG Export Plug-In . SVG Version: 6.00 Build 0)  -->
<svg version="1.1" id="Layer_2" xmlns="http://www.w3.org/2000/svg" xmlns:xlink="http://www.w3.org/1999/xlink" x="0px" y="0px"
	 viewBox="0 0 640 639" style="enable-background:new 0 0 640 639;" xml:space="preserve">
<style type="text/css">
	.st0{fill:#EEF4FF;}
	.st1{fill:#FFFFFF;stroke:#144496;stroke-width:7;stroke-miterlimit:10;}
	.st2{fill:#144496;}
	.st3{fill:none;stroke:#144496;stroke-width:7;stroke-miterlimit:10;}
	.st4{fill:none;stroke:#144496;stroke-width:7;stroke-linecap:round;stroke-linejoin:round;stroke-miterlimit:10;}
</style>
<circle class="st0" cx="320" cy="320" r="320"/>
<path class="st1" d="M486.7,538h-340c-6.6,0-12-5.4-12-12V124.4c0-6.6,5.4-12,12-12h340c6.6,0,12,5.4,12,12V526
	C498.7,532.6,493.3,538,486.7,538z"/>
<path class="st1" d="M447.1,493.4H186.3c-4.8,0-8.6-3.9-8.6-8.6v-318c0-4.8,3.9-8.6,8.6-8.6H447c4.8,0,8.6,3.9,8.6,8.6v318
	C455.7,489.5,451.8,493.4,447.1,493.4z"/>
<path class="st1" d="M401.7,87.4h-54.2c0-17-13.8-30.8-30.8-30.8s-30.8,13.8-30.8,30.8h-54.2c-6.6,0-12,5.4-12,12v68
	c0,6.6,5.4,12,12,12h170c6.6,0,12-5.4,12-12v-68C413.7,92.8,408.3,87.4,401.7,87.4z"/>
<circle class="st2" cx="316.9" cy="86.3" r="8.4"/>
<path class="st1" d="M254.4,377.2H229c-4.1,0-7.5-3.4-7.5-7.5v-25.4c0-4.1,3.4-7.5,7.5-7.5h25.4c4.1,0,7.5,3.4,7.5,7.5v25.4
	C262,373.8,258.6,377.2,254.4,377.2z"/>
<line class="st3" x1="288" y1="214.4" x2="388.7" y2="214.4"/>
<line class="st3" x1="288" y1="244.4" x2="329.7" y2="244.4"/>
<line class="st3" x1="288" y1="334.4" x2="413.7" y2="334.4"/>
<line class="st3" x1="288" y1="364.4" x2="413.7" y2="364.4"/>
<line class="st3" x1="288" y1="394.4" x2="413.7" y2="394.4"/>
<line class="st3" x1="288" y1="424.4" x2="413.7" y2="424.4"/>
<line class="st3" x1="288" y1="454.4" x2="413.7" y2="454.4"/>
<path class="st1" d="M254.4,454.4H229c-4.1,0-7.5-3.4-7.5-7.5v-25.5c0-4.1,3.4-7.5,7.5-7.5h25.4c4.1,0,7.5,3.4,7.5,7.5v25.4
	C262,451,258.6,454.4,254.4,454.4z"/>
<polyline class="st4" points="260.4,219.5 235.9,243.8 223,230.9 "/>
<polyline class="st4" points="260.4,277.5 235.9,301.8 223,288.9 "/>
<line class="st3" x1="288" y1="276.4" x2="388.7" y2="276.4"/>
<line class="st3" x1="288" y1="304.4" x2="329.7" y2="304.4"/>
</svg>
