<?xml version="1.0" encoding="utf-8"?>
<!-- Generator: Adobe Illustrator 22.1.0, SVG Export Plug-In . SVG Version: 6.00 Build 0)  -->
<svg version="1.1" id="Layer_3" xmlns="http://www.w3.org/2000/svg" xmlns:xlink="http://www.w3.org/1999/xlink" x="0px" y="0px"
	 viewBox="0 0 640 634.8" style="enable-background:new 0 0 640 634.8;" xml:space="preserve">
<style type="text/css">
	.st0{fill:#EEF4FF;}
	.st1{fill:#FFFFFF;stroke:#144496;stroke-width:7;stroke-miterlimit:10;}
	.st2{fill:#EEF4FF;stroke:#144496;stroke-width:7;stroke-miterlimit:10;}
	.st3{fill:none;stroke:#144496;stroke-width:7;stroke-miterlimit:10;}
	.st4{fill:none;stroke:#144496;stroke-width:7;stroke-linecap:round;stroke-linejoin:round;stroke-miterlimit:10;}
</style>
<circle class="st0" cx="320" cy="319.8" r="320"/>
<g>
	<g>
		<path class="st1" d="M227.8,449.6h-185c-3.4,0-6.2,2.8-6.2,6.2v17c0,17.1,14,31.1,31.1,31.1h503.9c17.1,0,31.1-14,31.1-31.1v-17
			c0-3.4-2.8-6.2-6.2-6.2H402.2"/>
		<path class="st1" d="M399.3,449.6h-8.9l-9.8,15.3c-1.9,3.9-5.8,6.6-10.2,6.7h-0.1H259.9h-0.1c-4.4,0-8.3-2.7-10.2-6.7l-8.6-15.3
			h-10.1H91.6V142.3c0-8.2,6.7-14.9,14.9-14.9h423.6c8.2,0,14.9,6.7,14.9,14.9v307.3H398.4"/>
		<path class="st2" d="M132.3,415.5h372.1c2.1,0,3.7-1.7,3.7-3.7V165.1c0-2.1-1.7-3.7-3.7-3.7H132.3c-2.1,0-3.7,1.7-3.7,3.7v246.7
			C128.5,413.8,130.2,415.5,132.3,415.5z"/>
	</g>
	<g>
		<path class="st3" d="M395.6,211"/>
		<path class="st3" d="M320.9,211"/>
		<path class="st3" d="M420.6,237.2"/>
		<path class="st3" d="M320.9,237.2"/>
		<path class="st3" d="M459.2,263.3"/>
		<path class="st3" d="M322.1,263.3"/>
		<path class="st3" d="M459.2,289.5"/>
		<path class="st3" d="M322.1,289.5"/>
		<path class="st3" d="M459.2,315.6"/>
		<path class="st3" d="M322.1,315.6"/>
		<path class="st3" d="M459.2,341.8"/>
		<path class="st3" d="M322.1,341.8"/>
		<path class="st3" d="M459.2,368"/>
		<path class="st3" d="M322.1,368"/>
	</g>
</g>
<g>
	<line class="st4" x1="393.6" y1="196.3" x2="393.6" y2="375.8"/>
	<path class="st1" d="M205.5,290.5v-34.8c0-0.7,0.7-1.2,1.3-0.9l21.2,7.5l165.6-56v157.3l-165.6-56l-21.2,7.5
		c-0.7,0.2-1.3-0.3-1.3-0.9v-34.8"/>
	<line class="st4" x1="408.3" y1="285" x2="430" y2="285"/>
	<line class="st4" x1="409.2" y1="238.4" x2="420.2" y2="232.1"/>
	<line class="st4" x1="409.5" y1="331.1" x2="419.9" y2="338.3"/>
	<path class="st3" d="M319.6,338.6l-7.9,20.9c-2.3,6.2-9.3,9.3-15.4,7l-31.7-11.9c-6.2-2.3-9.3-9.3-7-15.4l7.2-19.2"/>
	<line class="st4" x1="283.3" y1="261" x2="318.2" y2="249.7"/>
	<line class="st4" x1="228" y1="262.3" x2="228" y2="306.6"/>
</g>
</svg>
