<?xml version="1.0" encoding="utf-8"?>
<!-- Generator: Adobe Illustrator 22.1.0, SVG Export Plug-In . SVG Version: 6.00 Build 0)  -->
<svg version="1.1" id="Слой_1" xmlns="http://www.w3.org/2000/svg" xmlns:xlink="http://www.w3.org/1999/xlink" x="0px" y="0px"
	 viewBox="0 0 639.7 640" style="enable-background:new 0 0 639.7 640;" xml:space="preserve">
<style type="text/css">
	.st0{fill:#EEF4FF;}
	.st1{fill:#FFFFFF;stroke:#144496;stroke-width:7;stroke-miterlimit:10;}
	.st2{fill:#144496;}
	.st3{fill:none;stroke:#144496;stroke-width:7;stroke-linecap:round;stroke-miterlimit:10;}
	.st4{fill:none;stroke:#144496;stroke-width:7;stroke-miterlimit:10;}
</style>
<g id="Layer_3">
	<circle class="st0" cx="320" cy="320" r="320"/>
	<g>
		<circle class="st1" cx="156.5" cy="205.6" r="110.2"/>
		<circle class="st1" cx="156.5" cy="205.6" r="68.6"/>
		<path class="st1" d="M438.3,592H431c-57.6,0-104.8-47.1-104.8-104.8V342.7c0-57.6,47.1-104.8,104.8-104.8h7.3
			c57.6,0,104.8,47.1,104.8,104.8v144.5C543.1,544.9,495.9,592,438.3,592z"/>
		<g>
			<path class="st2" d="M159.2,232.3v8.8h-7.9v-8.5c-7.5-0.2-13.4-2.2-18.5-7.4l7.1-7.1c3.3,3.3,7.8,4.6,12.5,4.7v-14.2l-2.5-0.3
				c-4.7-0.6-8.5-2.4-10.8-4.7c-2.7-2.7-4-6.2-4-10.9c0-9,6.1-15.7,16.3-16.8v-7.1h7.9v7c6.4,0.4,11.2,2.4,15.5,6.4l-6.9,6.8
				c-2.6-2.5-6.4-3.5-9.7-3.8v13.7l3,0.5c5.1,0.8,8.3,2.2,10.7,4.4c3,2.8,4.3,6.8,4.3,11.8C176.1,225.2,169.1,231.1,159.2,232.3z
				 M152.3,185.4c-4.6,0.6-6.8,3.5-6.8,6.9c0,1.4,0.5,2.9,1.6,4c1.3,1.2,3,1.9,5.2,2.2L152.3,185.4L152.3,185.4z M163.7,211.2
				c-1.3-1.2-2.7-1.6-5.6-2v13.5c4.7-0.5,7.3-2.9,7.3-6.8C165.4,214,164.9,212.3,163.7,211.2z"/>
		</g>
		<path class="st1" d="M430.3,371.9L430.3,371.9c-11.4,0-20.8-9.4-20.8-20.8V312c0-11.4,9.4-20.8,20.8-20.8l0,0
			c11.4,0,20.8,9.4,20.8,20.8v39.1C451.1,362.6,441.7,371.9,430.3,371.9z"/>
		<line class="st3" x1="430.3" y1="269.3" x2="430.3" y2="290.1"/>
		<path class="st1" d="M156.5,315.8"/>
		<path class="st4" d="M362,384"/>
		<path class="st4" d="M157.4,314.5v65.7c0,37.5,30.7,68.2,68.2,68.2l0,0c37.5,0,68.2-30.7,68.2-68.2V163.6
			c0-37.5,30.7-68.2,68.2-68.2l0,0c37.5,0,68.2,30.7,68.2,68.2v73.2"/>
		<path class="st4" d="M225.2,270.7"/>
	</g>
</g>
<g id="Layer_2">
</g>
</svg>
