<?xml version="1.0" encoding="utf-8"?>
<!-- Generator: Adobe Illustrator 22.1.0, SVG Export Plug-In . SVG Version: 6.00 Build 0)  -->
<svg version="1.1" id="Слой_1" xmlns="http://www.w3.org/2000/svg" xmlns:xlink="http://www.w3.org/1999/xlink" x="0px" y="0px"
	 viewBox="0 0 639.7 640" style="enable-background:new 0 0 639.7 640;" xml:space="preserve">
<style type="text/css">
	.st0{fill:#EEF4FF;}
	.st1{fill:#FFFFFF;stroke:#144496;stroke-width:7;stroke-miterlimit:10;}
	.st2{fill:none;stroke:#144496;stroke-width:7;stroke-miterlimit:10;}
	.st3{fill:none;stroke:#144496;stroke-width:7;stroke-linecap:round;stroke-miterlimit:10;}
</style>
<g id="Layer_3">
	<circle class="st0" cx="319.7" cy="320" r="320"/>
	<g>
		<polygon class="st1" points="224.2,445 279.7,221.5 358.2,221.5 411.2,447.6 		"/>
		<path class="st1" d="M369.8,93.5V121h-36.5V93.5c0-1.1-0.9-2-2-2h-13.6h-1.4h-13.6c-1.1,0-2,0.9-2,2V121h-36.5V93.5
			c0-1.1-0.9-2-2-2h-27.5c-1.1,0-2,0.9-2,2v53.2l60,88.8h24h0.6h24l60-88.8V93.5c0-1.1-0.9-2-2-2h-27.5
			C370.7,91.5,369.8,92.4,369.8,93.5z"/>
		<path class="st1" d="M444.8,528.1h-255c-6.6,0-12-5.4-12-12v-36c0-6.6,5.4-12,12-12h255c6.6,0,12,5.4,12,12v36
			C456.8,522.7,451.4,528.1,444.8,528.1z"/>
		<path class="st1" d="M425.8,468.1h-217c-11.2,0-20.4-9.2-20.4-20.4l0,0c0-11.2,9.2-20.4,20.4-20.4h216.9
			c11.2,0,20.4,9.2,20.4,20.4l0,0C446.2,458.9,437,468.1,425.8,468.1z"/>
		<path class="st1" d="M377,250.9H257.6c-11.2,0-20.4-9.2-20.4-20.4l0,0c0-11.2,9.2-20.4,20.4-20.4h119.3c11.2,0,20.4,9.2,20.4,20.4
			l0,0C397.4,241.7,388.2,250.9,377,250.9z"/>
		<line class="st2" x1="232.7" y1="146.8" x2="399.4" y2="146.8"/>
		<line class="st3" x1="284.8" y1="283.3" x2="269.6" y2="345.7"/>
	</g>
</g>
<g id="Layer_2">
</g>
</svg>
