<?xml version="1.0" encoding="utf-8"?>
<!-- Generator: Adobe Illustrator 22.1.0, SVG Export Plug-In . SVG Version: 6.00 Build 0)  -->
<svg version="1.1" id="Layer_3" xmlns="http://www.w3.org/2000/svg" xmlns:xlink="http://www.w3.org/1999/xlink" x="0px" y="0px"
	 viewBox="0 0 640 639.9" style="enable-background:new 0 0 640 639.9;" xml:space="preserve">
<style type="text/css">
	.st0{fill:#EEF4FF;}
	.st1{fill:#FFFFFF;stroke:#144496;stroke-width:7;stroke-miterlimit:10;}
	.st2{fill:none;stroke:#144496;stroke-width:7;stroke-linecap:round;stroke-miterlimit:10;}
	.st3{fill:none;stroke:#144496;stroke-width:7;stroke-linecap:round;stroke-linejoin:round;stroke-miterlimit:10;}
</style>
<circle class="st0" cx="320" cy="319.9" r="320"/>
<g>
	<path class="st1" d="M569,269.6h-32.4l-17.4,31.7c-1.4,2.6-5.2,2.5-6.5-0.1l-16.2-31.6H297.9c-8.9,0-16.2-7.3-16.2-16.2v-143
		c0-8.9,7.3-16.2,16.2-16.2H569c8.9,0,16.2,7.3,16.2,16.2v143C585.1,262.3,577.9,269.6,569,269.6z"/>
	<line class="st2" x1="324.8" y1="149.6" x2="378.8" y2="149.6"/>
	<line class="st3" x1="324.8" y1="182" x2="535.2" y2="182"/>
	<line class="st3" x1="324.8" y1="214.3" x2="486.7" y2="214.3"/>
	<line class="st2" x1="396.3" y1="149.6" x2="396.3" y2="149.6"/>
</g>
<g>
	<path class="st1" d="M52.9,540.7h39.8l21.3,38.9c1.7,3.2,6.3,3.1,8-0.1l19.9-38.8H386c10.9,0,19.9-8.9,19.9-19.9V345.3
		c0-10.9-8.9-19.9-19.9-19.9H53c-10.9,0-19.9,8.9-19.9,19.9v175.6C33,531.8,41.9,540.7,52.9,540.7z"/>
	<line class="st2" x1="85.9" y1="393.3" x2="192.7" y2="393.3"/>
	<line class="st3" x1="85.9" y1="433.1" x2="344.5" y2="433.1"/>
	<line class="st3" x1="85.9" y1="472.8" x2="217.4" y2="472.8"/>
	<line class="st2" x1="220.9" y1="393.3" x2="221" y2="393.3"/>
</g>
</svg>
