<?xml version="1.0" encoding="utf-8"?>
<!-- Generator: Adobe Illustrator 22.1.0, SVG Export Plug-In . SVG Version: 6.00 Build 0)  -->
<svg version="1.1" id="Layer_3" xmlns="http://www.w3.org/2000/svg" xmlns:xlink="http://www.w3.org/1999/xlink" x="0px" y="0px"
	 viewBox="0 0 640 639.7" style="enable-background:new 0 0 640 639.7;" xml:space="preserve">
<style type="text/css">
	.st0{fill:#EEF4FF;}
	.st1{fill:#FFFFFF;stroke:#144496;stroke-width:7;stroke-miterlimit:10;}
	.st2{fill:#EEF4FF;stroke:#144496;stroke-width:7;stroke-miterlimit:10;}
	.st3{fill:none;stroke:#144496;stroke-width:7;stroke-miterlimit:10;}
</style>
<circle class="st0" cx="320" cy="320" r="320"/>
<g>
	<g>
		<path class="st1" d="M227.8,449.8h-185c-3.4,0-6.2,2.8-6.2,6.2v17c0,17.1,14,31.1,31.1,31.1h503.9c17.1,0,31.1-14,31.1-31.1v-17
			c0-3.4-2.8-6.2-6.2-6.2H402.2"/>
		<path class="st1" d="M399.3,449.8h-8.9l-9.8,15.3c-1.9,3.9-5.8,6.6-10.2,6.7h-0.1H259.9h-0.1c-4.4,0-8.3-2.7-10.2-6.7l-8.6-15.3
			h-10.1H91.6V142.5c0-8.2,6.7-14.9,14.9-14.9h423.6c8.2,0,14.9,6.7,14.9,14.9v307.3H398.4"/>
		<path class="st2" d="M132.3,415.7h372.1c2.1,0,3.7-1.7,3.7-3.7V165.3c0-2.1-1.7-3.7-3.7-3.7H132.3c-2.1,0-3.7,1.7-3.7,3.7V412
			C128.5,414,130.2,415.7,132.3,415.7z"/>
	</g>
	<g>
		<path class="st3" d="M395.6,211.2"/>
		<path class="st3" d="M320.9,211.2"/>
		<path class="st3" d="M420.6,237.4"/>
		<path class="st3" d="M320.9,237.4"/>
		<path class="st3" d="M459.2,263.5"/>
		<path class="st3" d="M322.1,263.5"/>
		<path class="st3" d="M459.2,289.7"/>
		<path class="st3" d="M322.1,289.7"/>
		<path class="st3" d="M459.2,315.8"/>
		<path class="st3" d="M322.1,315.8"/>
		<path class="st3" d="M459.2,342"/>
		<path class="st3" d="M322.1,342"/>
		<path class="st3" d="M459.2,368.2"/>
		<path class="st3" d="M322.1,368.2"/>
	</g>
</g>
<g>
	<rect x="197.7" y="299.7" class="st1" width="27.4" height="68.5"/>
	<rect x="252.2" y="256" class="st1" width="27.4" height="112.2"/>
	<rect x="306.8" y="256" class="st1" width="27.4" height="112.2"/>
	<rect x="361.4" y="228" class="st1" width="27.4" height="140.2"/>
	<rect x="417.6" y="245" class="st1" width="24.1" height="123.2"/>
</g>
<line class="st3" x1="197.7" y1="210.3" x2="233.3" y2="210.3"/>
<line class="st3" x1="197.7" y1="229.3" x2="233.3" y2="229.3"/>
</svg>
