<?xml version="1.0" encoding="utf-8"?>
<!-- Generator: Adobe Illustrator 22.1.0, SVG Export Plug-In . SVG Version: 6.00 Build 0)  -->
<svg version="1.1" id="Layer_2" xmlns="http://www.w3.org/2000/svg" xmlns:xlink="http://www.w3.org/1999/xlink" x="0px" y="0px"
	 viewBox="0 0 639.7 640" style="enable-background:new 0 0 639.7 640;" xml:space="preserve">
<style type="text/css">
	.st0{fill:#EEF4FF;}
	.st1{fill:#FFFFFF;stroke:#3E4E87;stroke-width:7;stroke-miterlimit:10;}
	.st2{fill:none;stroke:#3E4E87;stroke-width:7;stroke-miterlimit:10;}
	.st3{fill:#FFFFFF;stroke:#144496;stroke-width:7;stroke-miterlimit:10;}
	.st4{fill:#EEF4FF;stroke:#144496;stroke-width:7;stroke-miterlimit:10;}
	.st5{fill:none;stroke:#144496;stroke-width:7;stroke-miterlimit:10;}
</style>
<circle class="st0" cx="319.7" cy="320" r="320"/>
<path class="st1" d="M427.5,479.9L529.6,582c13.5,13.5,35.7,13.5,49.2,0l0,0c13.5-13.5,13.5-35.7,0-49.2L476.7,430.7"/>
<line class="st2" x1="459" y1="511.5" x2="508.2" y2="462.2"/>
<circle class="st3" cx="317.4" cy="320.4" r="193.8"/>
<circle class="st3" cx="317.4" cy="320.4" r="152.2"/>
<circle class="st4" cx="229.4" cy="296.4" r="26"/>
<circle class="st4" cx="309.4" cy="376.8" r="26"/>
<circle class="st4" cx="404.4" cy="279.7" r="26"/>
<circle class="st4" cx="517.4" cy="168.2" r="26"/>
<line class="st2" x1="166.9" y1="296.4" x2="203.4" y2="296.4"/>
<line class="st5" x1="248.3" y1="314.3" x2="291.2" y2="358.3"/>
<line class="st5" x1="387.9" y1="299.8" x2="327.7" y2="358.3"/>
<line class="st5" x1="423.6" y1="262.2" x2="446.2" y2="239.4"/>
<line class="st5" x1="475.6" y1="208.5" x2="498.2" y2="185.7"/>
<line class="st5" x1="543.4" y1="168.2" x2="637.4" y2="168.2"/>
</svg>
