<?xml version="1.0" encoding="utf-8"?>
<!-- Generator: Adobe Illustrator 22.1.0, SVG Export Plug-In . SVG Version: 6.00 Build 0)  -->
<svg version="1.1" id="Layer_2" xmlns="http://www.w3.org/2000/svg" xmlns:xlink="http://www.w3.org/1999/xlink" x="0px" y="0px"
	 viewBox="0 0 639.9 677.9" style="enable-background:new 0 0 639.9 677.9;" xml:space="preserve">
<style type="text/css">
	.st0{fill:#EEF4FF;}
	.st1{fill:#FFFFFF;stroke:#144496;stroke-width:7;stroke-miterlimit:10;}
	.st2{fill:#EEF4FF;stroke:#144496;stroke-width:7;stroke-miterlimit:10;}
	.st3{fill:#3E4E87;}
</style>
<circle class="st0" cx="319.9" cy="320" r="320"/>
<path class="st1" d="M431.7,564.1V165.2c0-11-9-20-20-20H207.6c-11,0-20,9-20,20v400.4h244.1"/>
<path class="st1" d="M469.2,465.3h-78c-13.2,0-24-10.8-24-24l0,0c0-13.2,10.8-24,24-24h78c13.2,0,24,10.8,24,24l0,0
	C493.2,454.5,482.4,465.3,469.2,465.3z"/>
<path class="st1" d="M468.3,514.7h-78c-13.2,0-24-10.8-24-24l0,0c0-13.2,10.8-24,24-24h78c13.2,0,24,10.8,24,24l0,0
	C492.3,503.9,481.5,514.7,468.3,514.7z"/>
<path class="st1" d="M454.1,564.1h-78c-13.2,0-24-10.8-24-24l0,0c0-13.2,10.8-24,24-24h78c13.2,0,24,10.8,24,24l0,0
	C478.1,553.3,467.3,564.1,454.1,564.1z"/>
<path class="st1" d="M151,443.4L151,443.4c0-13.2,10.8-24,24-24h78c13.2,0,24,10.8,24,24l0,0c0,13.2-10.8,24-24,24h-13h-32.7
	c-1.1,0-1.4,1.5-0.4,1.9c13.7,6.2,63.8,32.8,63.8,94.8l92.7,1.5h3.9v88.8c0,11-9,20-20,20H171c-11,0-20-9-20-20V443.4"/>
<path class="st1" d="M417.1,613.5h-66.8c-11.3,0-20.5-10.8-20.5-24l0,0c0-13.2,9.2-24,20.5-24h66.8c11.3,0,20.5,10.8,20.5,24l0,0
	C437.7,602.7,428.4,613.5,417.1,613.5z"/>
<circle class="st2" cx="309.6" cy="506.4" r="18.5"/>
<g>
	<path class="st2" d="M264.1,360.1h102.4c18.2,0,33.1-14.9,33.1-33.1V224.5c0-18.2-14.9-33.1-33.1-33.1H264.1
		c-18.2,0-33.1,14.9-33.1,33.1v102.4C230.9,345.1,245.9,360.1,264.1,360.1z"/>
	<circle class="st1" cx="315.3" cy="275.7" r="41.5"/>
	<circle class="st3" cx="367.4" cy="225.5" r="6.5"/>
</g>
</svg>
