<?xml version="1.0" encoding="utf-8"?>
<!-- Generator: Adobe Illustrator 22.1.0, SVG Export Plug-In . SVG Version: 6.00 Build 0)  -->
<svg version="1.1" id="Слой_1" xmlns="http://www.w3.org/2000/svg" xmlns:xlink="http://www.w3.org/1999/xlink" x="0px" y="0px"
	 viewBox="0 0 449.2 413.9" style="enable-background:new 0 0 449.2 413.9;" xml:space="preserve">
<style type="text/css">
	.st0{fill:#EEF4FF;}
	.st1{fill:#FFFFFF;}
	.st2{fill:#144496;}
	.st3{clip-path:url(#SVGID_2_);}
	.st4{fill:none;}
</style>
<g id="Слой_x0020_1">
	<g id="_879834528">
		<circle class="st0" cx="224.5" cy="207" r="207"/>
		<g>
			<path class="st1" d="M448.4,153.1L359.3,64c-0.4-0.4-1-0.7-1.6-0.7s-1.2,0.2-1.6,0.7l-44.5,44.5l-0.5,0.8l-0.1,0.9l0.1,0.8
				l0.5,0.8l8.1,8.1l-13.8,13.8c-4.1,4.1-9.3,6.7-14.7,7.6c-5.5,0.9-11.2,0.3-16.5-2.1c-3.7-1.7-7.7-3-11.7-3.9
				c-4.1-0.9-8.2-1.3-12.4-1.3c-4.9,0-9.8,0.6-14.4,1.8c-4.7,1.2-9.3,3-13.5,5.3l-1.7,1l-1.9-0.5c-1.7-0.4-3.5-0.7-5.2-1
				c-1.7-0.2-3.5-0.3-5.4-0.3c-2.6,0-5.2,0.2-7.7,0.7c-2.6,0.5-5.1,1.1-7.5,2c-5.2,1.9-10.7,2.2-15.8,1.2c-5.2-1.1-9.9-3.6-13.8-7.5
				l-21.9-21.9l5.8-5.8l0.5-0.7l0.2-0.9l-0.1-0.9l-0.5-0.8L103,61.2c-0.5-0.4-1-0.7-1.6-0.7c-0.6,0-1.2,0.2-1.6,0.7L0.7,160.4
				c-0.4,0.4-0.7,1-0.7,1.6c0,0.6,0.2,1.2,0.7,1.6l44.5,44.6l0.7,0.5l0.9,0.2l0.9-0.2l0.7-0.5l6.2-6.2l16.5,16.5c2,2,3.7,4.2,5,6.7
				c1.3,2.4,2.2,5,2.7,7.8c2,11,5.7,21.5,10.9,31.2c5.1,9.7,11.7,18.7,19.6,26.6l6,5.9l-3.4,3.6c-1.9,2-3.4,4.3-4.4,6.8
				c-1,2.4-1.5,5.1-1.5,7.9c0,2.9,0.6,5.7,1.6,8.2c1,2.5,2.6,4.9,4.6,6.9c2,2,4.4,3.6,6.9,4.6c2.6,1,5.4,1.6,8.2,1.6l6.7-0.2
				l-0.3,5.5c-0.1,2.9,0.3,6,1.4,8.8c1,2.6,2.6,5.2,4.8,7.4c2,2,4.4,3.6,6.9,4.6c2.5,1,5.3,1.6,8.2,1.6l5.8-0.1l-0.1,5.2
				c-0.1,2.9,0.5,5.8,1.5,8.4c1,2.6,2.6,5,4.7,7.1c2,2,4.4,3.6,6.9,4.6c2.5,1,5.3,1.6,8.2,1.6s5.6-0.6,8.2-1.6
				c2.5-1,4.9-2.6,6.9-4.6l3.3-3.6l3.1,1.1c1,0.4,2.1,0.7,3.1,0.8l3.3,0.3c2.6,0,5.2-0.5,7.5-1.4c2.3-1,4.5-2.4,6.3-4.3
				c1-1,1.8-2,2.6-3.2c0.7-1.1,1.4-2.4,1.8-3.6l2.8-7.3l6.3,6.3c1.9,1.9,4.1,3.3,6.3,4.3c2.4,1,5,1.5,7.5,1.5c5,0,10-1.9,13.8-5.7
				c1-1,1.9-2.1,2.7-3.3c0.8-1.2,1.4-2.5,1.9-3.7l2.3-6.3l5.4,3.9c1.7,1.2,3.5,2.2,5.4,2.8c1.9,0.6,4,0.9,6.1,0.9
				c5,0,10-1.9,13.9-5.7c1.9-1.9,3.3-4,4.3-6.3c1-2.3,1.5-4.9,1.5-7.5l-0.1-2.3l-0.4-2.3l-1.2-5.1l5.2-1c1.8-0.4,3.7-1,5.3-1.9
				c1.6-0.9,3.2-2,4.6-3.4c1.9-1.9,3.3-4.1,4.3-6.3c1-2.3,1.5-4.9,1.5-7.5c0-2.1-0.3-4.1-0.9-6c-0.6-1.9-1.5-3.7-2.7-5.4l-2.5-3.5
				l8.9-8.9c8.1-8.1,14.7-17.1,19.9-27c5.1-9.8,8.8-20.5,10.8-31.7c0.5-2.5,1.3-4.8,2.5-7.1c1.2-2.2,2.7-4.3,4.5-6.1l25.5-25.5
				l7.4,7.4l0.7,0.5l0.9,0.2l0.9-0.1l0.7-0.5l44.5-44.5l0.5-0.7l0.2-0.9l-0.1-0.9l-0.5-0.7L448.4,153.1z"/>
			<path class="st2" d="M398.7,192.4l-82.3-82.3l41.3-41.4l85.9,85.9L402.3,196L398.7,192.4z M364.6,215.6c-2.2,2.2-4,4.6-5.4,7.3
				c-1.4,2.6-2.4,5.4-2.9,8.3c-1.9,10.7-5.4,20.9-10.4,30.4c-5,9.5-11.3,18.2-19,25.9l-9.2,9.2l-59.4-59.4
				c5.3,0.3,10.7,0.8,16.1,0.9c2.1,0,4.2-0.2,6.2-0.6c2.1-0.4,4.2-1,6.2-1.8c0.6-0.2,1-0.7,1.2-1.2c0.2-0.5,0.3-1.2,0-1.8
				c-0.2-0.5-0.7-1-1.2-1.2c-0.5-0.2-1.2-0.3-1.8,0c-11.2,4.6-23.1,0.8-32.5-4.5c-7.4-4.1-13.2-9.2-15.8-11.6
				c-0.3,0-10.3-10.2-11.6-11.5l10.6-10.6c0.4-0.4,0.7-1,0.7-1.6c0-0.6-0.2-1.2-0.7-1.6c-0.4-0.4-1-0.7-1.6-0.7s-1.2,0.2-1.6,0.7
				l-40.2,40.2c-3.9,3.9-9,5.8-14,5.8c-5.1,0-10.1-1.9-14-5.8c-1.8-1.8-3.3-4.1-4.3-6.5c-1-2.4-1.5-5-1.5-7.6s0.5-5.2,1.5-7.6
				c1-2.4,2.5-4.6,4.3-6.5l48.3-48.3c1.5-1.5,3.1-2.9,4.7-4.2c1.7-1.3,3.4-2.6,5.1-3.6c4.2-2.6,8.8-4.6,13.5-5.9
				c4.8-1.3,9.7-2,14.7-2c3.8,0,7.6,0.4,11.4,1.2c3.7,0.8,7.4,2,10.9,3.6c6.1,2.8,12.9,3.5,19.3,2.4c6.3-1.1,12.4-4.1,17.1-8.8
				l13.8-13.8l67.2,67.2L364.6,215.6L364.6,215.6z M318.4,325.1c-1.4,1.4-3.1,2.5-4.9,3.3c-1.8,0.7-3.8,1.2-5.8,1.2s-4-0.4-5.8-1.2
				c-1.8-0.7-3.5-1.9-4.9-3.3l-71.1-71.1c-0.5-0.4-1-0.7-1.6-0.7c-0.6,0-1.2,0.2-1.6,0.7c-0.4,0.4-0.7,1-0.7,1.6s0.2,1.2,0.7,1.6
				l76.6,76.6c1.4,1.4,2.5,3.1,3.3,4.9c0.8,1.8,1.2,3.8,1.2,5.8c0,2-0.4,3.9-1.1,5.7c-0.8,1.8-1.9,3.5-3.3,4.9
				c-2.9,2.9-6.8,4.4-10.7,4.4c-3.9,0-7.7-1.5-10.7-4.4l-72.7-72.7c-0.4-0.4-1-0.7-1.6-0.7s-1.2,0.2-1.6,0.7s-0.7,1-0.7,1.6
				s0.2,1.2,0.7,1.6l59.6,59.6c1.4,1.5,2.5,3.1,3.2,4.9c0.7,1.8,1.1,3.7,1.1,5.7c0,2-0.4,3.9-1.1,5.7c-0.8,1.8-1.9,3.5-3.3,4.9
				c-3,2.9-6.8,4.4-10.7,4.4c-3.9,0-7.7-1.5-10.7-4.4l-64.7-64.7c-0.4-0.4-1-0.7-1.6-0.7c-0.6,0-1.2,0.2-1.6,0.7
				c-0.4,0.4-0.7,1-0.7,1.6s0.2,1.2,0.7,1.6l47.9,47.9c1.4,1.5,2.6,3.1,3.3,4.9c0.7,1.8,1.2,3.8,1.2,5.8c0,2-0.4,4-1.2,5.8
				c-0.8,1.8-1.9,3.5-3.3,4.9s-3.1,2.5-4.9,3.3c-1.8,0.8-3.8,1.2-5.8,1.2c-2.6-0.2-5-0.6-7.7-1l0.7-5c0.5-3.3,0.2-6.7-0.8-9.9
				c-1-3-2.7-5.9-5.2-8.4c-2-2-4.4-3.6-6.9-4.6c-2.5-1-5.3-1.6-8.2-1.6l-5.8,0.1l0.1-5.2c0.1-2.9-0.5-5.8-1.5-8.4
				c-1-2.6-2.6-5-4.7-7.1c-2-2-4.4-3.6-6.9-4.6c-2.5-1-5.3-1.6-8.2-1.6l-6.6,0.1l0.3-5.4c0.1-3-0.3-6-1.4-8.8
				c-1-2.7-2.7-5.2-4.8-7.4c-2.6-2.6-5.8-4.5-9.2-5.4c-3.5-1-7.2-1.1-10.7-0.3l-2.7,0.6l-7.3-7.2c-7.6-7.6-13.9-16.2-18.9-25.6
				c-4.9-9.4-8.4-19.4-10.4-30c-0.6-3.2-1.7-6.2-3.1-9c-1.5-2.8-3.4-5.4-5.8-7.7l-16.5-16.5l80.8-80.8l21.9,21.9
				c3,3,6.5,5.4,10.4,6.9c3.9,1.6,8.2,2.4,12.5,2.4c2,0,3.9-0.2,5.8-0.5c1.9-0.3,3.8-0.9,5.6-1.5l3.7-1.1l3.7-0.7l15.4-2.4
				l-56.4,56.4c-2.3,2.3-4.1,5-5.3,7.9s-1.8,6-1.8,9.3c0,3.3,0.6,6.4,1.8,9.3s3,5.6,5.3,7.9c2.4,2.4,5,4.1,7.9,5.3
				c2.9,1.2,6.2,1.8,9.4,1.8c3.2,0,6.4-0.6,9.4-1.8c2.8-1.2,5.5-2.9,7.9-5.3l26.4-26.4l8.8,8.8l3,3l84.7,84.7
				c1.4,1.4,2.5,3.1,3.3,4.9c0.8,1.8,1.2,3.8,1.2,5.8s-0.4,4-1.2,5.8C320.9,322.1,319.8,323.7,318.4,325.1L318.4,325.1z
				 M193.8,381.4c-1.6,1.6-3.4,2.8-5.5,3.7c-2,0.9-4.2,1.3-6.4,1.3c-2.2,0-4.4-0.5-6.4-1.3c-2-0.9-3.9-2.1-5.5-3.6
				c-3.3-3.3-4.9-7.6-4.9-11.9s1.6-8.6,4.9-11.9c1.6-1.6,3.5-2.8,5.5-3.6c2.1-0.9,4.3-1.3,6.4-1.3c4.3,0,8.6,1.6,11.9,4.9
				s4.9,7.6,4.9,11.9S197.1,378,193.8,381.4L193.8,381.4z M154.9,359.3c-2.2,0-4.4-0.5-6.4-1.3c-2-0.8-3.9-2.1-5.5-3.7
				c-3.3-3.3-4.9-7.6-4.9-11.9c0-4.3,1.6-8.6,4.9-11.8c1.6-1.6,3.5-2.8,5.5-3.7c2.1-0.9,4.3-1.3,6.4-1.3c2.2,0,4.3,0.5,6.4,1.3
				c2,0.8,3.9,2.1,5.5,3.6c3.3,3.3,4.9,7.6,4.9,11.9c0,4.3-1.6,8.6-4.9,11.8c-1.6,1.6-3.5,2.8-5.5,3.7
				C159.3,358.8,157.1,359.3,154.9,359.3L154.9,359.3z M115.4,326.7c-1.6-1.6-2.8-3.5-3.7-5.5c-0.8-2-1.3-4.2-1.3-6.4
				s0.5-4.4,1.3-6.4c0.9-2,2.1-3.9,3.7-5.5c1.6-1.6,3.5-2.8,5.5-3.6c2.1-0.9,4.3-1.3,6.4-1.3c4.3,0,8.6,1.6,11.9,4.9
				c3.3,3.3,4.9,7.6,4.9,11.9c0,4.3-1.7,8.6-4.9,11.9c-3.3,3.3-7.6,5-11.9,5C123,331.6,118.7,330,115.4,326.7L115.4,326.7z M9,158.3
				l92.4-92.4l41.4,41.4c-32.1,31.9-64,64-96,96L5.4,161.9L9,158.3z M448.4,153L359.3,64c-0.4-0.4-1-0.7-1.6-0.7
				c-0.6,0-1.2,0.2-1.6,0.7l-44.5,44.5l-0.5,0.8l-0.1,0.9l0.1,0.8l0.5,0.8l8.1,8.1l-13.8,13.8c-4.1,4.1-9.3,6.7-14.7,7.6
				c-5.5,0.9-11.2,0.3-16.5-2.1c-3.7-1.7-7.7-3-11.7-3.9c-4.1-0.9-8.2-1.3-12.4-1.3c-4.9,0-9.8,0.6-14.4,1.8
				c-4.7,1.2-9.3,3-13.5,5.3l-1.7,1l-1.9-0.5c-1.7-0.4-3.5-0.7-5.2-1c-1.7-0.2-3.5-0.3-5.4-0.3c-2.6,0-5.2,0.2-7.7,0.7
				c-2.6,0.5-5.1,1.1-7.5,2c-5.2,1.9-10.7,2.2-15.8,1.2c-5.2-1.1-9.9-3.6-13.8-7.5l-21.9-21.9l5.8-5.8l0.5-0.7l0.2-0.9l-0.1-0.9
				l-0.5-0.8L103,61.2c-0.5-0.4-1-0.7-1.6-0.7c-0.6,0-1.2,0.2-1.6,0.7L0.6,160.4c-0.4,0.4-0.7,1-0.7,1.6s0.2,1.2,0.7,1.6l44.5,44.6
				l0.7,0.5l0.9,0.2l0.9-0.2l0.7-0.5l6.2-6.2l16.5,16.5c2,2,3.7,4.2,5,6.7c1.3,2.4,2.2,5,2.7,7.8c2,11,5.7,21.5,10.9,31.2
				c5.1,9.7,11.7,18.7,19.6,26.6l6,5.9l-3.4,3.6c-1.9,2-3.4,4.3-4.4,6.8c-1,2.4-1.5,5.1-1.5,7.9c0,2.9,0.6,5.7,1.6,8.2
				c1,2.5,2.6,4.9,4.6,6.9c2,2,4.4,3.6,6.9,4.6c2.6,1,5.4,1.6,8.2,1.6l6.7-0.2l-0.3,5.5c-0.1,2.9,0.3,6,1.4,8.8
				c1,2.6,2.6,5.2,4.8,7.4c2,2,4.4,3.6,6.9,4.6c2.5,1,5.3,1.6,8.2,1.6l5.8-0.1l-0.1,5.2c-0.1,2.9,0.5,5.8,1.5,8.4
				c1,2.6,2.6,5,4.7,7.1c2,2,4.4,3.6,6.9,4.6c2.5,1,5.3,1.6,8.2,1.6s5.6-0.6,8.2-1.6c2.5-1,4.9-2.6,6.9-4.6l3.3-3.6l3.1,1.1
				c1,0.4,2.1,0.7,3.1,0.8l3.3,0.3c2.6,0,5.2-0.5,7.5-1.4c2.3-1,4.5-2.4,6.3-4.3c1-1,1.8-2,2.6-3.2c0.7-1.1,1.4-2.4,1.8-3.6l2.8-7.3
				l6.3,6.3c1.9,1.9,4.1,3.3,6.3,4.3c2.4,1,5,1.5,7.5,1.5c5,0,10-1.9,13.8-5.7c1-1,1.9-2.1,2.7-3.3c0.8-1.2,1.4-2.5,1.9-3.7l2.3-6.3
				l5.4,3.9c1.7,1.2,3.5,2.2,5.4,2.8c1.9,0.6,4,0.9,6.1,0.9c5,0,10-1.9,13.9-5.7c1.9-1.9,3.3-4,4.3-6.3c1-2.3,1.5-4.9,1.5-7.5
				l-0.1-2.3l-0.4-2.3l-1.2-5.1l5.2-1c1.8-0.4,3.7-1,5.3-1.9c1.6-0.9,3.2-2,4.6-3.4c1.9-1.9,3.3-4.1,4.3-6.3c1-2.3,1.5-4.9,1.5-7.5
				c0-2.1-0.3-4.1-0.9-6c-0.6-1.9-1.5-3.7-2.7-5.4l-2.5-3.5l8.9-8.9c8.1-8.1,14.7-17.1,19.9-27c5.1-9.8,8.8-20.5,10.8-31.7
				c0.5-2.5,1.3-4.8,2.5-7.1c1.2-2.2,2.7-4.3,4.5-6.1l25.5-25.5l7.4,7.4l0.7,0.5l0.9,0.2l0.9-0.1l0.7-0.5l44.5-44.5l0.5-0.7l0.2-0.9
				l-0.1-0.9l-0.5-0.7L448.4,153z"/>
			<path class="st2" d="M44.5,165.9c-0.4-0.4-1-0.7-1.6-0.7s-1.2,0.3-1.6,0.7c-0.4,0.4-0.7,1-0.7,1.6c0,0.6,0.3,1.2,0.7,1.6
				s1,0.7,1.6,0.7s1.2-0.3,1.6-0.7c0.4-0.4,0.7-1,0.7-1.6C45.2,166.9,44.9,166.3,44.5,165.9L44.5,165.9z"/>
			<path class="st2" d="M411.3,158.7c-0.4-0.4-1-0.7-1.6-0.7s-1.2,0.3-1.6,0.7c-0.4,0.4-0.7,1-0.7,1.6c0,0.6,0.3,1.2,0.7,1.6
				s1,0.7,1.6,0.7s1.2-0.3,1.6-0.7c0.4-0.4,0.7-1,0.7-1.6S411.6,159.1,411.3,158.7L411.3,158.7z"/>
		</g>
		<g>
			<defs>
				<path id="SVGID_1_" d="M286.8,231.6c25.3-22.9,51.9-44.6,77.2-67.5c9.8,9.8,19.5,19.5,29.3,29.3c-13.2,6.8-27.4,23.7-32.1,32.6
					c-5.1,27.5-18.3,49.1-40,73.6c-21-20.8-46.1-44.6-67.1-65.4C265.8,237.1,278.6,237.4,286.8,231.6L286.8,231.6z"/>
			</defs>
			<clipPath id="SVGID_2_">
				<use xlink:href="#SVGID_1_"  style="overflow:visible;"/>
			</clipPath>
			<g class="st3">
				<g id="_879830880">
					<polygon class="st2" points="255.4,181.9 404.4,181.9 404.4,187.4 255.4,187.4 					"/>
					<polygon class="st2" points="255.4,215.4 404.4,215.4 404.4,220.9 255.4,220.9 					"/>
					<polygon class="st2" points="255.4,232.1 404.4,232.1 404.4,237.6 255.4,237.6 					"/>
					<polygon class="st2" points="255.4,265.6 404.4,265.6 404.4,271.1 255.4,271.1 					"/>
					<polygon class="st2" points="255.4,282.4 404.4,282.4 404.4,287.9 255.4,287.9 					"/>
					<polygon class="st2" points="255.4,198.6 404.4,198.6 404.4,204.1 255.4,204.1 					"/>
					<polygon class="st2" points="255.4,248.9 404.4,248.9 404.4,254.4 255.4,254.4 					"/>
					<polygon class="st2" points="255.4,165.1 404.4,165.1 404.4,170.7 255.4,170.7 					"/>
				</g>
			</g>
		</g>
		<path class="st4" d="M286.8,231.6c25.3-22.9,51.9-44.6,77.2-67.5c9.8,9.8,19.5,19.5,29.3,29.3c-13.2,6.8-27.4,23.7-32.1,32.6
			c-5.1,27.5-18.3,49.1-40,73.6c-21-20.8-46.1-44.6-67.1-65.4C265.8,237.1,278.6,237.4,286.8,231.6L286.8,231.6z"/>
	</g>
</g>
</svg>
