<?xml version="1.0" encoding="utf-8"?>
<!-- Generator: Adobe Illustrator 22.1.0, SVG Export Plug-In . SVG Version: 6.00 Build 0)  -->
<svg version="1.1" id="Слой_1" xmlns="http://www.w3.org/2000/svg" xmlns:xlink="http://www.w3.org/1999/xlink" x="0px" y="0px"
	 viewBox="0 0 414.1 414.1" style="enable-background:new 0 0 414.1 414.1;" xml:space="preserve">
<style type="text/css">
	.st0{fill:#EEF4FF;}
	.st1{fill:#FFFFFF;}
	.st2{fill:#144496;}
	.st3{clip-path:url(#SVGID_2_);}
	.st4{fill:none;}
</style>
<g id="Слой_x0020_1">
	<g id="_886823152">
		<circle class="st0" cx="207" cy="207" r="207"/>
		<path class="st1" d="M103.9,382.7l0.9,0.6l1.1,0.2l1.1-0.2l0.9-0.6l23.4-23.4c3.3-3.3,5.8-7.2,7.3-11.4s2.1-8.8,1.6-13.4l-0.2-2.3
			l10.1-9.7c3.8-3.6,8.2-6.5,12.9-8.4c4.8-1.9,9.9-2.9,15.1-2.9h100.3c8.4,0,16.5-1.6,24-4.6c7.5-3.1,14.4-7.5,20.4-13.3l68.6-82.3
			c4.6-5.4,6.5-12.2,6-18.8c-0.5-6.5-3.6-12.9-9-17.5l-0.3-0.3c-5.3-4.3-11.9-6.2-18.3-5.7c-6.5,0.5-12.9,3.5-17.4,8.8
			c-5,5.5-10.6,11-15.8,16.4V33.2c0-0.8-0.3-1.5-0.8-2c-0.5-0.5-1.2-0.8-2-0.8H137.7c-0.8,0-1.5,0.3-2,0.8c-0.5,0.5-0.8,1.2-0.8,2
			v174.7l-3.8,0.8c-14,2.9-26.6,8.8-37.1,17c-10.5,8.2-19.1,18.9-25.1,31.6l-1.4,2.9l-3.2-0.2c-4.3-0.2-8.6,0.5-12.5,2
			c-3.9,1.5-7.5,3.9-10.7,7l-23.5,23.4l-0.6,0.9l-0.2,1.1l0.2,1.1l0.6,0.9L103.9,382.7L103.9,382.7z"/>
		<path class="st2" d="M184.1,263.3c0.5-0.6,0.8-1.3,0.8-2c0-0.7-0.3-1.4-0.8-2c-0.5-0.5-1.3-0.8-2-0.8c-0.7,0-1.4,0.3-2,0.8
			c-0.5,0.5-0.8,1.3-0.8,2c0,0.7,0.3,1.5,0.8,2c0.5,0.5,1.3,0.8,2,0.8C182.9,264.1,183.6,263.9,184.1,263.3L184.1,263.3z
			 M103.9,382.7l0.9,0.6l1.1,0.2l1.1-0.2l0.9-0.6l23.4-23.4c3.3-3.3,5.8-7.2,7.3-11.4s2.1-8.8,1.6-13.4l-0.2-2.3l10.1-9.7
			c3.8-3.6,8.2-6.5,12.9-8.4c4.8-1.9,9.9-2.9,15.1-2.9h100.3c8.4,0,16.5-1.6,24-4.6c7.5-3.1,14.4-7.5,20.4-13.3l68.6-82.3
			c4.6-5.4,6.5-12.2,6-18.8c-0.5-6.5-3.6-12.9-9-17.5l-0.3-0.3c-5.3-4.3-11.9-6.2-18.3-5.7c-6.5,0.5-12.9,3.5-17.4,8.8
			c-5,5.5-10.6,11-15.8,16.4V33.2c0-0.8-0.3-1.5-0.8-2c-0.5-0.5-1.2-0.8-2-0.8H137.7c-0.8,0-1.5,0.3-2,0.8c-0.5,0.5-0.8,1.2-0.8,2
			v174.7l-3.8,0.8c-14,2.9-26.6,8.8-37.1,17c-10.5,8.2-19.1,18.9-25.1,31.6l-1.4,2.9l-3.2-0.2c-4.3-0.2-8.6,0.5-12.5,2
			c-3.9,1.5-7.5,3.9-10.7,7l-23.5,23.4l-0.6,0.9l-0.2,1.1l0.2,1.1l0.6,0.9L103.9,382.7L103.9,382.7z M330.8,40.8v158.9l-27.2,28.1
			l-3.4-4.2c-2.4-3-5.5-5.4-9-7.1c-3.3-1.6-7.1-2.5-11-2.5c-15.8,0-81.5,2.9-91.7-0.7c-5.6-2.3-11.5-4.1-17.4-5.2
			c-5.9-1.1-12-1.7-18.1-1.7c-4.2,0.1-8.3,0.3-12.4,0.5V36h190.3L330.8,40.8L330.8,40.8z M138.1,213.1c8.3-1.2,16.6-1.4,24.9-0.5
			c7.8,0.9,15.6,2.8,23.4,6l2.8,0.8l2.7,0.3h88.4c5.5,0,10.5,2.3,14.2,5.9c3.6,3.6,5.9,8.6,5.9,14.2c0,5.5-2.3,10.5-5.9,14.1
			c-3.7,3.6-8.7,5.9-14.2,5.9h-66.3c-0.8,0-1.5,0.3-2,0.8c-0.5,0.5-0.8,1.2-0.8,2c0,0.8,0.3,1.5,0.8,2c0.5,0.5,1.2,0.8,2,0.8h66.3
			c7.1,0,13.5-2.9,18.1-7.5c4.6-4.6,7.5-11.1,7.5-18.2c-0.1-2-0.3-3.8-0.5-5.8c16.7-17.3,35-35,51-52.8c3.6-4.1,8.5-6.5,13.5-6.9
			c5.1-0.4,10.4,1.1,14.6,4.6c4.2,3.6,6.6,8.5,7,13.7c0.4,5.1-1.1,10.4-4.7,14.6l-68.4,82.1c-5.4,5.2-11.7,9.3-18.5,12
			c-6.8,2.7-14.2,4.2-21.7,4.2H177.9c-6,0-11.8,1.1-17.2,3.3c-5.4,2.2-10.4,5.4-14.7,9.6l-7.5,7.3l-5.1-7.5l-2.2-2.4L84.4,269
			c-1.1-1.1-2.3-2.1-3.4-2.9c-1.3-0.9-2.6-1.8-3.9-2.4l-4.1-2.2l2.1-4.2c6.2-12.2,14.9-22.3,25.5-29.7
			C111.3,220.1,123.9,215.2,138.1,213.1L138.1,213.1z M45.1,273c4.9-4.9,11.3-7.4,17.7-7.4c6.4,0,12.9,2.5,17.7,7.4l46.8,46.8
			c4.8,4.9,7.3,11.3,7.3,17.7c0,6.4-2.4,12.8-7.3,17.7l-21.4,21.4l-82.3-82.2L45.1,273L45.1,273z M195.1,87.3v15.3
			c0,11.3,4.6,21.5,12,28.9c7.4,7.4,17.6,12,28.9,12c11.3,0,21.5-4.6,28.9-12c7.4-7.4,12-17.6,12-28.9V82.5h4.8c0.8,0,1.5-0.3,2-0.8
			c0.5-0.5,0.8-1.2,0.8-2c0-0.8-0.3-1.5-0.8-2c-0.5-0.5-1.2-0.8-2-0.8h-15.3c-0.8,0-1.5,0.3-2,0.8c-0.5,0.5-0.8,1.2-0.8,2
			c0,0.8,0.3,1.5,0.8,2c0.5,0.5,1.2,0.8,2,0.8h4.8v20.1c0,9.7-4,18.5-10.3,24.9c-6.4,6.4-15.3,10.4-24.9,10.4
			c-9.7,0-18.6-4-24.9-10.3c-6.4-6.4-10.3-15.2-10.3-25V82.5h4.8c0.8,0,1.5-0.3,2-0.8c0.5-0.5,0.8-1.2,0.8-2c0-0.8-0.3-1.5-0.8-2
			c-0.5-0.5-1.2-0.8-2-0.8h-15.3c-0.8,0-1.5,0.3-2,0.8c-0.5,0.5-0.8,1.2-0.8,2c0,0.8,0.3,1.5,0.8,2c0.5,0.5,1.2,0.8,2,0.8h4.8V87.3
			L195.1,87.3z"/>
		<g>
			<defs>
				<path id="SVGID_1_" d="M19.3,294.3c29.2,28.7,58.5,57.3,87.7,86c8.3-8.6,16.7-17.2,25-25.8c9.6-10.9,9.8-22.5-0.6-34.7
					c-17.4-17.1-34.8-34.2-52.2-51.2c-10.8-8.5-22-8.8-33.5,0.2C36.9,277.3,28.1,285.8,19.3,294.3z"/>
			</defs>
			<clipPath id="SVGID_2_">
				<use xlink:href="#SVGID_1_"  style="overflow:visible;"/>
			</clipPath>
			<g class="st3">
				<g id="_886827152">
					<g>
						<g>
							<polygon class="st2" points="-34.9,291 191.2,291 191.2,296.5 -34.9,296.5 							"/>
							<polygon class="st2" points="-34.9,324.5 191.2,324.5 191.2,330 -34.9,330 							"/>
							<polygon class="st2" points="-34.9,341.2 191.2,341.2 191.2,346.8 -34.9,346.8 							"/>
							<polygon class="st2" points="-34.9,374.7 191.2,374.7 191.2,380.2 -34.9,380.2 							"/>
							<polygon class="st2" points="-34.9,391.5 191.2,391.5 191.2,397 -34.9,397 							"/>
							<polygon class="st2" points="-34.9,307.7 191.2,307.7 191.2,313.3 -34.9,313.3 							"/>
							<polygon class="st2" points="-34.9,358 191.2,358 191.2,363.5 -34.9,363.5 							"/>
							<polygon class="st2" points="-34.9,274.2 191.2,274.2 191.2,279.8 -34.9,279.8 							"/>
						</g>
						<g>
							<polygon class="st2" points="-34.9,424.7 191.2,424.7 191.2,430.3 -34.9,430.3 							"/>
							<polygon class="st2" points="-34.9,458.3 191.2,458.3 191.2,463.8 -34.9,463.8 							"/>
							<polygon class="st2" points="-34.9,475 191.2,475 191.2,480.5 -34.9,480.5 							"/>
							<polygon class="st2" points="-34.9,508.5 191.2,508.5 191.2,514 -34.9,514 							"/>
							<polygon class="st2" points="-34.9,525.2 191.2,525.2 191.2,530.8 -34.9,530.8 							"/>
							<polygon class="st2" points="-34.9,441.5 191.2,441.5 191.2,447 -34.9,447 							"/>
							<polygon class="st2" points="-34.9,491.8 191.2,491.8 191.2,497.3 -34.9,497.3 							"/>
							<polygon class="st2" points="-34.9,408 191.2,408 191.2,413.5 -34.9,413.5 							"/>
						</g>
					</g>
				</g>
			</g>
		</g>
		<path class="st4" d="M19.3,294.3c29.2,28.7,58.5,57.3,87.7,86c8.3-8.6,16.7-17.2,25-25.8c9.6-10.9,9.8-22.5-0.6-34.7
			c-17.4-17.1-34.8-34.2-52.2-51.2c-10.8-8.5-22-8.8-33.5,0.2C36.9,277.3,28.1,285.8,19.3,294.3z"/>
	</g>
</g>
</svg>
