<?xml version="1.0" encoding="utf-8"?>
<!-- Generator: Adobe Illustrator 22.1.0, SVG Export Plug-In . SVG Version: 6.00 Build 0)  -->
<svg version="1.1" id="Слой_1" xmlns="http://www.w3.org/2000/svg" xmlns:xlink="http://www.w3.org/1999/xlink" x="0px" y="0px"
	 viewBox="0 0 414.1 414.1" style="enable-background:new 0 0 414.1 414.1;" xml:space="preserve">
<style type="text/css">
	.st0{fill:#EEF4FF;}
	.st1{fill:#FFFFFF;}
	.st2{fill:#144496;}
	.st3{fill:#4E73B1;}
</style>
<g id="Слой_x0020_1">
	<g id="_925682736">
		<circle class="st0" cx="207" cy="207" r="207"/>
		<g>
			<path class="st1" d="M347.5,167.1h-83.1c-2.7,0-5.2,1.1-6.9,2.9c-1.8,1.8-2.9,4.3-2.9,6.9v17c0,1.1,0.2,2.2,0.5,3.2
				c0.3,1,0.9,2,1.6,2.9l1.6,2.1l-1.6,2.1c-0.7,0.8-1.2,1.8-1.6,2.8c-0.3,1-0.5,2.1-0.5,3.2c0,12.2-1,14.8,2,25.3
				c-12.8-3.5-24.6-2-38.1-2c-0.5,0-0.9,0.2-1.2,0.5c-0.3,0.3-0.5,0.7-0.5,1.2c0,0.5,0.2,0.9,0.5,1.2c0.3,0.3,0.7,0.5,1.2,0.5h29.7
				c1.7,0,3.4,0.7,4.5,1.9c1.2,1.2,1.9,2.8,1.9,4.5v17c0,1.7-0.7,3.3-1.9,4.5c-1.2,1.2-2.8,1.9-4.5,1.9H165c-1.7,0-3.3-0.7-4.5-1.9
				c-1.2-1.2-1.9-2.8-1.9-4.5v-17c0-1.7,0.7-3.3,1.9-4.5s2.8-1.9,4.5-1.9h29.7c0.5,0,0.9-0.2,1.2-0.5c0.3-0.3,0.5-0.7,0.5-1.2
				c0-0.5-0.2-0.9-0.5-1.2c-0.3-0.3-0.7-0.5-1.2-0.5H165c-2.7,0-5.2,1.1-6.9,2.9c-1.8,1.8-2.9,4.3-2.9,6.9v17c0,1.1,0.2,2.2,0.5,3.2
				c0.3,1,0.9,2,1.6,2.9l1.6,2.1l-1.6,2.1c-0.7,0.9-1.2,1.8-1.6,2.9c-0.3,1-0.5,2.1-0.5,3.2v17c0.2,2.9,1.2,5.6,2,8.4
				c-2.9-0.8-6.2-1.4-9.7-2H66.9c-3.3,0-5.7,0.4-8.2,2.9c-1.8,1.8-2.9,4.3-2.9,6.9v17c0,1.1,0.2,2.2,0.5,3.2c0.3,1,0.9,2,1.6,2.9
				l1.6,2.1l-1.6,2.1c-0.7,0.9-1.2,1.8-1.6,2.9c-0.3,1-0.5,2.1-0.5,3.2v17c0,2.7,1.1,5.2,2.9,6.9c1.8,1.8,4.3,2.9,6.9,2.9h83.1
				c1.1,0,2.2-0.2,3.2-0.5c1-0.3,2-0.9,2.9-1.6l2.1-1.6l2.1,1.6c0.9,0.7,1.8,1.2,2.9,1.6c1,0.3,2.1,0.5,3.2,0.5h83.1
				c1.1,0,2.2-0.2,3.2-0.5c1-0.3,2-0.9,2.9-1.6l2.1-1.6l2.1,1.6c0.9,0.7,1.8,1.2,2.9,1.6c1,0.3,2.1,0.5,3.2,0.5h83.1
				c2.7,0,5.2-1.1,6.9-2.9c1.8-1.8,2.9-4.3,2.9-6.9v-17c0-1.1-0.2-2.2-0.5-3.2c-0.3-1-0.9-2-1.6-2.9l-1.6-2.1l1.6-2.1
				c0.7-0.9,1.2-1.8,1.6-2.9c0.3-1,0.5-2.1,0.5-3.2v-17c0-1.1-0.2-2.2-0.5-3.2c-0.3-1-0.9-2-1.6-2.9l-1.6-2.1l1.6-2.1
				c0.7-0.9,1.2-1.8,1.6-2.9c0.3-1,0.5-2.1,0.5-3.2v-17c0-1.1-0.2-2.2-0.5-3.2c-0.3-1-0.9-2-1.6-2.9l-1.6-2.1l1.6-2.1
				c0.7-0.9,1.2-1.8,1.6-2.9c0.3-1,0.5-2.1,0.5-3.2v-17c0-1.1-0.2-2.2-0.5-3.2c-0.3-1-0.9-2-1.6-2.9l-1.6-2.1l1.6-2.1
				c0.7-0.9,1.2-1.8,1.6-2.9c0.3-1,0.5-2.1,0.5-3.2v-17c0-1.1-0.2-2.2-0.5-3.2c-0.3-1-0.9-2-1.6-2.9l-1.6-2.1l1.6-2.1
				c0.7-0.9,1.2-1.8,1.6-2.9c0.3-1,0.5-2.1,0.5-3.2v-17c0-2.7-1.1-5.2-2.9-6.9c-1.8-1.8-4.3-2.9-6.9-2.9H347.5z"/>
			<path class="st2" d="M65.4,278.4l0.7-0.1l0.6-0.4l160.5-160.5V135c0,0.5,0.2,0.9,0.5,1.2c0.3,0.3,0.7,0.5,1.2,0.5
				c0.5,0,0.9-0.2,1.2-0.5c0.3-0.3,0.5-0.7,0.5-1.2v-21.7c0-0.5-0.2-0.9-0.5-1.2c-0.3-0.3-0.7-0.5-1.2-0.5h-21.7
				c-0.5,0-0.9,0.2-1.2,0.5c-0.3,0.3-0.5,0.7-0.5,1.2s0.2,0.9,0.5,1.2c0.3,0.3,0.7,0.5,1.2,0.5h17.4L64.2,275.4
				c-0.3,0.3-0.5,0.8-0.5,1.2c0,0.4,0.2,0.9,0.5,1.2l0.5,0.4L65.4,278.4L65.4,278.4z"/>
			<path class="st1" d="M159.5,234.7h94.7c1,0,1.7,3,1.7,6.6v20.3c0,3.7-0.8,6.6-1.7,6.6h-94.7c-1,0-1.7-3-1.7-6.6v-20.3
				C157.7,237.7,158.5,234.7,159.5,234.7z"/>
			<path class="st2" d="M353.9,359.8c0,1.7-0.7,3.3-1.9,4.5c-1.2,1.2-2.8,1.9-4.5,1.9h-83.1c-1.7,0-3.3-0.7-4.5-1.9
				c-1.2-1.2-1.9-2.8-1.9-4.5v-17c0-1.7,0.7-3.4,1.9-4.5c1.2-1.2,2.8-1.9,4.5-1.9h83.1c1.7,0,3.4,0.7,4.5,1.9
				c1.1,1.2,1.9,2.8,1.9,4.5L353.9,359.8L353.9,359.8z M248.1,366.2H165c-1.7,0-3.3-0.7-4.5-1.9s-1.9-2.8-1.9-4.5v-17
				c0-1.7,0.7-3.4,1.9-4.5s2.8-1.9,4.5-1.9h83.1c1.7,0,3.4,0.7,4.5,1.9s1.9,2.8,1.9,4.5v17c0,1.7-0.7,3.3-1.9,4.5
				C251.5,365.4,249.9,366.2,248.1,366.2L248.1,366.2z M148.8,366.2H65.7c-1.7,0-3.3-0.7-4.5-1.9c-1.2-1.2-1.9-2.8-1.9-4.5v-17
				c0-1.7,0.7-3.4,1.9-4.5s2.8-1.9,4.5-1.9h83.1c1.7,0,3.3,0.7,4.5,1.9c1.2,1.2,1.9,2.8,1.9,4.5v17c0,1.7-0.7,3.4-1.9,4.5
				C152.1,365.4,150.5,366.2,148.8,366.2z M59.3,309.6c0-1.7,0.7-3.4,1.9-4.5c1.2-1.2,2.8-1.9,4.5-1.9h83.1c1.7,0,3.3,0.7,4.5,1.9
				c1.2,1.2,1.9,2.8,1.9,4.5v17c0,1.7-0.7,3.4-1.9,4.5c-1.2,1.2-2.8,1.9-4.5,1.9H65.7c-1.7,0-3.3-0.7-4.5-1.9
				c-1.2-1.2-1.9-2.8-1.9-4.5V309.6z M248.1,270c1.7,0,3.4,0.7,4.5,1.9s1.9,2.8,1.9,4.5v17c0,1.7-0.7,3.3-1.9,4.5
				c-1.2,1.2-2.8,1.9-4.5,1.9h-83.1c-1.7,0-3.3-0.7-4.5-1.9c-1.2-1.2-1.9-2.8-1.9-4.5v-17c0-1.7,0.7-3.4,1.9-4.5
				c1.2-1.2,2.8-1.9,4.5-1.9H248.1L248.1,270z M158.6,326.6v-17c0-1.7,0.7-3.4,1.9-4.5c1.2-1.2,2.8-1.9,4.5-1.9h83.1
				c1.7,0,3.4,0.7,4.5,1.9c1.2,1.2,1.9,2.8,1.9,4.5v17c0,1.7-0.7,3.3-1.9,4.5c-1.2,1.2-2.8,1.9-4.5,1.9h-83.1
				c-1.7,0-3.3-0.7-4.5-1.9C159.4,330,158.7,328.3,158.6,326.6L158.6,326.6z M353.9,309.6v17c0,1.7-0.7,3.3-1.9,4.5
				c-1.2,1.2-2.8,1.9-4.5,1.9h-83.1c-1.7,0-3.3-0.7-4.5-1.9c-1.2-1.2-1.9-2.8-1.9-4.5v-17c0-1.7,0.7-3.4,1.9-4.5
				c1.2-1.2,2.8-1.9,4.5-1.9h83.1c1.7,0,3.4,0.7,4.5,1.9C353.1,306.3,353.9,307.9,353.9,309.6L353.9,309.6z M353.9,276.4v17
				c0,1.7-0.7,3.3-1.9,4.5c-1.2,1.2-2.8,1.9-4.5,1.9h-83.1c-1.7,0-3.3-0.7-4.5-1.9c-1.2-1.2-1.9-2.8-1.9-4.5v-17
				c0-1.7,0.7-3.4,1.9-4.5s2.8-1.9,4.5-1.9h83.1c1.7,0,3.4,0.7,4.5,1.9C353.1,273.1,353.9,274.7,353.9,276.4L353.9,276.4z
				 M353.9,243.2v17c0,1.7-0.7,3.3-1.9,4.5c-1.2,1.2-2.8,1.9-4.5,1.9h-83.1c-1.7,0-3.3-0.7-4.5-1.9c-1.2-1.2-1.9-2.8-1.9-4.5v-17
				c0-1.7,0.7-3.3,1.9-4.5c1.2-1.2,2.8-1.9,4.5-1.9h83.1c1.7,0,3.4,0.7,4.5,1.9C353.1,239.9,353.9,241.5,353.9,243.2L353.9,243.2z
				 M353.9,210v17c0,1.7-0.7,3.3-1.9,4.5c-1.2,1.2-2.8,1.9-4.5,1.9h-83.1c-1.7,0-3.3-0.7-4.5-1.9c-1.2-1.2-1.9-2.8-1.9-4.5v-17
				c0-1.7,0.7-3.3,1.9-4.5c1.2-1.2,2.8-1.9,4.5-1.9h83.1c1.7,0,3.4,0.7,4.5,1.9C353.1,206.7,353.9,208.3,353.9,210L353.9,210z
				 M258,176.9c0-1.7,0.7-3.3,1.9-4.5c1.2-1.2,2.8-1.9,4.5-1.9h83.1c1.7,0,3.4,0.7,4.5,1.9c1.2,1.2,1.9,2.8,1.9,4.5v17
				c0,1.7-0.7,3.3-1.9,4.5s-2.8,1.9-4.5,1.9h-83.1c-1.7,0-3.4-0.7-4.5-1.9s-1.9-2.8-1.9-4.5V176.9z M347.5,167h-83.1
				c-2.7,0-5.2,1.1-6.9,2.9c-1.8,1.8-2.9,4.3-2.9,6.9v17c0,1.1,0.2,2.2,0.5,3.2c0.3,1,0.9,2,1.6,2.9l1.6,2.1l-1.6,2.1
				c-0.7,0.8-1.2,1.8-1.6,2.8c-0.3,1-0.5,2.1-0.5,3.2c0,12.2-1,14.8,2,25.3c-12.8-3.5-24.6-2-38.1-2c-0.5,0-0.9,0.2-1.2,0.5
				c-0.3,0.3-0.5,0.7-0.5,1.2s0.2,0.9,0.5,1.2c0.3,0.3,0.7,0.5,1.2,0.5h29.7c1.7,0,3.4,0.7,4.5,1.9c1.2,1.2,1.9,2.8,1.9,4.5v17
				c0,1.7-0.7,3.3-1.9,4.5c-1.2,1.2-2.8,1.9-4.5,1.9H165c-1.7,0-3.3-0.7-4.5-1.9s-1.9-2.8-1.9-4.5v-17c0-1.7,0.7-3.3,1.9-4.5
				c1.2-1.2,2.8-1.9,4.5-1.9h29.7c0.5,0,0.9-0.2,1.2-0.5c0.3-0.3,0.5-0.7,0.5-1.2s-0.2-0.9-0.5-1.2c-0.3-0.3-0.7-0.5-1.2-0.5H165
				c-2.7,0-5.2,1.1-6.9,2.9c-1.8,1.8-2.9,4.3-2.9,6.9v17c0,1.1,0.2,2.2,0.5,3.2c0.3,1,0.9,2,1.6,2.9l1.6,2.1l-1.6,2.1
				c-0.7,0.9-1.2,1.8-1.6,2.9c-0.3,1-0.5,2.1-0.5,3.2v17c0.2,2.9,1.2,5.6,2,8.4c-2.9-0.8-6.2-1.4-9.7-2H66.9h-1.2
				c-2.7,0-5.2,1.1-6.9,2.9c-1.8,1.8-2.9,4.3-2.9,6.9v17c0,1.1,0.2,2.2,0.5,3.2c0.3,1,0.9,2,1.6,2.9l1.6,2.1l-1.6,2.1
				c-0.7,0.9-1.2,1.8-1.6,2.9c-0.3,1-0.5,2.1-0.5,3.2v17c0,2.7,1.1,5.2,2.9,6.9c1.8,1.8,4.3,2.9,6.9,2.9h83.1c1.1,0,2.2-0.2,3.2-0.5
				c1-0.3,2-0.9,2.9-1.6l2.1-1.6l2.1,1.6c0.9,0.7,1.8,1.2,2.9,1.6c1,0.3,2.1,0.5,3.2,0.5h83.1c1.1,0,2.2-0.2,3.2-0.5
				c1-0.3,2-0.9,2.9-1.6l2.1-1.6l2.1,1.6c0.9,0.7,1.8,1.2,2.9,1.6c1,0.3,2.1,0.5,3.2,0.5h83.1c2.7,0,5.2-1.1,6.9-2.9
				c1.8-1.8,2.9-4.3,2.9-6.9v-17c0-1.1-0.2-2.2-0.5-3.2c-0.3-1-0.9-2-1.6-2.9l-1.6-2.1l1.6-2.1c0.7-0.9,1.2-1.8,1.6-2.9
				c0.3-1,0.5-2.1,0.5-3.2v-17c0-1.1-0.2-2.2-0.5-3.2c-0.3-1-0.9-2-1.6-2.9l-1.6-2.1l1.6-2.1c0.7-0.9,1.2-1.8,1.6-2.9
				c0.3-1,0.5-2.1,0.5-3.2v-17c0-1.1-0.2-2.2-0.5-3.2c-0.3-1-0.9-2-1.6-2.9l-1.6-2.1l1.6-2.1c0.7-0.9,1.2-1.8,1.6-2.9
				c0.3-1,0.5-2.1,0.5-3.2v-17c0-1.1-0.2-2.2-0.5-3.2c-0.3-1-0.9-2-1.6-2.9l-1.6-2.1l1.6-2.1c0.7-0.9,1.2-1.8,1.6-2.9
				c0.3-1,0.5-2.1,0.5-3.2v-17c0-1.1-0.2-2.2-0.5-3.2c-0.3-1-0.9-2-1.6-2.9l-1.6-2.1l1.6-2.1c0.7-0.9,1.2-1.8,1.6-2.9
				c0.3-1,0.5-2.1,0.5-3.2v-17c0-2.7-1.1-5.2-2.9-6.9c-1.8-1.8-4.3-2.9-6.9-2.9H347.5z"/>
			<rect x="181.4" y="233.4" class="st2" width="44.2" height="3.4"/>
			<polygon class="st2" points="55.9,128.2 182.8,128.2 182.8,131.1 55.9,131.1 			"/>
			<polygon class="st2" points="55.9,163.2 148.1,163.2 148.1,166.1 55.9,166.1 			"/>
			<polygon class="st2" points="55.9,198.3 112.9,198.3 112.9,201.1 55.9,201.1 			"/>
			<polygon class="st2" points="55.9,233.3 78.4,233.3 78.4,236.2 55.9,236.2 			"/>
			<polygon class="st2" points="55.9,145.7 165.7,145.7 165.7,148.6 55.9,148.6 			"/>
			<polygon class="st2" points="55.9,180.7 130.5,180.7 130.5,183.6 55.9,183.6 			"/>
			<polygon class="st2" points="55.9,215.8 95.6,215.8 95.6,218.7 55.9,218.7 			"/>
			<polygon class="st3" points="55.9,250.8 60.3,250.8 60.3,253.7 55.9,253.7 			"/>
			<path class="st1" d="M361.9,77.9v-0.1c-0.4-2.7-1-5.3-1.8-7.9l0-0.1c-0.3-0.9-0.6-1.8-0.9-2.6l-0.1-0.2l-0.1-0.3l-0.1-0.1
				l-0.1-0.2l-0.7-1.7l0,0c-0.8-1.9-1.7-3.7-2.7-5.5c-3.2-5.8-7.5-11-12.5-15.4c-4.1-3.6-8.8-6.5-13.7-8.7l-0.1-0.1l-0.3-0.1
				l-0.3-0.1l0,0l-0.3-0.1l-0.3-0.1h0l-0.3-0.1l-0.3-0.1l-0.1,0l-0.2-0.1l-0.3-0.1l-0.1-0.1l-0.2-0.1l-0.3-0.1l-0.2-0.1l-0.1,0
				l-0.3-0.1l-0.3-0.1h0l-0.3-0.1l-0.3-0.1h0l-0.3-0.1l-0.3-0.1l-0.1,0l-0.2-0.1l-0.3-0.1l-0.2-0.1l-0.1,0l-0.3-0.1l-0.2-0.1h-0.1
				l-0.3-0.1l-0.3-0.1l0,0l-0.3-0.1l-0.3-0.1l-0.1,0l-0.2-0.1L321,32l-0.1-0.1l-0.2,0l-0.3-0.1l-0.2-0.1l-0.1,0l-0.3-0.1l-0.3-0.1
				l0,0l-0.3-0.1l-0.3-0.1h-0.1l-0.3-0.1l-0.3-0.1l-0.1,0l-0.2,0l-0.3-0.1l-0.2-0.1l-0.1,0l-0.3-0.1l-0.3-0.1h0l-0.3-0.1l-0.3-0.1
				H316l-0.3-0.1l-0.3-0.1l-0.1,0l-0.2,0l-0.3-0.1l-0.2,0h-0.1l-0.3-0.1l-0.3,0h0l-0.3,0l-0.3-0.1h-0.1l-0.3,0l-0.3,0l-0.1,0l-0.2,0
				l-0.3,0l-0.2,0h-0.1l-0.3,0l-0.3,0l0,0l-0.3,0l-0.3,0h-0.1h-0.2l-0.3,0h-0.2h-0.1l-0.3,0h-0.3h-0.1h-0.3h-0.3h0h-0.3h-0.3h-0.1
				h-0.2H307h-0.2h-0.1h-0.3H306l0,0h-0.3h-0.3h-0.1h-0.2h-0.3h-0.2h-0.1h-0.3h-0.3h0h-0.3h-0.3h-0.1h-0.3l-0.3,0h-0.1h-0.2l-0.3,0
				h-0.2h-0.1l-0.3,0l-0.3,0l-0.3,0l-0.3,0h-0.1l-0.2,0l-0.3,0l-0.2,0l-0.1,0l-0.3,0l-0.3,0h-0.1l-0.3,0.1l-0.3,0h0l-0.3,0.1
				l-0.3,0.1h-0.1l-0.2,0l-0.3,0.1l-0.2,0l-0.1,0l-0.3,0.1l-0.3,0.1H296l-0.3,0.1l-0.3,0.1h0l-0.3,0.1l-0.3,0.1l-0.1,0l-0.2,0.1
				l-0.3,0.1l-0.2,0l-0.1,0l-0.3,0.1l-0.2,0.1h-0.1l-0.3,0.1l-0.3,0.1l0,0l-0.3,0.1l-0.3,0.1l-0.1,0l-0.2,0.1l-0.3,0.1l-0.1,0
				l-0.1,0.1l-0.3,0.1l-0.2,0.1l-0.1,0l-0.3,0.1l-0.3,0.1l0,0l-0.3,0.1l-0.3,0.1h-0.1l-0.3,0.1l-0.3,0.1l-0.1,0l-0.2,0.1l-0.3,0.1
				l-0.6,0.2l-0.3,0.1l0,0l-0.3,0.1l-0.3,0.1h0l-0.3,0.1l-0.3,0.1l-0.1,0l-0.2,0.1l-0.3,0.1l-0.1,0.1l-0.1,0.1l-0.3,0.1l-0.2,0.1
				l-0.1,0l-0.3,0.1l-0.3,0.1h0l-0.3,0.1l-0.3,0.1h0l-0.3,0.1L283,35l-0.1,0.1l-0.2,0.1l-0.3,0.1l-0.1,0.1l-0.1,0.1l-0.3,0.1
				l-0.2,0.1l-0.1,0l-0.3,0.1l-0.3,0.1h0l-0.3,0.1l-0.3,0.1h0l-0.5,0.3l-0.1,0.1l-0.2,0.1l-0.4,0.2l-0.1,0.1
				c-3.5,1.9-6.8,4.2-9.8,6.8c-5.1,4.4-9.3,9.6-12.5,15.4l-1.2,2.4l0,0.1l-0.3,0.6l0,0l-0.1,0.3l-0.1,0.3l0,0.1l-0.2,0.5l-0.1,0.1
				l-0.1,0.2l-0.1,0.3l-0.1,0.2l-0.1,0.1l-0.2,0.5l0,0l-0.2,0.6v0l-0.1,0.3l-0.1,0.3l0,0.1l-0.1,0.2l-0.1,0.3l-0.1,0.2l-0.1,0.1
				l-0.1,0.3l-0.1,0.2l0,0.1l-0.1,0.3l-0.1,0.3v0l-0.1,0.3l-0.1,0.3l0,0.1l-0.1,0.2l-0.1,0.3l-0.1,0.2l-0.1,0.1l-0.1,0.3l-0.1,0.2
				l0,0.1l-0.1,0.3l-0.1,0.3l0,0l-0.1,0.3l-0.1,0.3l0,0.1l-0.1,0.2l-0.1,0.3l0,0.1l-0.1,0.1l-0.1,0.3l-0.1,0.2l0,0.1l-0.1,0.3
				l-0.1,0.3l0,0l-0.1,0.3l-0.1,0.3l0,0.1l-0.1,0.2l-0.1,0.3l0,0.2l0,0.1l-0.1,0.3l-0.1,0.3v0.1l-0.1,0.3l-0.1,0.3v0l-0.1,0.3
				l-0.1,0.3l0,0.1l0,0.2l-0.1,0.3l0,0.2l0,0.1l-0.1,0.3v0.1c-0.5,2.9-0.7,5.8-0.7,8.8c0,6.6,1.1,12.9,3.2,18.8l0,0.1l0.4,1.1
				l0.1,0.1l0.2,0.4l0.1,0.3l0.1,0.3l0.1,0.3l0.1,0.2l0.2,0.5l0,0.1l0.5,1l0.1,0.1l0.2,0.4l0.4,0.9l0.1,0.2l0.2,0.4l0.1,0.1l0.3,0.5
				l0,0l0.3,0.5l0.1,0.1l0.2,0.4l0.1,0.2l0.2,0.3l0.2,0.3l0.1,0.2l0.9,1.5l0.1,0.1c2.4,3.9,5.2,7.5,8.4,10.7
				c8.2,8.2,18.9,13.9,30.7,15.8h0l0.6,0.1l0.1,0l1.6,0.2l0.5,0.1h0.1l0.6,0.1h0.1l0.5,0.1h0.2l0.4,0l0.3,0l0.3,0l0.5,0h0.1
				c1.2,0.1,2.4,0.1,3.5,0.1h0.6h0.1h0.5h0.3h0.3h0.4h0.2l0.6,0h0c14.5-0.7,27.5-6.9,37.1-16.5c1.9-1.9,3.6-3.9,5.2-6.1l0.1-0.1
				l0.3-0.3l0.2-0.2l0.2-0.3l0.6-0.9l0-0.1l0.7-0.9l0.1-0.1l0.2-0.4l0.1-0.2l0.2-0.3l0.2-0.3l0.1-0.2l0.3-0.4l0.1-0.1l0.3-0.5v0
				l0.3-0.5l0.1-0.1l0.2-0.4l0.1-0.2l0.2-0.3l0.2-0.3l0.1-0.2l0.2-0.4l0.1-0.1l0.3-0.5l0,0c0.4-0.8,0.8-1.6,1.2-2.5l0.1-0.1l0.4-1
				l0.1-0.1l0-0.1l0.2-0.5l0.1-0.2l0.1-0.3l0.1-0.3l0.1-0.3l0.1-0.4l0.1-0.1l0.2-0.5l0-0.1l0.2-0.5l0-0.1l0.2-0.5l0.1-0.2l0.1-0.4
				l0.1-0.3l0.1-0.3l0.1-0.4l0.1-0.2l0.1-0.5l0-0.1l0.2-0.6v0v-0.1c1.4-4.9,2.2-10.1,2.2-15.4c0-3-0.2-5.9-0.7-8.8L361.9,77.9z"/>
			<circle class="st1" cx="305.6" cy="86.7" r="33"/>
			<path class="st2" d="M357.3,101l-0.1,0.3c-3.2,11.4-10.1,21.1-19.2,27.9c-7.8,5.9-17.1,9.6-27.1,10.6l-0.2,0l-0.4,0l-0.3,0
				l-0.2,0h-0.1l-0.5,0l-0.5,0h0l-0.5,0H308h-0.4h-0.3h-0.3h-0.4h-0.1H306l0,0h-0.5h-0.1h-0.4h-0.3h-0.3h-0.4h-0.1l-0.5,0h0l-0.5,0
				l-0.5,0h-0.1l-0.2,0l-0.3,0l-0.4,0l-0.2,0c-10-0.9-19.4-4.7-27.1-10.6c-9-6.8-15.9-16.5-19.2-27.9l-0.1-0.3
				c-1.3-4.6-2-9.4-2-14.3c0-2.7,0.2-5.5,0.6-8.1l0-0.1l0-0.2c0.3-1.6,0.6-3.2,1-4.8l0-0.1l0.1-0.5l0.1-0.2l0.1-0.4l0.1-0.2l0.1-0.3
				l0.1-0.3l0.1-0.3l0.1-0.3l0.1-0.2c2.6-8.2,7.2-15.6,13.2-21.6c8-8,18.5-13.5,30.2-15.1l0.2,0l1.2-0.1h0l0.6-0.1h0.1l0.6-0.1h0.1
				l0.5-0.1h0.2l0.4,0l0.3,0l0.4,0l0.3,0h0.3l0.4,0h0.2h0.5h0.1h0.5h0.1h0.6l0,0h0.6h0.1h0.5h0.1h0.5h0.2l0.4,0h0.3l0.3,0l0.4,0
				l0.3,0l0.4,0h0.2l0.5,0.1h0.1l0.6,0.1h0.1l0.6,0.1h0l1.2,0.1l0.2,0c11.7,1.6,22.2,7.1,30.2,15.1c5.6,5.6,9.9,12.3,12.6,19.9
				l0,0.1l0.2,0.5l0,0.1l0.1,0.5l0.1,0.2l0.1,0.4l0.1,0.2l0.1,0.3l0.1,0.3l0.1,0.3c0.6,2.1,1.1,4.3,1.4,6.5l0.1,0.2
				c0.4,2.6,0.6,5.4,0.6,8.1C359.3,91.6,358.6,96.4,357.3,101L357.3,101z M362,77.9v-0.1c-0.4-2.7-1-5.3-1.8-7.9l0-0.1
				c-0.3-0.9-0.6-1.8-0.9-2.6l-0.1-0.2l-0.1-0.3l-0.1-0.1l-0.1-0.2l-0.7-1.7l0,0c-0.8-1.9-1.7-3.7-2.7-5.5
				c-3.2-5.8-7.5-11-12.5-15.4c-4.1-3.6-8.8-6.5-13.7-8.7l-0.1-0.1l-0.3-0.1l-0.3-0.1l0,0l-0.3-0.1l-0.3-0.1h0l-0.3-0.1l-0.3-0.1
				l-0.1,0l-0.2-0.1l-0.3-0.1l-0.1-0.1l-0.2-0.1l-0.3-0.1l-0.2-0.1l-0.1,0l-0.3-0.1l-0.3-0.1h0l-0.3-0.1l-0.3-0.1h0l-0.3-0.1
				l-0.3-0.1l-0.1,0l-0.2-0.1l-0.3-0.1l-0.2-0.1l-0.1,0l-0.3-0.1l-0.2-0.1h-0.1l-0.3-0.1l-0.3-0.1l0,0l-0.3-0.1l-0.3-0.1l-0.1,0
				l-0.2-0.1L321,32l-0.1-0.1l-0.2,0l-0.3-0.1l-0.2-0.1l-0.1,0l-0.3-0.1l-0.3-0.1l0,0l-0.3-0.1l-0.3-0.1h-0.1l-0.3-0.1l-0.3-0.1
				l-0.1,0l-0.2,0l-0.3-0.1l-0.2-0.1l-0.1,0l-0.3-0.1l-0.3-0.1h0l-0.3-0.1l-0.3-0.1H316l-0.3-0.1l-0.3-0.1l-0.1,0l-0.2,0l-0.3-0.1
				l-0.2,0h-0.1l-0.3-0.1l-0.3,0h0l-0.3,0l-0.3-0.1h-0.1l-0.3,0l-0.3,0l-0.1,0l-0.2,0l-0.3,0l-0.2,0h-0.1l-0.3,0l-0.3,0l0,0l-0.3,0
				l-0.3,0h-0.1h-0.2l-0.3,0h-0.2h-0.1l-0.3,0h-0.3h-0.1h-0.3h-0.3h0H308h-0.3h-0.1h-0.2H307h-0.2h-0.1h-0.3h-0.3l0,0h-0.3h-0.3
				h-0.1h-0.2h-0.3h-0.2h-0.1h-0.3h-0.3h0h-0.3h-0.3h-0.1h-0.3l-0.3,0h-0.1h-0.2l-0.3,0h-0.2h-0.1l-0.3,0l-0.3,0l-0.3,0l-0.3,0h-0.1
				l-0.2,0l-0.3,0l-0.2,0l-0.1,0l-0.3,0l-0.3,0h-0.1l-0.3,0.1l-0.3,0h0l-0.3,0.1l-0.3,0.1h-0.1l-0.2,0l-0.3,0.1l-0.2,0l-0.1,0
				l-0.3,0.1l-0.3,0.1h-0.1l-0.3,0.1l-0.3,0.1h0l-0.3,0.1l-0.3,0.1l-0.1,0l-0.2,0.1l-0.3,0.1l-0.2,0l-0.1,0l-0.3,0.1l-0.2,0.1h-0.1
				l-0.3,0.1l-0.3,0.1l0,0l-0.3,0.1l-0.3,0.1l-0.1,0l-0.2,0.1l-0.3,0.1l-0.1,0l-0.1,0.1l-0.3,0.1l-0.2,0.1l-0.1,0l-0.3,0.1l-0.3,0.1
				l0,0l-0.3,0.1l-0.3,0.1h-0.1l-0.3,0.1l-0.3,0.1l-0.1,0l-0.2,0.1l-0.3,0.1l-0.6,0.2l-0.3,0.1l0,0l-0.3,0.1l-0.3,0.1h0l-0.3,0.1
				l-0.3,0.1l-0.1,0l-0.2,0.1l-0.3,0.1l-0.1,0.1l-0.1,0.1l-0.3,0.1l-0.2,0.1l-0.1,0l-0.3,0.1l-0.3,0.1h0l-0.3,0.1l-0.3,0.1h0
				l-0.3,0.1L283,35L283,35l-0.2,0.1l-0.3,0.1l-0.1,0.1l-0.1,0.1l-0.3,0.1l-0.2,0.1l-0.1,0l-0.3,0.1l-0.3,0.1h0l-0.3,0.1l-0.3,0.1h0
				l-0.5,0.3l-0.1,0.1l-0.2,0.1l-0.4,0.2l-0.1,0.1c-3.5,1.9-6.8,4.2-9.8,6.8c-5.1,4.4-9.3,9.6-12.5,15.4l-1.2,2.4l0,0.1l-0.3,0.6
				l0,0l-0.1,0.3l-0.1,0.3l0,0.1l-0.2,0.5l-0.1,0.1l-0.1,0.2l-0.1,0.3l-0.1,0.2l-0.1,0.1l-0.2,0.5l0,0l-0.2,0.6v0l-0.1,0.3l-0.1,0.3
				l0,0.1l-0.1,0.2l-0.1,0.3l-0.1,0.2l-0.1,0.1l-0.1,0.3l-0.1,0.2l0,0.1l-0.1,0.3l-0.1,0.3v0l-0.1,0.3l-0.1,0.3l0,0.1l-0.1,0.2
				l-0.1,0.3l-0.1,0.2l-0.1,0.1l-0.1,0.3l-0.1,0.2l0,0.1l-0.1,0.3l-0.1,0.3l0,0l-0.1,0.3l-0.1,0.3l0,0.1l-0.1,0.2l-0.1,0.3l0,0.1
				l-0.1,0.1l-0.1,0.3l-0.1,0.2l0,0.1l-0.1,0.3l-0.1,0.3l0,0l-0.1,0.3l-0.1,0.3l0,0.1l-0.1,0.2l-0.1,0.3l0,0.2l0,0.1l-0.1,0.3
				l-0.1,0.3v0.1l-0.1,0.3l-0.1,0.3v0l-0.1,0.3l-0.1,0.3l0,0.1l0,0.2l-0.1,0.3l0,0.2l0,0.1l-0.1,0.3v0.1c-0.5,2.9-0.7,5.8-0.7,8.8
				c0,6.6,1.1,12.9,3.2,18.8l0,0.1l0.4,1.1l0.1,0.1l0.2,0.4l0.1,0.3l0.1,0.3l0.1,0.3l0.1,0.2l0.2,0.5l0,0.1l0.5,1l0.1,0.1l0.2,0.4
				l0.4,0.9l0.1,0.2l0.2,0.4l0.1,0.1l0.3,0.5l0,0l0.3,0.5l0.1,0.1l0.2,0.4l0.1,0.2l0.2,0.3l0.2,0.3l0.1,0.2l0.9,1.5l0.1,0.1
				c2.4,3.9,5.2,7.5,8.4,10.7c8.2,8.2,18.9,13.9,30.7,15.8h0l0.6,0.1l0.1,0l1.6,0.2l0.5,0.1h0.1l0.6,0.1h0.1l0.5,0.1h0.2l0.4,0
				l0.3,0l0.3,0l0.5,0h0.1c1.2,0.1,2.4,0.1,3.5,0.1h0.6h0.1h0.5h0.3h0.3h0.4h0.2l0.6,0h0c14.5-0.7,27.5-6.9,37.1-16.5
				c1.9-1.9,3.6-3.9,5.2-6.1l0.1-0.1l0.3-0.3l0.2-0.2l0.2-0.3l0.6-0.9l0-0.1l0.7-0.9l0.1-0.1l0.2-0.4l0.1-0.2l0.2-0.3l0.2-0.3
				l0.1-0.2l0.3-0.4l0.1-0.1l0.3-0.5v0l0.3-0.5l0.1-0.1l0.2-0.4l0.1-0.2l0.2-0.3l0.2-0.3l0.1-0.2l0.2-0.4l0.1-0.1l0.3-0.5l0,0
				c0.4-0.8,0.8-1.6,1.2-2.5l0.1-0.1l0.4-1l0.1-0.1l0-0.1l0.2-0.5l0.1-0.2l0.1-0.3l0.1-0.3l0.1-0.3l0.1-0.4l0.1-0.1l0.2-0.5l0-0.1
				l0.2-0.5l0-0.1l0.2-0.5l0.1-0.2l0.1-0.4l0.1-0.3l0.1-0.3l0.1-0.4l0.1-0.2l0.1-0.5l0-0.1l0.2-0.6v0v-0.1
				c1.4-4.9,2.2-10.1,2.2-15.4c0-3-0.2-5.9-0.7-8.8L362,77.9z"/>
			<path class="st2" d="M305.6,119.1c-9,0-17.1-3.7-22.9-9.5c-5.9-5.9-9.5-14-9.5-23s3.7-17.1,9.5-22.9s14-9.5,23-9.5
				c8.9,0,17.1,3.7,22.9,9.5s9.5,14,9.5,23s-3.7,17.1-9.5,22.9C322.7,115.5,314.5,119.1,305.6,119.1L305.6,119.1z M341.5,86.7
				c0-9.9-4-18.9-10.5-25.4s-15.5-10.5-25.4-10.5s-18.9,4-25.4,10.5c-6.5,6.5-10.5,15.4-10.5,25.4c0,9.9,4,18.9,10.5,25.4
				c6.5,6.5,15.5,10.5,25.4,10.5s18.9-4,25.4-10.5S341.5,96.6,341.5,86.7z"/>
			<path class="st2" d="M306.1,70.9L306.1,70.9l0.3,0l0.2,0v0.1l1.6,0.1c2.5,0.2,4.1,0.9,6.3,2c0.5,0.2,0.7-0.1,1-0.5
				c0.3-0.5,0.7-1.6,0.2-2.1c-1.8-1.5-5.3-1.9-7.5-1.9c-1.7-0.1-2.9,0-3.7,0.1c-5.4,0.7-9.4,3.3-9.4,9.2c0,6,5,7.8,9.8,9.7l0.8,0.3
				v-0.1l2.7,1.2c3.2,1.4,5.5,3.3,5.5,7c0,3.6-2.4,5.9-5.8,6.6l-2.4,0.5v-0.2l-1.7-0.2c-3.6-0.4-5.4-2-8.2-4.1
				c-0.5-0.4-0.7-0.1-1.1,0.4c-0.7,1-0.8,1.8-0.1,2.8c2,2.7,6.4,3.8,9.6,3.8c1.3,0,2.5,0,3.7-0.1c5.6-0.9,9.1-4.3,9.1-10.2
				c0-6.2-4.3-8.5-9.5-10.4l-0.8-0.3v0.1l-2.7-1.1c-3.1-1.2-5.8-2.7-5.8-6.4c0-3.7,3-5.4,6.2-5.9L306.1,70.9L306.1,70.9z"/>
			<path class="st2" d="M304.8,67v40.5v0c0,0.4,0.7,0.7,1.5,0.7c0.8,0,1.5-0.3,1.5-0.7l0,0V67l0,0c0-0.4-0.7-0.7-1.5-0.7
				S304.8,66.6,304.8,67L304.8,67z"/>
		</g>
	</g>
</g>
</svg>
