<?xml version="1.0" encoding="utf-8"?>
<!-- Generator: Adobe Illustrator 22.1.0, SVG Export Plug-In . SVG Version: 6.00 Build 0)  -->
<svg version="1.1" id="Слой_1" xmlns="http://www.w3.org/2000/svg" xmlns:xlink="http://www.w3.org/1999/xlink" x="0px" y="0px"
	 viewBox="0 0 414.1 414" style="enable-background:new 0 0 414.1 414;" xml:space="preserve">
<style type="text/css">
	.st0{fill:#EEF4FF;}
	.st1{fill:#FFFFFF;}
	.st2{fill:#144496;}
</style>
<g id="Слой_x0020_1">
	<g id="_923339600">
		<circle class="st0" cx="207" cy="207" r="207"/>
		<g>
			<path class="st1" d="M45.9,368.2h322.4v-3.8H45.9V368.2z M311.4,159.1c-0.5,0-1,0.2-1.4,0.5c-0.3,0.3-0.6,0.8-0.6,1.4v183.4
				c0,0.5,0.2,1,0.5,1.4c0.4,0.3,0.9,0.6,1.4,0.6h38.4c0.5,0,1-0.2,1.4-0.6c0.3-0.3,0.6-0.8,0.6-1.4V161c0-0.5-0.2-1-0.6-1.4
				c-0.3-0.3-0.8-0.6-1.4-0.6L311.4,159.1L311.4,159.1z M251,234.4c-0.5,0-1,0.2-1.4,0.6c-0.3,0.3-0.6,0.8-0.6,1.4v108.1
				c0,0.5,0.2,1,0.5,1.4c0.4,0.3,0.9,0.6,1.4,0.6h38.5c0.5,0,1-0.2,1.4-0.6c0.3-0.3,0.6-0.8,0.6-1.4V236.3c0-0.5-0.2-1-0.5-1.4
				c-0.3-0.3-0.8-0.5-1.4-0.5L251,234.4L251,234.4z M190.6,266.6c-0.5,0-1,0.2-1.4,0.5c-0.3,0.3-0.5,0.8-0.5,1.4v75.8
				c0,0.5,0.2,1,0.6,1.4c0.3,0.3,0.8,0.6,1.4,0.6h38.4c0.5,0,1-0.2,1.4-0.6s0.6-0.8,0.6-1.4v-75.8c0-0.5-0.2-1-0.6-1.4
				c-0.3-0.3-0.8-0.6-1.4-0.6L190.6,266.6L190.6,266.6z M130.2,299c-0.5,0-1,0.2-1.4,0.6c-0.3,0.3-0.6,0.8-0.6,1.4v43.4
				c0,0.5,0.2,1,0.5,1.4c0.4,0.3,0.9,0.6,1.4,0.6h38.4c0.5,0,1-0.2,1.4-0.6c0.3-0.3,0.6-0.8,0.6-1.4V301c0-0.5-0.2-1-0.5-1.4
				c-0.3-0.3-0.8-0.5-1.4-0.5L130.2,299L130.2,299z M69.8,309.5c-0.5,0-1,0.2-1.4,0.5c-0.3,0.3-0.6,0.8-0.6,1.4v33
				c0,0.5,0.2,1,0.5,1.4c0.4,0.3,0.9,0.6,1.4,0.6h38.4c0.5,0,1-0.2,1.4-0.6c0.3-0.3,0.6-0.8,0.6-1.4v-33c0-0.5-0.2-1-0.6-1.4
				c-0.3-0.3-0.8-0.6-1.4-0.6L69.8,309.5L69.8,309.5z M322.1,86l11.7-33.3l19.9,39.9c0.3,0.5,0.7,0.8,1.1,1c0.5,0.1,1,0.1,1.4-0.1
				l0.1,0c0.4-0.2,0.7-0.7,0.9-1.1c0.1-0.5,0.1-1-0.1-1.4l-22-44c-0.2-0.5-0.6-0.8-1.1-0.9c-0.5-0.1-1-0.1-1.5,0.1l-43.9,22
				c-0.5,0.2-0.8,0.7-1,1.1c-0.1,0.5-0.1,1,0.1,1.5c0.2,0.5,0.7,0.8,1.1,0.9c0.5,0.1,1,0.1,1.5-0.1L330,51.6l-11.6,33.1
				c-19.3,55-53.9,101.8-98.1,136.1c-43.3,33.6-96,55.2-152.7,60.8l0.3,3.9c57.5-5.6,110.8-27.6,154.7-61.6
				C267.5,189.2,302.5,141.7,322.1,86L322.1,86z"/>
			<path class="st2" d="M45.9,368.2h322.4v-3.8H45.9V368.2z M344.4,342.4h-31V162.9H348v179.6H344.4L344.4,342.4z M311.4,159
				c-0.5,0-1,0.2-1.4,0.5c-0.3,0.3-0.6,0.8-0.6,1.4v183.4c0,0.5,0.2,1,0.5,1.4c0.4,0.3,0.9,0.6,1.4,0.6h38.4c0.5,0,1-0.2,1.4-0.6
				c0.3-0.3,0.6-0.8,0.6-1.4V160.9c0-0.5-0.2-1-0.6-1.4c-0.3-0.3-0.8-0.6-1.4-0.6L311.4,159L311.4,159z M283.9,342.4h-31V238.2h34.6
				v104.3H283.9L283.9,342.4z M251,234.4c-0.5,0-1,0.2-1.4,0.6c-0.3,0.3-0.6,0.8-0.6,1.4v108.1c0,0.5,0.2,1,0.5,1.4
				c0.4,0.3,0.9,0.6,1.4,0.6h38.5c0.5,0,1-0.2,1.4-0.6s0.6-0.8,0.6-1.4V236.3c0-0.5-0.2-1-0.5-1.4c-0.3-0.3-0.8-0.5-1.4-0.5
				L251,234.4L251,234.4z M223.5,342.4h-31v-71.8h34.6v71.8H223.5L223.5,342.4z M190.5,266.8c-0.5,0-1,0.2-1.4,0.5
				c-0.3,0.3-0.5,0.8-0.5,1.4v75.6c0,0.5,0.2,1,0.6,1.4c0.3,0.3,0.8,0.6,1.4,0.6H229c0.5,0,1-0.2,1.4-0.6c0.3-0.3,0.6-0.8,0.6-1.4
				v-75.6c0-0.5-0.2-1-0.6-1.4c-0.3-0.3-0.8-0.6-1.4-0.6L190.5,266.8L190.5,266.8z M163,342.4h-31v-39.6h34.6v39.6H163L163,342.4z
				 M130.1,299c-0.5,0-1,0.2-1.4,0.6c-0.3,0.3-0.6,0.8-0.6,1.4v43.4c0,0.5,0.2,1,0.5,1.4c0.4,0.3,0.9,0.6,1.4,0.6h38.4
				c0.5,0,1-0.2,1.4-0.6c0.3-0.3,0.6-0.8,0.6-1.4V301c0-0.5-0.2-1-0.5-1.4c-0.3-0.3-0.8-0.5-1.4-0.5L130.1,299L130.1,299z
				 M102.6,342.4h-31v-29.1h34.6v29.1H102.6L102.6,342.4z M69.6,309.5c-0.5,0-1,0.2-1.4,0.5c-0.3,0.3-0.6,0.8-0.6,1.4v33
				c0,0.5,0.2,1,0.5,1.4c0.4,0.3,0.9,0.6,1.4,0.6h38.4c0.5,0,1-0.2,1.4-0.6c0.3-0.3,0.6-0.8,0.6-1.4v-33c0-0.5-0.2-1-0.6-1.4
				c-0.3-0.3-0.8-0.6-1.4-0.6L69.6,309.5L69.6,309.5z M321.9,85.9l11.7-33.3l19.9,39.9c0.3,0.5,0.7,0.8,1.1,1c0.5,0.1,1,0.1,1.4-0.1
				l0.1,0c0.4-0.2,0.7-0.7,0.9-1.1c0.1-0.5,0.1-1-0.1-1.4l-22-44c-0.2-0.5-0.6-0.8-1.1-0.9c-0.5-0.1-1-0.1-1.5,0.1l-43.9,22
				c-0.5,0.2-0.8,0.7-1,1.1c-0.1,0.5-0.1,1,0.1,1.5c0.2,0.5,0.7,0.8,1.1,0.9c0.5,0.1,1,0.1,1.5-0.1l39.7-19.8l-11.6,33.1
				c-19.3,55-53.9,101.8-98.1,136.1c-43.3,33.6-96,55.2-152.7,60.8l0.3,3.9c57.5-5.6,110.8-27.6,154.7-61.6
				C267.4,189.1,302.4,141.7,321.9,85.9L321.9,85.9z"/>
			<rect x="60" y="87.5" class="st2" width="229.4" height="3.4"/>
			<rect x="60" y="128.6" class="st2" width="209.7" height="3.4"/>
			<rect x="60" y="169.7" class="st2" width="179.8" height="3.4"/>
			<rect x="60" y="210.8" class="st2" width="134.2" height="3.4"/>
			<rect x="60" y="251.9" class="st2" width="43.2" height="3.4"/>
			<rect x="60" y="108.1" class="st2" width="220.6" height="3.4"/>
			<rect x="60" y="149.2" class="st2" width="196.3" height="3.4"/>
			<rect x="60" y="190.3" class="st2" width="159.5" height="3.4"/>
			<rect x="60" y="231.4" class="st2" width="99.6" height="3.4"/>
		</g>
	</g>
</g>
</svg>
